<?xml version="1.0" encoding="UTF-8" standalone="no"?>
<svg
   version="1.1"
   width="1199.9999pt"
   height="864pt"
   id="svg32"
   viewBox="0 0 1199.9999 864"
   sodipodi:docname="Логотип ПГНИУ (вектор).cdr"
   xmlns:inkscape="http://www.inkscape.org/namespaces/inkscape"
   xmlns:sodipodi="http://sodipodi.sourceforge.net/DTD/sodipodi-0.dtd"
   xmlns="http://www.w3.org/2000/svg"
   xmlns:svg="http://www.w3.org/2000/svg">
  <defs
     id="defs36" />
  <sodipodi:namedview
     id="namedview34"
     pagecolor="#ffffff"
     bordercolor="#000000"
     borderopacity="0.25"
     inkscape:showpageshadow="2"
     inkscape:pageopacity="0.0"
     inkscape:pagecheckerboard="0"
     inkscape:deskcolor="#d1d1d1"
     inkscape:document-units="pt" />
  <g
     id="Layer1000">
    <path
       d="m 456.7536,334.7123 h -51.5875 v 4.4956 h 5.9693 v 42.5964 h -5.9693 v 4.4956 h 19.0138 v -4.4956 h -5.8219 v -42.5964 h 25.3511 v 42.5964 h -5.9693 v 4.4956 h 19.0138 v -4.4956 h -5.8219 v -42.5964 h 5.8219 z m 59.1597,38.322 h -4.7905 l -0.7366,8.77 h -18.3503 v -19.3818 l 16.876,0.5891 v -5.6745 l -16.876,0.6635 v -18.7927 h 18.3503 l 0.7366,8.7701 h 4.7905 v -13.2657 h -36.9956 v 4.4956 h 5.8956 v 42.5964 h -5.8956 v 4.4956 h 36.9956 z m 22.2377,13.2656 h 20.4876 v -4.4956 h -7.3694 v -15.1811 h 7.5169 c 2.7392,0 5.2444,-0.3563 7.5168,-1.0566 2.2723,-0.6881 4.2376,-1.7195 5.8956,-3.0827 1.6587,-1.3638 2.9481,-3.0341 3.8573,-5.0362 0.9086,-1.9898 1.3632,-4.2867 1.3755,-6.8908 -0.0123,-3.439 -0.7863,-6.3373 -2.3215,-8.6957 -1.5352,-2.3461 -3.7462,-4.127 -6.6328,-5.3311 -2.8861,-1.2034 -6.3626,-1.8178 -10.4281,-1.8178 H 538.151 v 4.4956 h 5.8957 v 42.5964 h -5.8957 z m 13.1182,-24.0986 v -22.9934 h 5.7482 c 2.9721,0.0123 5.4165,0.5283 7.3448,1.5229 1.9284,0.9952 3.3659,2.3584 4.299,4.1025 0.9338,1.7317 1.4007,3.7092 1.4007,5.9447 0,1.5727 -0.258,3.0465 -0.7495,4.4219 -0.5037,1.3761 -1.2409,2.5918 -2.2109,3.6356 -0.9583,1.0443 -2.1372,1.8675 -3.5373,2.4566 -1.4006,0.6021 -2.9849,0.8969 -4.7781,0.9092 z m 47.0735,24.0986 h 17.1715 v -4.4956 h -5.8956 v -33.9738 c 0,-0.8969 -0.0492,-1.7195 -0.1106,-2.4566 -0.0737,-0.7495 -0.1474,-1.3386 -0.2211,-1.7932 -0.0615,-0.4423 -0.1106,-0.6758 -0.1106,-0.6881 l 0.2211,-0.0737 c 0,0.0123 0.086,0.2212 0.2458,0.6512 0.1714,0.43 0.4171,1.0069 0.7611,1.744 0.3317,0.7249 0.7618,1.5475 1.2778,2.469 l 15.6234,26.0883 h 0.8846 l 16.4337,-25.9409 c 0.5406,-0.86 0.9952,-1.6703 1.3515,-2.4566 0.3686,-0.7741 0.6389,-1.4246 0.8103,-1.9284 0.1843,-0.5037 0.2703,-0.7617 0.2703,-0.774 l 0.2211,0.0737 c 0,0.0123 -0.0245,0.172 -0.0491,0.4792 -0.0369,0.3194 -0.086,0.7249 -0.1352,1.228 -0.0491,0.5037 -0.086,1.0443 -0.1228,1.6218 -0.0369,0.5768 -0.0615,1.142 -0.0615,1.6826 v 34.0475 h -5.9693 v 4.4956 h 18.6452 v -4.4956 h -5.8219 v -42.5964 h 5.8219 v -4.4956 h -13.265 l -17.5401,28.373 -16.508,-28.373 h -13.9285 v 4.4956 h 5.822 v 42.5964 h -5.822 z M 721.0286,349.894 v -13.2656 c 0,-0.0123 -0.3071,-0.172 -0.9215,-0.4669 -0.6137,-0.282 -1.5229,-0.626 -2.7263,-1.0069 -1.2041,-0.3808 -2.6778,-0.7249 -4.4342,-1.0197 -1.7563,-0.282 -3.783,-0.4417 -6.0676,-0.454 -3.1447,0.0123 -6.0308,0.4908 -8.6472,1.4246 -2.6287,0.9338 -4.9625,2.2355 -7.0014,3.9181 -2.0512,1.6827 -3.783,3.6479 -5.2076,5.8957 -1.4123,2.2478 -2.4935,4.6921 -3.2301,7.3331 -0.7372,2.6404 -1.118,5.3919 -1.118,8.254 0.0122,4.1516 0.6266,7.8854 1.8423,11.1893 1.2164,3.3044 2.9604,6.1167 5.2205,8.4383 2.2724,2.3338 4.9864,4.1024 8.1434,5.3427 3.1564,1.2286 6.6937,1.843 10.5878,1.8546 2.0758,-0.0116 3.9427,-0.1222 5.6008,-0.3311 1.6703,-0.2089 3.0949,-0.4546 4.2744,-0.7372 1.1912,-0.2826 2.1004,-0.5283 2.7264,-0.7372 0.6389,-0.2088 0.9583,-0.3188 0.9583,-0.3311 v -13.3393 h -4.7905 l -0.6628,9.5803 c -0.8846,0.2334 -1.9775,0.4546 -3.2676,0.6512 -1.2894,0.1966 -2.7269,0.2949 -4.3236,0.3071 -2.4198,-0.0122 -4.6178,-0.4054 -6.5959,-1.1795 -1.9775,-0.7611 -3.7216,-1.8423 -5.2445,-3.2301 -1.5106,-1.3877 -2.7884,-2.9966 -3.8198,-4.8519 -1.0321,-1.8546 -1.8055,-3.8689 -2.3338,-6.043 -0.5283,-2.1864 -0.7986,-4.4459 -0.7986,-6.8042 0,-2.125 0.2211,-4.2253 0.6634,-6.3011 0.4546,-2.0758 1.1427,-4.041 2.0635,-5.8834 0.9215,-1.8423 2.1004,-3.4764 3.525,-4.8887 1.4375,-1.4246 3.1324,-2.5427 5.0854,-3.353 1.9652,-0.8109 4.2007,-1.2286 6.7188,-1.2409 1.3263,0.0123 2.5175,0.1106 3.5864,0.3194 1.0683,0.1966 2.002,0.4423 2.8007,0.7372 0.798,0.2949 1.4737,0.5769 2.0143,0.8594 l 0.5891,9.3598 z m 22.9013,-10.6861 h 5.8956 v 42.5964 h -5.8956 v 4.4956 h 19.0138 v -4.4956 h -5.8957 v -19.8978 h 5.7482 l 17.3921,24.3934 h 9.4335 v -4.4956 h -4.0533 l -16.8029,-23.5825 14.5182,-19.0139 h 4.2745 v -4.4956 h -15.2555 v 4.4956 h 4.2008 l -12.0862,18.2767 h -7.3694 v -18.2767 h 5.8957 v -4.4956 h -19.0138 z m 64.6129,0 h 5.8956 v 42.5964 h -5.8956 v 4.4956 h 13.1182 l 24.0986,-39.2066 c 0.4546,-0.7365 0.8594,-1.4737 1.2403,-2.1986 0.3931,-0.7366 0.7126,-1.4492 0.9706,-2.1495 l 0.3686,0.1474 c -0.1843,0.6881 -0.3317,1.4007 -0.43,2.1495 -0.0983,0.7372 -0.1598,1.5475 -0.1598,2.4198 v 34.3424 h -5.8956 v 4.4956 h 19.0138 v -4.4956 h -5.8962 v -42.5964 h 5.8962 v -4.4956 h -13.1182 l -23.4357,37.954 c -0.5154,0.8471 -1.0314,1.7195 -1.5351,2.6158 -0.4915,0.8969 -0.9701,1.8423 -1.4124,2.8375 l -0.2948,-0.1474 c 0.2211,-1.0315 0.3686,-2.0635 0.4546,-3.1073 0.0983,-1.0566 0.1351,-2.1249 0.1351,-3.2307 v -32.4263 h 5.8956 v -4.4956 h -19.0138 z m 100.4297,-10.6124 c 1.5849,-0.0122 3.0833,-0.172 4.471,-0.5037 1.4007,-0.3188 2.6655,-0.7366 3.8321,-1.2526 1.155,-0.516 2.1741,-1.0683 3.071,-1.6703 0.884,-0.5898 1.6089,-1.1672 2.1864,-1.7318 l -3.9796,-5.0116 c -0.946,0.8723 -1.8669,1.7072 -2.7761,2.5058 -0.9086,0.7863 -1.9161,1.4369 -2.9966,1.9406 -1.0812,0.5038 -2.3461,0.7741 -3.8082,0.7864 -1.4615,-0.0123 -2.7264,-0.2826 -3.8076,-0.7864 -1.0806,-0.5037 -2.088,-1.1543 -2.9966,-1.9406 -0.9092,-0.7986 -1.8301,-1.6335 -2.7761,-2.5058 l -3.9796,5.0116 c 0.5775,0.5646 1.2895,1.142 2.1495,1.7318 0.8601,0.602 1.8669,1.1543 2.9973,1.6703 1.142,0.516 2.4192,0.9338 3.8198,1.2526 1.4001,0.3317 2.9352,0.4915 4.5933,0.5037 z m -25.9409,10.6124 h 5.8956 v 42.5964 h -5.8956 v 4.4956 h 13.1182 l 24.0985,-39.2066 c 0.4546,-0.7365 0.8595,-1.4737 1.2403,-2.1986 0.3932,-0.7366 0.7127,-1.4492 0.9707,-2.1495 l 0.3686,0.1474 c -0.1843,0.6881 -0.3318,1.4007 -0.4301,2.1495 -0.0982,0.7372 -0.1597,1.5475 -0.1597,2.4198 v 34.3424 h -5.8956 v 4.4956 h 19.0138 v -4.4956 h -5.8962 v -42.5964 h 5.8962 v -4.4956 h -13.1182 l -23.4357,37.954 c -0.5154,0.8471 -1.0314,1.7195 -1.5352,2.6158 -0.4914,0.8969 -0.97,1.8423 -1.4123,2.8375 l -0.2949,-0.1474 c 0.2212,-1.0315 0.3686,-2.0635 0.4546,-3.1073 0.0983,-1.0566 0.1352,-2.1249 0.1352,-3.2307 v -32.4263 h 5.8956 v -4.4956 h -19.0138 z"
       style="fill:#cd0131;fill-rule:evenodd"
       id="path2" />
    <path
       d="m 454.6164,412.2064 h -17.4663 v 4.4956 h 5.8956 l -8.9906,23.1408 c -0.2826,0.6875 -0.5529,1.4001 -0.8109,2.1127 -0.258,0.7243 -0.5037,1.3877 -0.712,2.002 -0.2089,0.6137 -0.3686,1.1175 -0.4914,1.4861 -0.1352,0.3809 -0.1966,0.5774 -0.1966,0.5897 h -0.2212 c 0,-0.0123 -0.0614,-0.1966 -0.1843,-0.5774 -0.1106,-0.3686 -0.2826,-0.8601 -0.4914,-1.4738 -0.2089,-0.6143 -0.4417,-1.2901 -0.7243,-2.0266 -0.2703,-0.7249 -0.5652,-1.4621 -0.8846,-2.1864 L 419.0209,416.702 h 5.8956 v -4.4956 h -19.7504 v 4.4956 h 5.8956 l 17.1715,36.1847 c -0.5529,1.1058 -1.2409,2.0635 -2.0389,2.8744 -0.7986,0.7986 -1.7693,1.4123 -2.899,1.8423 -1.142,0.4424 -2.4935,0.6635 -4.0533,0.6635 -0.8109,-0.0123 -1.4369,-0.0737 -1.8546,-0.1843 -0.4301,-0.1106 -0.6512,-0.172 -0.6512,-0.1843 v 5.8956 c 0,0.0123 0.1597,0.0738 0.4669,0.1843 0.3071,0.1229 0.7494,0.2458 1.3509,0.3564 0.602,0.1228 1.3515,0.1842 2.2355,0.1965 1.744,-0.0123 3.3044,-0.3808 4.6799,-1.1057 1.3877,-0.7366 2.6409,-1.8055 3.783,-3.1933 1.1303,-1.3883 2.1863,-3.0587 3.1815,-5.0239 0.9946,-1.9775 1.9775,-4.1884 2.9475,-6.6697 l 13.3394,-31.8365 h 5.8956 z m 18.1108,51.5875 h 19.0138 v -4.4955 h -5.8956 v -19.6767 h 26.0883 v 19.6767 h -5.8956 v 4.4955 h 19.0138 v -4.4955 h -5.8963 V 416.702 h 5.8963 v -4.4956 h -19.0138 v 4.4956 h 5.8956 v 18.2029 H 485.8454 V 416.702 h 5.8956 v -4.4956 h -19.0138 v 4.4956 h 5.8956 v 42.5964 h -5.8956 z m 74.4887,-47.0919 h 5.8957 v 42.5964 h -5.8957 v 4.4955 h 13.1182 l 24.0986,-39.2065 c 0.4546,-0.7366 0.8594,-1.4737 1.2403,-2.1986 0.3932,-0.7366 0.7126,-1.4492 0.9706,-2.1496 l 0.3686,0.1475 c -0.1843,0.688 -0.3317,1.4006 -0.43,2.1495 -0.0983,0.7372 -0.1597,1.5475 -0.1597,2.4198 v 34.3424 h -5.8957 v 4.4955 h 19.0139 v -4.4955 h -5.8963 V 416.702 h 5.8963 v -4.4956 h -13.1182 l -23.4357,37.9539 c -0.5154,0.8472 -1.0315,1.7195 -1.5352,2.6158 -0.4915,0.8969 -0.97,1.8424 -1.4123,2.8376 l -0.2949,-0.1475 c 0.2211,-1.0314 0.3686,-2.0635 0.4546,-3.1072 0.0983,-1.0566 0.1351,-2.1249 0.1351,-3.2307 V 416.702 h 5.8957 v -4.4956 h -19.0139 z m 74.4888,47.0919 h 19.8241 c 2.9604,0 5.626,-0.3317 8.0083,-0.9706 2.3707,-0.6505 4.4096,-1.5966 6.1051,-2.8492 1.6949,-1.2532 2.9967,-2.7884 3.8936,-4.6062 0.9086,-1.8177 1.3632,-3.8935 1.3754,-6.2396 -0.0122,-1.6949 -0.2948,-3.2301 -0.8477,-4.5939 -0.5523,-1.3632 -1.3263,-2.5544 -2.3092,-3.5741 -0.9946,-1.0192 -2.1489,-1.8669 -3.4636,-2.5181 -1.314,-0.6506 -2.7509,-1.1175 -4.2867,-1.4001 v -0.2948 c 1.7809,-0.6137 3.3167,-1.4738 4.6185,-2.555 1.2894,-1.0806 2.2969,-2.37 2.9972,-3.8567 0.712,-1.4983 1.0683,-3.1687 1.0806,-5.011 0,-2.6041 -0.6512,-4.8765 -1.9529,-6.8417 -1.314,-1.9652 -3.267,-3.4881 -5.8588,-4.5939 -2.6041,-1.1051 -5.8465,-1.6703 -9.7277,-1.6826 h -19.4562 v 4.4956 h 5.8957 v 42.5964 h -5.8957 z m 13.1182,-4.4955 v -20.2665 h 7.8117 c 2.383,0.0123 4.3973,0.4669 6.0431,1.3386 1.6457,0.8724 2.8867,2.0758 3.7338,3.587 0.8478,1.5107 1.2772,3.2301 1.2772,5.1708 0,1.9406 -0.454,3.6601 -1.3386,5.1959 -0.884,1.5229 -2.1741,2.7264 -3.8567,3.611 -1.6826,0.8963 -3.7339,1.3386 -6.1537,1.3632 z m 16.8023,-33.4578 c 0,1.2649 -0.1837,2.4806 -0.5523,3.6233 -0.3563,1.1543 -0.9215,2.1741 -1.6703,3.0581 -0.7495,0.8846 -1.7078,1.5603 -2.8621,2.0143 H 634.8229 V 416.702 h 5.9694 c 2.1126,0.0123 3.869,0.2457 5.269,0.7249 1.4006,0.4663 2.5181,1.1297 3.329,1.9652 0.8103,0.8349 1.3877,1.8055 1.7318,2.8984 0.344,1.1057 0.5154,2.2846 0.5031,3.5501 z m 68.1508,24.6877 h -4.7905 l -0.7365,8.7701 h -18.3504 v -19.3819 l 16.876,0.5892 v -5.6745 l -16.876,0.6635 V 416.702 h 18.3504 l 0.7365,8.77 h 4.7905 v -13.2656 h -36.9956 v 4.4956 h 5.8957 v 42.5964 h -5.8957 v 4.4955 h 36.9956 z m 22.2378,13.2656 h 20.4876 v -4.4955 h -7.3694 v -15.1811 h 7.5168 c 2.7393,0 5.2445,-0.3563 7.5168,-1.0567 2.2724,-0.688 4.2376,-1.7194 5.8957,-3.0826 1.6586,-1.3638 2.9481,-3.0342 3.8573,-5.0362 0.9086,-1.9898 1.3631,-4.2868 1.3754,-6.8909 -0.0123,-3.4389 -0.7863,-6.3373 -2.3215,-8.6957 -1.5352,-2.346 -3.7461,-4.127 -6.6328,-5.331 -2.8861,-1.2035 -6.3625,-1.8178 -10.4281,-1.8178 h -19.8978 v 4.4956 h 5.8956 v 42.5964 h -5.8956 z M 755.132,439.6954 V 416.702 h 5.7482 c 2.9721,0.0123 5.4164,0.5283 7.3448,1.5229 1.9283,0.9952 3.3658,2.3584 4.299,4.1024 0.9338,1.7318 1.4007,3.7093 1.4007,5.9448 0,1.5727 -0.2581,3.0464 -0.7495,4.4219 -0.5038,1.3761 -1.2409,2.5918 -2.211,3.6355 -0.9583,1.0444 -2.1372,1.8676 -3.5372,2.4567 -1.4007,0.602 -2.985,0.8969 -4.7782,0.9092 z m 86.3537,-12.3073 v -13.2656 c 0,-0.0123 -0.3071,-0.1721 -0.9214,-0.4669 -0.6137,-0.282 -1.5229,-0.626 -2.7264,-1.0069 -1.2041,-0.3809 -2.6778,-0.7249 -4.4342,-1.0198 -1.7563,-0.2819 -3.7829,-0.4417 -6.0676,-0.4539 -3.1447,0.0122 -6.0308,0.4908 -8.6472,1.4246 -2.6286,0.9337 -4.9624,2.2355 -7.0014,3.9181 -2.0512,1.6826 -3.783,3.6478 -5.2076,5.8956 -1.4123,2.2478 -2.4935,4.6922 -3.2301,7.3332 -0.7371,2.6403 -1.118,5.3919 -1.118,8.254 0.0123,4.1516 0.6266,7.8854 1.8423,11.1892 1.2164,3.3044 2.9604,6.1168 5.2205,8.4383 2.2724,2.3338 4.9864,4.1024 8.1434,5.3428 3.1564,1.2286 6.6937,1.8429 10.5878,1.8546 2.0758,-0.0117 3.9428,-0.1223 5.6008,-0.3311 1.6703,-0.2089 3.0949,-0.4546 4.2744,-0.7372 1.1912,-0.2826 2.1004,-0.5283 2.7264,-0.7372 0.6389,-0.2089 0.9583,-0.3188 0.9583,-0.3311 v -13.3394 h -4.7904 l -0.6629,9.5804 c -0.8846,0.2334 -1.9775,0.4546 -3.2676,0.6511 -1.2894,0.1966 -2.7269,0.2949 -4.3235,0.3072 -2.4198,-0.0123 -4.6179,-0.4055 -6.596,-1.1795 -1.9775,-0.7611 -3.7215,-1.8423 -5.2444,-3.2301 -1.5107,-1.3877 -2.7884,-2.9966 -3.8199,-4.8519 -1.032,-1.8546 -1.8055,-3.869 -2.3338,-6.0431 -0.5283,-2.1863 -0.7986,-4.4458 -0.7986,-6.8042 0,-2.1249 0.2212,-4.2253 0.6635,-6.3011 0.4546,-2.0757 1.1426,-4.041 2.0635,-5.8833 0.9214,-1.8424 2.1003,-3.4764 3.5249,-4.8888 1.4375,-1.4246 3.1324,-2.5426 5.0854,-3.3529 1.9652,-0.8109 4.2007,-1.2287 6.7188,-1.241 1.3263,0.0123 2.5175,0.1106 3.5864,0.3195 1.0683,0.1966 2.0021,0.4423 2.8007,0.7372 0.798,0.2948 1.4737,0.5768 2.0143,0.8594 l 0.5892,9.3598 z M 864.387,416.702 h 5.8956 v 42.5964 h -5.8956 v 4.4955 h 13.1182 l 24.0985,-39.2065 c 0.4546,-0.7366 0.8595,-1.4737 1.2403,-2.1986 0.3932,-0.7366 0.7126,-1.4492 0.9707,-2.1496 l 0.3685,0.1475 c -0.1842,0.688 -0.3317,1.4006 -0.43,2.1495 -0.0983,0.7372 -0.1597,1.5475 -0.1597,2.4198 v 34.3424 h -5.8956 v 4.4955 h 19.0138 v -4.4955 h -5.8963 V 416.702 h 5.8963 v -4.4956 h -13.1182 l -23.4357,37.9539 c -0.5154,0.8472 -1.0314,1.7195 -1.5352,2.6158 -0.4914,0.8969 -0.97,1.8424 -1.4123,2.8376 l -0.2949,-0.1475 c 0.2212,-1.0314 0.3686,-2.0635 0.4546,-3.1072 0.0983,-1.0566 0.1352,-2.1249 0.1352,-3.2307 V 416.702 h 5.8956 v -4.4956 H 864.387 Z m 77.4369,8.77 0.7365,-8.6963 h 12.3811 v 42.5227 h -6.6329 v 4.4955 h 20.4876 v -4.4955 h -6.6322 v -42.5227 h 12.381 l 0.7366,8.6963 h 4.7905 v -13.2656 h -43.0387 v 13.2656 z m 95.5655,25.0563 h -4.7905 l -0.7366,8.7701 h -18.3503 v -19.3819 l 16.8759,0.5892 v -5.6745 l -16.8759,0.6635 V 416.702 h 18.3503 l 0.7366,8.77 h 4.7905 v -13.2656 h -36.9956 v 4.4956 h 5.8956 v 42.5964 h -5.8956 v 4.4955 h 36.9956 z m 25.1859,-25.0563 0.7365,-8.6963 h 12.381 v 42.5227 h -6.6328 v 4.4955 h 20.4876 v -4.4955 h -6.6322 v -42.5227 h 12.381 l 0.7366,8.6963 h 4.7904 v -13.2656 h -43.0386 v 13.2656 z"
       style="fill:#cd0131;fill-rule:evenodd"
       id="path4" />
    <g
       id="Layer1001">
      <g
         id="Layer1002">
        <path
           d="m 292.5219,409.3718 14.7616,28.7754 0.1708,0.3313 v 0.3728 19.3125 1.5535 h -1.5488 c -0.7006,0 -1.4035,0 -2.5369,-0.0231 -8.55,-0.1708 -16.2389,-1.9217 -16.4467,-20.02 l -10.2027,-6.9376 -0.3151,0.2181 c -1.9771,1.3457 -4.0753,2.4641 -6.2659,3.302 -1.879,0.7202 -3.8376,1.235 -5.862,1.5212 l -2.2148,11.1769 h 0.4213 c 3.7695,0.2112 5.8642,1.8616 7.038,4.4215 1.1357,2.4722 1.2592,5.6739 1.2592,9.1883 v 1.5535 h -1.5535 -1.2211 -17.7393 -1.5547 v -0.009 l -5.6184,-0.001 -1.5535,-10e-4 V 462.5605 459 h 0.001 v -1.5062 l -0.0254,-8.2857 h -4.4747 -1.5489 v -0.008 h -0.005 l -0.002,-1.5477 v -0.0115 h 0.006 l 0.002,-0.0427 0.001,-0.0335 v -0.0727 -0.004 -0.003 l 0.004,-0.1455 v -0.007 l 0.004,-0.0692 0.002,-0.0727 v -0.0174 l 0.005,-0.1246 v -0.008 l 0.0208,-0.2931 0.003,-0.0497 0.009,-0.0981 0.005,-0.0588 0.002,-0.0139 0.005,-0.0727 0.002,-0.015 0.0312,-0.2701 0.001,-0.007 0.0104,-0.0727 0.001,-0.0173 0.008,-0.0554 0.0104,-0.0727 0.0197,-0.1328 0.002,-0.0115 0.005,-0.0358 0.006,-0.0369 0.0139,-0.0727 c 0.0242,-0.1431 0.0496,-0.2839 0.0796,-0.4248 l 0.0139,-0.0692 0.001,-0.005 0.0162,-0.067 0.0138,-0.0692 0.005,-0.0162 0.0127,-0.0554 0.0161,-0.0692 0.007,-0.0254 0.0104,-0.0439 0.0358,-0.1385 0.0173,-0.0692 0.0127,-0.045 0.006,-0.0243 0.0785,-0.2712 v -0.004 l 0.0842,-0.2712 0.006,-0.015 c 0.0923,-0.2851 0.195,-0.5644 0.3082,-0.8402 0.1904,-0.4628 0.4074,-0.9026 0.6428,-1.3169 l 0.005,10e-4 c 0.6302,-1.1056 1.4381,-2.1051 2.3787,-2.9511 l 0.002,-10e-4 c 0.3427,-0.3081 0.7028,-0.5955 1.0779,-0.861 h -16.966 c -1.6447,1.4958 -3.4867,2.6557 -5.3761,3.3655 h -0.007 c -0.4282,0.1616 -0.8391,0.2943 -1.2257,0.3994 v 7.1581 h 0.0935 c 4.3073,0 6.6271,1.7023 7.8886,4.4515 1.1345,2.4722 1.258,5.6739 1.258,9.1883 v 1.5477 h -1.5535 l -20.9767,-0.004 v 0.004 h -1.5547 l -26.1323,-0.005 -1.5535,-0.001 v -1.5466 -13.3524 h -4.4989 -1.5477 v -1.5535 c 0,-3.4463 1.4796,-6.5487 3.8364,-8.7069 0.3993,-0.3647 0.8159,-0.6994 1.2384,-0.9949 h -3.5271 -1.5547 v -1.5547 c 0,-3.4428 1.482,-6.5486 3.8434,-8.7127 0.472,-0.4328 0.9625,-0.8183 1.4669,-1.1518 0.2401,-0.1593 0.4894,-0.3128 0.7433,-0.4548 v -6.6421 h -1.864 -0.9995 l -0.4155,-0.9164 c -1.8547,-4.1008 -2.7746,-8.7278 -2.7746,-13.4552 0,-6.3929 1.6839,-12.9981 5.0125,-18.7504 3.3413,-5.7742 8.3411,-10.6933 14.9567,-13.686 4.3281,-1.9574 9.3406,-3.0874 15.0179,-3.0874 h 31.5257 5.7489 v 0.006 h 4.7493 c 1.6158,-2.3452 3.6621,-4.3719 6.0235,-5.9658 0.4663,-0.3151 0.9903,-0.6348 1.5628,-0.958 v -0.006 c 1.0872,-0.6117 2.2344,-1.1323 3.4243,-1.5605 -1.1726,-2.5022 -1.146,-4.8266 -0.3635,-6.6767 0.5355,-1.2696 1.4207,-2.3095 2.516,-3.0343 1.0872,-0.7179 2.3914,-1.1346 3.7718,-1.1646 2.6696,-0.0565 5.6184,1.3215 7.7663,4.7355 h 9.6845 9.6869 c 2.1478,-3.4163 5.0921,-4.7932 7.7628,-4.7355 1.3804,0.03 2.6846,0.4467 3.7718,1.1646 1.0953,0.7248 1.9805,1.7647 2.5172,3.0343 0.9903,2.3417 0.779,5.4395 -1.5581,8.7046 9.6568,18.2911 3.5017,28.2064 -8.1126,37.7513 l -0.007,0.2585 c -0.1143,2.7608 -0.5517,5.5434 -1.2707,8.2776 z m -71.98,46.0508 v 5.5931 h 2.501 c -0.0427,-2.5311 -0.2331,-4.769 -0.9602,-6.3536 -0.7445,-1.6239 -2.2229,-2.6292 -5.0702,-2.6292 h -1.6482 -1.5535 v -1.5535 -9.965 -1.3215 l 1.3169,-0.2077 0.0266,-0.005 v -0.001 c 0.2908,-0.0462 0.6082,-0.1166 0.9475,-0.2066 0.3405,-0.0912 0.6614,-0.1962 0.9568,-0.3059 v -10e-4 c 0.3555,-0.1339 0.7133,-0.2897 1.0653,-0.464 h -11.5923 c -1.6447,1.497 -3.4867,2.6557 -5.3784,3.3655 -0.4224,0.1593 -0.8402,0.2955 -1.2465,0.404 -0.1327,0.0358 -0.2654,0.0658 -0.4051,0.0981 l -2.8196,7.2308 c 2.9339,0.4951 4.6617,2.0394 5.6877,4.2761 0.966,2.1041 1.2026,4.7321 1.2511,7.6359 l 11.3107,0.002 v -5.5919 h 1.5547 v 5.5919 h 2.5022 v -5.5919 z m -22.8315,0 v 5.5931 h 2.501 v -0.003 h 0.3001 c -0.0427,-2.5299 -0.232,-4.7666 -0.9591,-6.3501 -0.7467,-1.6262 -2.2264,-2.635 -5.0702,-2.635 h -2.2668 l 0.8218,-2.1063 3.8849,-9.965 0.3289,-0.8414 0.6394,-0.0981 c 4.8071,-1.3319 8.6285,-4.7032 10.6286,-9.0232 0.3867,-0.8333 0.7075,-1.7116 0.9557,-2.6257 0.3808,-1.4023 0.584,-2.8577 0.5851,-4.3304 h -0.005 v -0.0196 h 0.005 c 0,-3.2293 -0.9441,-6.3629 -2.673,-9.0301 -0.3405,-0.5275 -0.7063,-1.0318 -1.0941,-1.5039 -0.3047,-0.3705 -0.629,-0.7398 -0.9788,-1.0953 h 4.0454 c 0.2192,0.299 0.4293,0.6037 0.6267,0.9107 2.0509,3.1635 3.1693,6.8845 3.1693,10.7186 h 0.007 v 0.0196 h -0.007 c -0.001,1.7844 -0.2389,3.5098 -0.681,5.1453 -0.2885,1.0629 -0.6705,2.1051 -1.1368,3.1104 -0.5944,1.2811 -1.3215,2.4918 -2.1698,3.6125 l 26.4197,10e-4 c 0.1339,-1.0653 0.4063,-2.0833 0.7999,-3.0355 0.1904,-0.4593 0.4074,-0.9025 0.6428,-1.318 l 0.005,0.002 c 1.0653,-1.872 2.6292,-3.4255 4.5059,-4.4758 l -0.0982,-14.6913 h 3.0955 l 0.1039,15.6365 0.006,1.0099 -0.9175,0.4144 c -1.6909,0.7582 -3.092,2.044 -4.0038,3.639 v 0.007 c -0.1812,0.3163 -0.3393,0.6418 -0.4755,0.9649 -0.2343,0.5702 -0.4097,1.1669 -0.524,1.789 h 4.3662 1.5535 v 1.5477 1.8986 1.0018 l -0.8426,0.3797 -0.0738,0.0335 -0.0485,0.0231 -0.0115,0.006 h -0.003 l -0.2101,0.0993 -0.0207,0.0104 -0.0173,0.007 v 10e-4 l -0.0208,0.009 -0.0196,0.0104 -0.0208,0.0104 -0.0923,0.0473 v 10e-4 l -0.0762,0.0404 v 0.001 l -0.0762,0.0404 -0.001,0.001 -0.0751,0.0416 -0.0173,0.0104 -0.0173,0.0104 -0.0208,0.0103 -0.0173,0.0104 -0.001,10e-4 -0.0566,0.0323 -0.0161,0.0104 h -0.001 l -0.0173,0.0104 -0.0173,0.0104 -0.0208,0.0127 -0.0173,0.0103 -0.002,10e-4 h -10e-4 l -0.0542,0.0335 -0.0173,0.0104 v 0.001 l -0.0173,0.009 -0.0381,0.0243 -0.0173,0.0104 -0.001,10e-4 -0.0162,0.0104 -0.0173,0.0104 -0.0207,0.0138 -0.0174,0.0104 -0.001,10e-4 -0.0162,0.0115 -0.0173,0.0104 -0.0208,0.0139 -0.0173,0.0104 -0.006,0.005 -0.0289,0.0196 -0.0208,0.0138 -0.0161,0.0104 h -0.001 l -0.0173,0.0116 -0.0323,0.0219 -0.002,0.002 -0.0173,0.0104 -0.002,0.002 -0.015,0.0115 -0.0173,0.0104 -0.0174,0.0139 -0.0173,0.0104 -0.002,0.002 -0.015,0.0115 -0.0173,0.0104 -0.0173,0.0139 -0.0173,0.0103 -0.005,0.003 -0.1316,0.0958 -0.007,0.005 -0.0104,0.009 -0.0508,0.038 -0.007,0.005 -0.0104,0.009 -0.2193,0.1743 -0.0173,0.0138 -0.1166,0.097 -0.0173,0.015 -0.0958,0.0831 -0.0173,0.0138 -0.1489,0.1362 -0.001,-10e-4 c -0.1061,0.0981 -0.2077,0.1962 -0.3081,0.2989 l -0.0104,0.0104 -0.005,0.006 -0.1004,0.1039 -0.005,0.005 -0.0104,0.0104 -0.0127,0.0139 -0.0831,0.0911 -0.0116,0.0116 -0.008,0.008 -0.0508,0.0565 -0.005,0.007 -0.0208,0.0231 -0.0808,0.0924 -0.008,0.009 -0.005,0.006 -0.0508,0.06 -0.005,0.006 -0.0508,0.0623 -0.004,0.003 -0.1061,0.1328 h -0.001 l -0.2054,0.2735 -0.001,0.004 c -0.1858,0.2562 -0.3555,0.524 -0.5136,0.7998 l -0.003,0.006 -0.004,0.008 c -0.0877,0.1547 -0.1697,0.3105 -0.247,0.4663 l -0.007,0.0139 -0.007,0.0138 -0.007,0.0139 -0.0127,0.0265 -0.001,0.005 -0.0289,0.0624 -0.007,0.0127 v 10e-4 l -0.007,0.0139 -0.0485,0.1073 -0.007,0.0138 -0.007,0.0174 -0.004,0.007 -0.003,0.007 -0.007,0.0173 -0.007,0.0139 -0.007,0.0173 -0.006,0.0138 -0.006,0.0104 -0.001,0.005 -0.007,0.0139 -0.007,0.0173 -0.007,0.0138 -0.007,0.0174 -0.0347,0.0831 -0.005,0.0127 -0.006,0.0138 -0.0103,0.0277 -0.0312,0.0796 -0.0104,0.0277 -0.006,0.0162 -0.002,0.008 -0.0104,0.0277 -0.0103,0.0277 -0.008,0.0196 -0.002,0.008 -0.1131,0.3254 -0.001,0.003 v 10e-4 l -0.0346,0.1096 -0.007,0.0277 -0.009,0.0277 h -10e-4 l -0.007,0.0277 -0.0103,0.0289 -0.007,0.0277 -0.001,0.002 -0.0208,0.0761 -0.002,0.005 -0.001,0.006 -0.006,0.022 -0.0243,0.0854 -0.007,0.0277 -0.007,0.0277 -0.002,0.0104 -0.005,0.0173 -0.007,0.03 -0.0669,0.2839 -0.004,0.0162 -0.003,0.0115 -0.007,0.0312 -10e-4,0.0115 -0.008,0.0358 -0.001,0.009 -0.006,0.0277 -0.007,0.0312 -0.004,0.0208 -0.007,0.038 -0.007,0.0277 -0.005,0.0243 h 4.3304 1.5431 v 0.007 h 0.0439 v 1.5454 11.3477 h 10e-4 v 2.0128 h 5.6185 v -0.002 h 5.2294 v -5.5873 h 1.5547 v 5.5873 h 2.501 v -5.5873 h 1.5547 v 5.5873 h 2.5022 v -5.5873 h 1.5535 v 5.5873 h 2.501 c -0.0415,-2.5287 -0.2319,-4.7632 -0.9591,-6.3478 -0.7456,-1.6262 -2.2263,-2.635 -5.0702,-2.635 h -0.8344 -2.5172 l 0.7075,-3.5502 0.824,-4.1549 -0.015,-0.004 1.2707,-6.3305 0.3786,-1.9102 0.2251,-1.131 0.007,-0.001 0.6175,-3.077 0.1592,-0.7917 0.7329,-0.3243 c 1.3158,-0.5794 2.5715,-1.34 3.7245,-2.2737 h 0.006 c 0.2112,-0.1697 0.4305,-0.3578 0.6555,-0.5598 0.2366,-0.2112 0.4501,-0.4143 0.6383,-0.6025 l -0.003,-0.002 0.0104,-0.008 c 2.2194,-2.2206 3.7464,-5.0033 4.44,-8.0053 0.1351,-0.5944 0.2424,-1.2014 0.3128,-1.8189 0.075,-0.636 0.112,-1.2534 0.1143,-1.849 l -0.002,-0.3416 h 10e-4 l -0.0358,-3.9034 h 3.0955 l 0.0346,3.8907 0.002,0.142 0.001,0.2008 v 0.006 c -0.003,0.7663 -0.0462,1.5038 -0.127,2.2067 -0.0831,0.726 -0.2101,1.4485 -0.3739,2.1594 -0.8253,3.5733 -2.635,6.8776 -5.2665,9.508 l -0.009,0.0103 h -0.007 c -0.2632,0.2643 -0.5148,0.501 -0.7502,0.7133 -0.2424,0.2193 -0.5078,0.4421 -0.7848,0.6671 l 0.002,0.002 c -1.1473,0.928 -2.388,1.7151 -3.6899,2.3557 l -0.2573,1.2811 c 1.4011,-0.2678 2.7734,-0.6637 4.1134,-1.1761 1.969,-0.7537 3.8514,-1.7566 5.623,-2.9627 8.5615,-5.8308 14.6405,-16.3844 15.8477,-26.9542 -2.3383,1.7832 -4.8359,3.5744 -7.4224,5.4338 l -2.4456,1.7612 -0.9049,0.651 -0.9048,-0.651 -2.4468,-1.7612 c -17.4324,-12.5342 -30.7629,-22.124 -19.361,-44.7513 -0.8875,0.3417 -1.7485,0.7422 -2.5703,1.2038 l -0.002,-0.003 c -0.4189,0.2342 -0.8668,0.5136 -1.3411,0.8333 -2.2437,1.5142 -4.1596,3.482 -5.6115,5.7719 l -0.4536,0.7167 h -0.8564 -5.5872 v 0.006 h -5.7489 -31.5257 c -5.2203,0 -9.8034,1.0283 -13.7414,2.8092 -5.9866,2.7077 -10.5167,7.1696 -13.5498,12.4106 -3.0458,5.2642 -4.5877,11.3223 -4.5877,17.1958 0,3.9495 0.7028,7.8033 2.1075,11.2634 h 0.9983 l -0.001,-4.9398 h 3.0966 l 0.003,7.1062 h -0.1512 v 8.5373 0.9914 l -0.9049,0.4178 -0.0115,0.006 -0.0115,0.006 c -0.4236,0.1916 -0.8322,0.4167 -1.2107,0.6671 -0.4005,0.2655 -0.7676,0.5506 -1.0919,0.8472 -1.3734,1.2592 -2.3394,2.9569 -2.6834,4.8774 h 4.3593 1.5546 v 1.5535 1.8986 0.9903 l -0.9049,0.4178 -0.0115,0.006 -0.0115,0.006 c -0.4236,0.1928 -0.8322,0.4167 -1.2107,0.6671 -0.4017,0.2655 -0.7676,0.5494 -1.0919,0.846 -1.3746,1.2592 -2.3441,2.9558 -2.6892,4.8706 h 4.3651 1.5546 v 1.5546 13.3582 l 10.5478,0.001 v -5.5908 h 1.5547 v 5.5919 h 2.501 v -5.5919 h 1.5547 v 5.5919 h 2.5022 v -5.5919 z m 104.144,-4.4007 v 5.5134 c 0.517,0.0311 1.0468,0.053 1.5742,0.0634 0.232,0.005 0.5575,0.005 0.9291,0.006 v -17.3804 l -13.1689,-25.6685 c -2.501,6.6445 -6.656,12.7488 -11.8912,17.1912 l 10.0342,6.8234 0.6809,0.4616 -10e-4,0.8195 c -0.009,10.2143 2.5507,14.5539 6.2347,16.3982 v -4.2276 h 1.5547 v 4.8486 c 0.7998,0.2493 1.6366,0.4131 2.4999,0.5228 v -5.3714 z m -33.7625,-76.1236 h 7.1038 1.5143 l -0.2089,1.497 c -0.2113,1.5212 -0.4421,2.8196 -0.6602,4.0591 -0.8068,4.559 -1.467,8.3146 0.3762,12.7096 h 7.0311 c 1.8432,-4.3939 1.1796,-8.1495 0.374,-12.7072 -0.2193,-1.2419 -0.4501,-2.5403 -0.6613,-4.0615 l -0.2089,-1.5027 h 1.5142 7.1027 l -5.5677,2.643 c 0.1351,0.8287 0.2816,1.6608 0.4225,2.4664 0.9314,5.271 1.6908,9.5634 -0.9257,15.0467 l -0.3566,0.7479 h -0.8356 -8.7497 -0.8356 l -0.3578,-0.7479 c -2.6153,-5.4845 -1.857,-9.7757 -0.9244,-15.049 0.1419,-0.8056 0.292,-1.6389 0.4258,-2.4687 z m 11.6246,16.8542 2.8623,-2.1087 -1.0941,-1.6689 h -3.5363 l -1.0942,1.6689 z m -1.5269,14.607 1.5419,1.1091 1.542,-1.1091 c 16.6533,-11.9732 29.282,-21.0553 17.4393,-42.6738 l -0.5021,-0.9187 0.6671,-0.8114 c 2.0844,-2.5391 2.4053,-4.7989 1.7393,-6.3744 -0.2885,-0.6844 -0.7744,-1.2499 -1.3769,-1.6481 -0.6117,-0.4051 -1.3457,-0.6394 -2.119,-0.6556 -1.8201,-0.0392 -3.9091,1.0976 -5.4476,3.9334 l -0.4398,0.8137 h -0.9256 -10.5767 -10.5778 -0.9245 l -0.4409,-0.8137 c -1.5373,-2.8358 -3.6286,-3.9726 -5.4476,-3.9334 -0.7733,0.0162 -1.5073,0.2505 -2.119,0.6556 -0.6025,0.3982 -1.0872,0.9637 -1.3769,1.6481 -0.666,1.5755 -0.3451,3.8353 1.7405,6.3744 l 0.6671,0.8114 -0.5021,0.9187 c -11.8439,21.6185 0.7848,30.7006 17.4393,42.6738 z"
           style="fill:#cd0131;fill-rule:evenodd"
           id="path6" />
        <path
           d="m 276.71,374.8985 c -0.6582,1.6661 -2.3391,2.8508 -4.3091,2.8508 -1.9699,0 -3.6508,-1.1847 -4.309,-2.8508 z"
           style="fill:#cd0131;fill-rule:evenodd"
           id="path8" />
        <path
           d="m 291.37,374.8985 c -0.6582,1.6661 -2.3392,2.8508 -4.3091,2.8508 -1.9699,0 -3.6508,-1.1847 -4.309,-2.8508 z"
           style="fill:#cd0131;fill-rule:evenodd"
           id="path10" />
      </g>
      <g
         id="Layer1003">
        <path
           d="m 285.9227,499.3401 v 1.8548 h 9.7213 v -1.8548 h -3.1188 v -17.9813 h -0.4492 l -6.8839,1.5733 0.1407,1.489 4.4393,-0.3935 v 15.3125 z"
           style="fill:#cd0131;fill-rule:evenodd"
           id="path13" />
        <path
           d="m 310.095,483.072 -0.2806,-2.1354 c -2.4303,0.2859 -4.4868,0.9278 -6.1632,1.9202 -1.6764,0.9933 -2.9503,2.3694 -3.8207,4.13 -0.8714,1.7607 -1.3071,3.9292 -1.3116,6.5093 0.005,1.1385 0.1497,2.1873 0.4447,3.1564 0.2949,0.9646 0.7216,1.8073 1.2837,2.529 0.5612,0.7207 1.2407,1.2828 2.0413,1.6853 0.8005,0.398 1.7095,0.6042 2.7208,0.6087 1.082,-0.005 2.0323,-0.182 2.8427,-0.5289 0.8148,-0.346 1.4935,-0.8238 2.0412,-1.4325 0.5433,-0.6043 0.9512,-1.3017 1.2228,-2.0933 0.2761,-0.7871 0.4115,-1.6298 0.4115,-2.52 -0.005,-0.9224 -0.1444,-1.7418 -0.4214,-2.4626 -0.2806,-0.7162 -0.6642,-1.3258 -1.1564,-1.8261 -0.4913,-0.4966 -1.0578,-0.8758 -1.7042,-1.1385 -0.6463,-0.2573 -1.3393,-0.3881 -2.0843,-0.3881 -0.7261,0 -1.4047,0.0932 -2.0466,0.2716 -0.6365,0.182 -1.2076,0.4446 -1.7132,0.7862 -0.5065,0.3415 -0.9179,0.7584 -1.2416,1.2461 0.1264,-1.1941 0.3891,-2.2295 0.7773,-3.1054 0.389,-0.8803 0.8758,-1.6244 1.4612,-2.2385 0.5854,-0.6131 1.2461,-1.1188 1.9713,-1.5168 0.7262,-0.3935 1.4891,-0.7073 2.2905,-0.9413 0.805,-0.2295 1.6154,-0.4025 2.4348,-0.5154 z m -8.4573,12.3353 c 0,-0.5674 0.0798,-1.0963 0.234,-1.5876 0.1551,-0.4966 0.3891,-0.9323 0.6984,-1.3071 0.3137,-0.3747 0.7064,-0.6696 1.1797,-0.8848 0.468,-0.2106 1.0211,-0.3182 1.6531,-0.3227 0.7163,0.005 1.325,0.173 1.8306,0.5011 0.5065,0.3272 0.8947,0.7817 1.1618,1.3671 0.2716,0.5854 0.407,1.2641 0.407,2.0368 0.005,0.8382 -0.1264,1.5733 -0.3837,2.1964 -0.2573,0.6275 -0.6553,1.1143 -1.1986,1.4612 -0.5387,0.346 -1.2272,0.5244 -2.0699,0.5289 -0.571,-0.004 -1.0722,-0.1219 -1.5079,-0.3559 -0.4356,-0.2295 -0.8059,-0.5388 -1.1008,-0.9224 -0.2994,-0.3837 -0.5244,-0.8105 -0.6742,-1.2829 -0.1541,-0.4688 -0.2295,-0.9458 -0.2295,-1.4281 z"
           style="fill:#cd0131;fill-rule:evenodd"
           id="path15" />
        <path
           d="m 164.9956,499.3401 v 1.8548 h 9.7213 v -1.8548 h -3.1188 v -17.9813 h -0.4491 l -6.884,1.5733 0.1407,1.489 4.4393,-0.3935 v 15.3125 z"
           style="fill:#cd0131;fill-rule:evenodd"
           id="path17" />
        <path
           d="m 178.7438,499.5374 0.2815,2.1353 c 2.4303,-0.2859 4.4859,-0.9269 6.1623,-1.9202 1.6764,-0.9924 2.9503,-2.3694 3.8208,-4.13 0.8713,-1.7607 1.307,-3.9292 1.3115,-6.5093 0,-1.1376 -0.1497,-2.1918 -0.4446,-3.1564 -0.295,-0.9646 -0.7217,-1.8073 -1.2829,-2.5289 -0.5621,-0.7208 -1.2416,-1.2829 -2.0421,-1.6854 -0.8006,-0.398 -1.7042,-0.6042 -2.7208,-0.6087 -1.082,0.005 -2.0278,0.1829 -2.8427,0.5289 -0.8149,0.3469 -1.4935,0.8239 -2.0368,1.4281 -0.5477,0.6087 -0.9556,1.307 -1.2272,2.0986 -0.2762,0.7862 -0.4115,1.6244 -0.4115,2.5191 0.005,0.9224 0.1452,1.7418 0.4258,2.4626 0.2761,0.7171 0.6607,1.3258 1.152,1.827 0.4921,0.4957 1.0587,0.8758 1.7041,1.1331 0.6464,0.2618 1.3394,0.3936 2.0843,0.3936 0.7262,0 1.4048,-0.0942 2.0467,-0.2717 0.6365,-0.1829 1.2075,-0.4455 1.7042,-0.7871 0.5011,-0.3415 0.909,-0.7584 1.2227,-1.2452 -0.1219,1.1941 -0.3747,2.2287 -0.7638,3.109 -0.3836,0.8803 -0.8659,1.6253 -1.4513,2.2429 -0.5854,0.6141 -1.2416,1.1197 -1.9669,1.5178 -0.7261,0.398 -1.489,0.7118 -2.2905,0.9413 -0.805,0.2294 -1.6154,0.398 -2.4348,0.5056 z m 8.4573,-12.2789 c 0,0.5531 -0.0744,1.073 -0.234,1.5553 -0.1542,0.4868 -0.389,0.9171 -0.6974,1.2874 -0.3138,0.3747 -0.7073,0.6696 -1.1762,0.8803 -0.4724,0.2107 -1.0255,0.3182 -1.6576,0.3236 -0.7118,-0.005 -1.3249,-0.1784 -1.8305,-0.5199 -0.5056,-0.3425 -0.8947,-0.8194 -1.1619,-1.4335 -0.2716,-0.6132 -0.407,-1.3295 -0.407,-2.1488 0,-0.7773 0.1354,-1.4613 0.4124,-2.061 0.2716,-0.5944 0.6786,-1.0677 1.2174,-1.4092 0.5433,-0.3416 1.2174,-0.5155 2.0224,-0.52 0.5765,0.005 1.0821,0.1219 1.5222,0.3559 0.4357,0.2295 0.806,0.5388 1.1009,0.9269 0.2949,0.3891 0.5146,0.8248 0.6643,1.3026 0.1506,0.4769 0.225,0.9646 0.225,1.4604 z"
           style="fill:#cd0131;fill-rule:evenodd"
           id="path19" />
      </g>
      <path
         d="m 146.8965,335.0025 h 90.998 90.998 1.7537 v 1.7538 125.8105 c 0,25.6075 -10.3847,48.7984 -27.1696,65.5821 -16.7837,16.7849 -39.9745,27.1696 -65.5821,27.1696 -25.6076,0 -48.7984,-10.3847 -65.5821,-27.1696 -16.7849,-16.7837 -27.1696,-39.9746 -27.1696,-65.5821 v -125.8105 -1.7538 z m 90.998,3.5076 h -89.2442 v 124.0567 c 0,24.6383 9.9919,46.9511 26.1431,63.1011 16.15,16.1511 38.4628,26.143 63.1011,26.143 24.6383,0 46.9511,-9.9919 63.1011,-26.143 16.1512,-16.15 26.1431,-38.4628 26.1431,-63.1011 V 338.5101 Z"
         style="fill:#cd0131;fill-rule:evenodd"
         id="path22" />
      <path
         d="m 276.7523,476.5082 0.0397,0.0105 1.1564,0.3052 v 1.189 50.4797 1.8906 l -1.8579,-0.3776 c -13.206,-2.6857 -26.0811,-0.6244 -38.195,4.6627 -12.1011,-5.2964 -25.0055,-7.3449 -38.1951,-4.6627 l -1.8578,0.3776 v -1.8906 -50.4797 -1.189 l 1.1563,-0.3052 0.0397,-0.0105 h 0.006 c 1.7678,-0.4618 3.6771,-0.8173 5.6706,-1.0686 1.9841,-0.2503 4.0465,-0.3987 6.13,-0.4478 10.2035,-0.2444 21.2372,1.8473 27.0515,5.6226 5.8144,-3.7753 16.8457,-5.867 27.0492,-5.6226 2.0835,0.0491 4.146,0.1975 6.1301,0.4478 1.9934,0.2513 3.9027,0.6068 5.6705,1.0686 z m -71.4515,11.6942 c 1.8017,-0.2093 3.6701,-0.3379 5.556,-0.3823 7.5483,-0.1824 15.5409,0.9166 21.4909,3.034 v 2.1735 c -5.7115,-2.1875 -13.7894,-3.3356 -21.4418,-3.1521 -1.9128,0.0456 -3.7987,0.1754 -5.6051,0.3929 z m 0,8.6181 c 1.8017,-0.2093 3.6701,-0.3379 5.556,-0.3823 7.5483,-0.1824 15.5409,0.9178 21.4909,3.0352 v 2.1723 c -5.7115,-2.1887 -13.7894,-3.3357 -21.4418,-3.1521 -1.9128,0.0456 -3.7987,0.1754 -5.6051,0.3928 z m 0,8.6192 c 1.8017,-0.2092 3.6701,-0.3378 5.556,-0.3823 7.5483,-0.1824 15.5409,0.9167 21.4909,3.0341 v 2.1723 c -5.7115,-2.1887 -13.7894,-3.3345 -21.4418,-3.1509 -1.9128,0.0456 -3.7987,0.1753 -5.6051,0.3928 z m 0,8.617 c 1.8017,-0.2093 3.6701,-0.3379 5.556,-0.3824 7.5483,-0.1824 15.5409,0.9179 21.4909,3.0353 v 2.1723 c -5.7115,-2.1887 -13.7894,-3.3357 -21.4418,-3.1521 -1.9128,0.0456 -3.7987,0.1754 -5.6051,0.3928 z m 31.0513,16.5837 v -47.3451 c -5.2052,-3.5087 -15.6624,-5.4507 -25.4345,-5.2169 -1.9923,0.0479 -3.9495,0.1871 -5.8144,0.4221 -1.4439,0.1824 -2.8364,0.4221 -4.1623,0.7225 v 47.4071 c 11.9421,-2.0648 24.2373,-0.5366 35.4112,4.0103 z m 34.1368,-40.3685 c -1.8064,-0.2175 -3.6923,-0.3508 -5.6039,-0.3964 -7.6523,-0.1835 -15.7314,0.9646 -21.4429,3.1533 v -2.1747 c 5.95,-2.1174 13.9437,-3.2164 21.492,-3.034 1.8859,0.0444 3.7543,0.173 5.5548,0.3823 z m 0,8.6181 c -1.8064,-0.2175 -3.6923,-0.3508 -5.6039,-0.3964 -7.6523,-0.1836 -15.7314,0.9634 -21.4429,3.1533 v -2.1735 c 5.95,-2.1174 13.9437,-3.2176 21.492,-3.0352 1.8859,0.0444 3.7543,0.173 5.5548,0.3823 z m 0,8.6192 c -1.8064,-0.2175 -3.6923,-0.3507 -5.6039,-0.3963 -7.6523,-0.1836 -15.7314,0.9634 -21.4429,3.1521 v -2.1735 c 5.95,-2.1174 13.9437,-3.2165 21.492,-3.0341 1.8859,0.0445 3.7531,0.1731 5.5548,0.3812 z m 0,8.6169 c -1.8064,-0.2174 -3.6923,-0.3507 -5.6039,-0.3963 -7.6523,-0.1836 -15.7314,0.9634 -21.4429,3.1533 v -2.1735 c 5.95,-2.1174 13.9437,-3.2177 21.492,-3.0353 1.8859,0.0445 3.7543,0.1731 5.5548,0.3824 z m 4.3611,-36.9054 c -1.3235,-0.3005 -2.7207,-0.539 -4.1623,-0.7202 -1.8649,-0.235 -3.8221,-0.3742 -5.8144,-0.4221 -9.7756,-0.2338 -20.2304,1.7094 -25.4345,5.2193 v 47.3451 c 11.1798,-4.5447 23.4609,-6.0775 35.4112,-4.0127 z"
         style="fill:#cd0131;fill-rule:evenodd"
         id="path24" />
      <path
         d="m 146.8678,460.994 h 182.0544 v 3.1243 H 146.8678 Z"
         style="fill:#cd0131;fill-rule:evenodd"
         id="path26" />
    </g>
    <path
       d="m 405.4756,540.8766 h 5.3325 c 0,-0.009 -0.0171,-0.1464 -0.0431,-0.4138 -0.026,-0.2764 -0.052,-0.6389 -0.0862,-1.1047 -0.0349,-0.4576 -0.0609,-0.9665 -0.0862,-1.5356 -0.026,-0.5698 -0.0438,-1.1566 -0.0438,-1.7606 v -11.8544 h 3.21 l 12.5795,16.9276 6.1601,-0.2585 c -0.008,-0.009 -0.1115,-0.1122 -0.3106,-0.3277 -0.1983,-0.2072 -0.4658,-0.4918 -0.7845,-0.8461 -0.3195,-0.3536 -0.656,-0.7414 -1.0274,-1.1641 -0.3618,-0.4227 -0.7072,-0.8543 -1.0349,-1.286 l -11.3893,-15.2716 c 1.5965,-1.9583 2.9857,-3.6922 4.1677,-5.1936 1.1908,-1.5103 2.2086,-2.8475 3.0711,-4.0124 0.8632,-1.1648 1.6054,-2.2086 2.2435,-3.1402 0.63,-0.9323 1.1909,-1.8037 1.6827,-2.606 0.4918,-0.8024 0.9665,-1.6047 1.4152,-2.3899 h -5.2805 c -0.3885,0.699 -0.777,1.3981 -1.182,2.0793 -0.4056,0.682 -0.8632,1.4234 -1.3892,2.2175 -0.5266,0.7935 -1.1648,1.7169 -1.907,2.7607 -0.7503,1.0444 -1.6648,2.2695 -2.7353,3.6929 -1.0697,1.4241 -2.3639,3.106 -3.8653,5.039 h -3.6238 v -16.1 l -5.3837,0.2593 c 0,0.008 0.0177,0.1634 0.0519,0.4569 0.026,0.3023 0.0602,0.7072 0.1033,1.2168 0.0431,0.5089 0.078,1.078 0.104,1.708 0.0342,0.6299 0.0513,1.2859 0.0513,1.95 z m 46.2418,0 h 5.0732 c 0,-0.009 -0.0171,-0.1464 -0.0431,-0.4138 -0.026,-0.2593 -0.052,-0.604 -0.0862,-1.0356 -0.0349,-0.4316 -0.0609,-0.8885 -0.0868,-1.3892 -0.0254,-0.5007 -0.0431,-0.9836 -0.0431,-1.4583 v -21.587 h -17.3941 c -0.0513,3.2271 -0.1553,6.0226 -0.3106,8.3865 -0.1552,2.3639 -0.3878,4.3571 -0.6983,5.9877 -0.3106,1.6307 -0.708,2.9679 -1.1998,4.0035 -0.4918,1.0355 -1.0957,1.8379 -1.8201,2.4159 -0.7161,0.5861 -1.5616,1.0006 -2.5452,1.2592 l 1.3974,4.1416 c 1.7778,-0.3796 3.2443,-1.0527 4.4091,-2.0363 1.156,-0.9747 2.0794,-2.3379 2.7606,-4.0896 0.682,-1.7428 1.1909,-3.9515 1.5185,-6.6259 0.3365,-2.6751 0.5609,-5.9015 0.682,-9.6635 h 8.3865 z m 34.438,-4.5555 c -0.009,0.008 -0.1464,0.1033 -0.4056,0.2675 -0.2586,0.1641 -0.5691,0.3365 -0.9487,0.5 -0.3797,0.1641 -0.7593,0.2592 -1.1307,0.2674 -0.3878,-0.008 -0.6642,-0.1292 -0.8365,-0.3707 -0.1731,-0.2326 -0.2504,-0.526 -0.2504,-0.8714 0,-0.6382 0.008,-1.3721 0.0171,-2.1915 0.009,-0.8195 0.026,-1.6909 0.0431,-2.5972 0.0171,-0.9145 0.0349,-1.829 0.052,-2.7435 0.0171,-0.9056 0.0342,-1.777 0.052,-2.5972 0.0171,-0.8194 0.0342,-1.5526 0.0431,-2.1915 0.0253,-2.1826 -0.3195,-3.9686 -1.0267,-5.3407 -0.7162,-1.3714 -1.7606,-2.381 -3.1409,-3.0198 -1.3721,-0.6471 -3.037,-0.9658 -4.9953,-0.9576 -1.4672,0.009 -2.7702,0.1122 -3.909,0.3023 -1.1389,0.1895 -2.1047,0.4056 -2.8899,0.6553 -0.7942,0.2503 -1.3892,0.4658 -1.7948,0.6559 -0.4139,0.1895 -0.6211,0.2935 -0.6211,0.3017 v 3.883 c 0,-0.009 0.1895,-0.095 0.552,-0.2592 0.3625,-0.1635 0.8803,-0.3536 1.5615,-0.5691 0.682,-0.2161 1.5014,-0.4056 2.4508,-0.5698 0.9487,-0.1634 2.0185,-0.2503 3.2004,-0.2585 1.312,-0.009 2.3988,0.1642 3.2531,0.526 0.8544,0.3625 1.4925,0.9754 1.9152,1.8468 0.4228,0.8625 0.63,2.0363 0.63,3.5287 v 1.6047 c -0.4918,0 -1.13,0.009 -1.907,0.026 -0.7763,0.026 -1.6046,0.0691 -2.5021,0.1382 -0.8974,0.0602 -1.7688,0.1634 -2.6313,0.3016 -1.881,0.3023 -3.4337,0.8283 -4.6676,1.5876 -1.2339,0.751 -2.1573,1.6737 -2.7613,2.7613 -0.604,1.0957 -0.9056,2.3037 -0.9056,3.6238 0,0.8885 0.1381,1.7428 0.4227,2.5534 0.2763,0.8112 0.7161,1.5445 1.303,2.1833 0.5862,0.6382 1.3372,1.1471 2.2517,1.5267 0.9145,0.3714 2.0014,0.5609 3.2702,0.5698 1.6218,-0.009 3.1143,-0.2935 4.4604,-0.8455 1.3461,-0.5608 2.5882,-1.3461 3.7189,-2.3645 0.2585,1.0184 0.7414,1.8037 1.4405,2.3645 0.699,0.552 1.6135,0.8366 2.7524,0.8455 0.5951,-0.009 1.1389,-0.0862 1.6218,-0.2333 0.4836,-0.1464 0.8974,-0.3187 1.2428,-0.5178 0.3365,-0.1983 0.604,-0.3707 0.7934,-0.5171 0.1813,-0.147 0.2764,-0.2243 0.2764,-0.2332 z m -14.8059,1.1389 c -0.8283,-0.009 -1.5356,-0.1642 -2.1135,-0.4658 -0.578,-0.2934 -1.0096,-0.7079 -1.3113,-1.225 -0.3023,-0.5267 -0.4576,-1.1136 -0.4576,-1.7778 -0.008,-0.6901 0.1293,-1.3112 0.4228,-1.8639 0.2934,-0.5519 0.7763,-1.0437 1.4493,-1.4665 0.6731,-0.4227 1.5876,-0.7763 2.7354,-1.0697 0.7681,-0.1902 1.5095,-0.3277 2.2257,-0.4316 0.725,-0.1033 1.3892,-0.1724 2.0021,-0.2244 0.6121,-0.0513 1.1299,-0.0862 1.5704,-0.1204 -0.026,1.0869 -0.052,2.1827 -0.0691,3.2873 -0.0177,1.104 -0.0348,2.1998 -0.0348,3.2867 -0.431,0.2852 -0.9665,0.5868 -1.6047,0.9063 -0.6382,0.3194 -1.3632,0.5868 -2.1744,0.8112 -0.8106,0.2243 -1.6909,0.3447 -2.6403,0.3536 z m 30.8142,-18.8955 c 0.7592,0.009 1.5103,0.0951 2.2606,0.2592 0.7592,0.1635 1.5356,0.3448 2.3297,0.5349 0.7934,0.1813 1.6218,0.3188 2.5021,0.3968 l 0.4138,-4.2449 c -0.8714,-0.0602 -1.682,-0.1724 -2.4501,-0.3366 -0.7592,-0.1641 -1.5356,-0.3194 -2.3119,-0.4658 -0.7852,-0.147 -1.6484,-0.2243 -2.5889,-0.2332 -1.708,0.009 -3.2873,0.3536 -4.7538,1.0438 -1.4665,0.6908 -2.7436,1.6655 -3.8482,2.9336 -1.0958,1.2682 -1.9583,2.7784 -2.5712,4.5213 -0.6122,1.7428 -0.9316,3.6669 -0.9405,5.7893 0,1.8462 0.2593,3.5377 0.7771,5.0733 0.5088,1.5356 1.2763,2.8728 2.3037,3.9945 1.0266,1.1307 2.2948,2.0021 3.8222,2.6232 1.5266,0.621 3.2955,0.9316 5.3146,0.9405 1.156,-0.009 2.1827,-0.0951 3.0801,-0.2675 0.9056,-0.1723 1.6737,-0.3625 2.2948,-0.5868 0.63,-0.2244 1.1047,-0.4139 1.4323,-0.5869 0.3283,-0.1724 0.4918,-0.2586 0.4918,-0.2675 v -3.8304 c 0,0.008 -0.1635,0.0773 -0.4829,0.2155 -0.3194,0.1382 -0.7682,0.3016 -1.3461,0.4829 -0.5869,0.1813 -1.2771,0.3454 -2.0794,0.4836 -0.8023,0.1382 -1.6908,0.2072 -2.6662,0.2154 -1.3201,-0.008 -2.485,-0.2585 -3.4857,-0.7503 -0.9918,-0.4918 -1.829,-1.1737 -2.5103,-2.0534 -0.673,-0.8892 -1.1737,-1.9158 -1.5184,-3.0889 -0.3366,-1.182 -0.5096,-2.459 -0.5096,-3.8393 0,-1.8208 0.2503,-3.3995 0.7592,-4.7374 0.5007,-1.3372 1.2771,-2.3721 2.3126,-3.106 1.0438,-0.7333 2.3639,-1.104 3.9686,-1.1129 z m 24.0843,0 c 0.7592,0.009 1.5103,0.0951 2.2606,0.2592 0.7592,0.1635 1.5356,0.3448 2.3297,0.5349 0.7935,0.1813 1.6218,0.3188 2.5021,0.3968 l 0.4138,-4.2449 c -0.8714,-0.0602 -1.682,-0.1724 -2.4501,-0.3366 -0.7592,-0.1641 -1.5356,-0.3194 -2.3119,-0.4658 -0.7852,-0.147 -1.6484,-0.2243 -2.5889,-0.2332 -1.708,0.009 -3.2873,0.3536 -4.7538,1.0438 -1.4665,0.6908 -2.7436,1.6655 -3.8482,2.9336 -1.0958,1.2682 -1.9583,2.7784 -2.5712,4.5213 -0.6121,1.7428 -0.9316,3.6669 -0.9405,5.7893 0,1.8462 0.2593,3.5377 0.7771,5.0733 0.5088,1.5356 1.2763,2.8728 2.3037,3.9945 1.0266,1.1307 2.2948,2.0021 3.8222,2.6232 1.5266,0.621 3.2955,0.9316 5.3146,0.9405 1.156,-0.009 2.1827,-0.0951 3.0801,-0.2675 0.9056,-0.1723 1.6737,-0.3625 2.2948,-0.5868 0.63,-0.2244 1.1047,-0.4139 1.4323,-0.5869 0.3283,-0.1724 0.4918,-0.2586 0.4918,-0.2675 v -3.8304 c 0,0.008 -0.1635,0.0773 -0.4829,0.2155 -0.3194,0.1382 -0.7682,0.3016 -1.3461,0.4829 -0.5869,0.1813 -1.2771,0.3454 -2.0794,0.4836 -0.8023,0.1382 -1.6908,0.2072 -2.6662,0.2154 -1.3201,-0.008 -2.485,-0.2585 -3.4857,-0.7503 -0.9918,-0.4918 -1.829,-1.1737 -2.5103,-2.0534 -0.673,-0.8892 -1.1737,-1.9158 -1.5184,-3.0889 -0.3366,-1.182 -0.5096,-2.459 -0.5096,-3.8393 0,-1.8208 0.2503,-3.3995 0.7592,-4.7374 0.5007,-1.3372 1.2771,-2.3721 2.3126,-3.106 1.0438,-0.7333 2.3639,-1.104 3.9686,-1.1129 z m 13.7826,22.3121 h 4.8147 l 11.3372,-17.0836 c 0.4139,-0.63 0.7675,-1.225 1.0609,-1.7688 0.2935,-0.5431 0.5178,-0.9918 0.6731,-1.3283 0.1552,-0.3455 0.2332,-0.5178 0.2332,-0.5267 h 0.1553 c 0,0.009 -0.026,0.1812 -0.078,0.5096 -0.052,0.3365 -0.1033,0.7934 -0.1553,1.3803 -0.043,0.5779 -0.069,1.2421 -0.0772,1.9931 v 16.8244 h 5.0732 c 0,-0.009 -0.0178,-0.1464 -0.0431,-0.4138 -0.026,-0.2764 -0.052,-0.6389 -0.0869,-1.1047 -0.0342,-0.4576 -0.0602,-0.9665 -0.0862,-1.5356 -0.026,-0.5698 -0.0431,-1.1566 -0.0431,-1.7606 v -21.3278 l -4.8139,0.2586 -10.8715,16.3065 c -0.5007,0.751 -0.9316,1.4583 -1.286,2.1143 -0.3536,0.6559 -0.621,1.1908 -0.8105,1.6046 -0.1901,0.4056 -0.2852,0.6211 -0.2852,0.63 h -0.2066 c 0,-0.009 0.0171,-0.1471 0.0513,-0.4227 0.026,-0.2846 0.0609,-0.656 0.104,-1.1218 0.0431,-0.4747 0.0773,-1.0007 0.1033,-1.5787 0.0349,-0.5779 0.052,-1.1819 0.052,-1.7948 v -15.996 l -5.1253,0.2586 c 0,0.009 0.0171,0.1641 0.052,0.4658 0.026,0.2934 0.0602,0.699 0.1033,1.2079 0.0431,0.5089 0.078,1.0787 0.104,1.7086 0.0342,0.63 0.0513,1.2853 0.0513,1.9494 z m 30.9174,0 h 5.0733 c 0,-0.009 -0.0171,-0.1464 -0.0431,-0.4138 -0.026,-0.2764 -0.052,-0.6389 -0.0862,-1.1047 -0.0342,-0.4576 -0.0602,-0.9665 -0.0862,-1.5356 -0.026,-0.5698 -0.0431,-1.1566 -0.0431,-1.7606 v -6.5739 h 2.433 l 9.0076,11.6471 5.6943,-0.2585 c -0.008,-0.009 -0.1122,-0.1211 -0.3195,-0.3454 -0.2065,-0.2244 -0.4829,-0.526 -0.8194,-0.8968 -0.3365,-0.3714 -0.699,-0.7941 -1.0869,-1.251 -0.3885,-0.4576 -0.7681,-0.9152 -1.1388,-1.3892 l -7.5062,-9.5774 4.1929,-5.2804 c 1.199,-1.5185 2.1655,-2.8126 2.8817,-3.8735 0.725,-1.0616 1.2421,-1.8728 1.5704,-2.433 0.3195,-0.5527 0.4747,-0.8372 0.4658,-0.8372 h -4.9699 c 0.009,0 -0.1122,0.2072 -0.3536,0.621 -0.2415,0.4227 -0.656,1.0698 -1.2422,1.9501 -0.5868,0.8803 -1.381,2.0014 -2.3899,3.3824 l -3.7791,5.0732 h -2.6402 v -11.2853 l -5.1252,0.2586 c 0,0.009 0.0171,0.1641 0.052,0.4658 0.026,0.2934 0.0602,0.699 0.1033,1.2079 0.0431,0.5089 0.0779,1.0787 0.1039,1.7086 0.0342,0.63 0.0513,1.2853 0.0513,1.9494 z m 47.6905,-4.5555 c -0.009,0.008 -0.1464,0.1033 -0.4056,0.2675 -0.2585,0.1641 -0.5691,0.3365 -0.9487,0.5 -0.3796,0.1641 -0.7592,0.2592 -1.1306,0.2674 -0.3879,-0.008 -0.6642,-0.1292 -0.8366,-0.3707 -0.173,-0.2326 -0.2503,-0.526 -0.2503,-0.8714 0,-0.6382 0.008,-1.3721 0.0171,-2.1915 0.009,-0.8195 0.026,-1.6909 0.0431,-2.5972 0.0171,-0.9145 0.0349,-1.829 0.052,-2.7435 0.0171,-0.9056 0.0342,-1.777 0.0519,-2.5972 0.0171,-0.8194 0.0342,-1.5526 0.0431,-2.1915 0.0253,-2.1826 -0.3194,-3.9686 -1.0267,-5.3407 -0.7161,-1.3714 -1.7606,-2.381 -3.1409,-3.0198 -1.3721,-0.6471 -3.0369,-0.9658 -4.9952,-0.9576 -1.4672,0.009 -2.7702,0.1122 -3.9091,0.3023 -1.1388,0.1895 -2.1047,0.4056 -2.8899,0.6553 -0.7941,0.2503 -1.3892,0.4658 -1.7948,0.6559 -0.4138,0.1895 -0.6211,0.2935 -0.6211,0.3017 v 3.883 c 0,-0.009 0.1895,-0.095 0.552,-0.2592 0.3625,-0.1635 0.8803,-0.3536 1.5616,-0.5691 0.6819,-0.2161 1.5014,-0.4056 2.4508,-0.5698 0.9487,-0.1634 2.0184,-0.2503 3.2004,-0.2585 1.3119,-0.009 2.3988,0.1642 3.2531,0.526 0.8543,0.3625 1.4925,0.9754 1.9152,1.8468 0.4227,0.8625 0.63,2.0363 0.63,3.5287 v 1.6047 c -0.4918,0 -1.13,0.009 -1.907,0.026 -0.7764,0.026 -1.6047,0.0691 -2.5021,0.1382 -0.8974,0.0602 -1.7688,0.1634 -2.6313,0.3016 -1.881,0.3023 -3.4337,0.8283 -4.6677,1.5876 -1.2339,0.751 -2.1573,1.6737 -2.7613,2.7613 -0.6039,1.0957 -0.9056,2.3037 -0.9056,3.6238 0,0.8885 0.1382,1.7428 0.4227,2.5534 0.2764,0.8112 0.7162,1.5445 1.303,2.1833 0.5862,0.6382 1.3373,1.1471 2.2518,1.5267 0.9145,0.3714 2.0014,0.5609 3.2702,0.5698 1.6217,-0.009 3.1142,-0.2935 4.4603,-0.8455 1.3461,-0.5608 2.5883,-1.3461 3.7189,-2.3645 0.2586,1.0184 0.7415,1.8037 1.4405,2.3645 0.6991,0.552 1.6136,0.8366 2.7525,0.8455 0.595,-0.009 1.1388,-0.0862 1.6217,-0.2333 0.4836,-0.1464 0.8974,-0.3187 1.2428,-0.5178 0.3366,-0.1983 0.604,-0.3707 0.7935,-0.5171 0.1812,-0.147 0.2763,-0.2243 0.2763,-0.2332 z m -14.8058,1.1389 c -0.8284,-0.009 -1.5356,-0.1642 -2.1136,-0.4658 -0.578,-0.2934 -1.0096,-0.7079 -1.3112,-1.225 -0.3023,-0.5267 -0.4576,-1.1136 -0.4576,-1.7778 -0.008,-0.6901 0.1293,-1.3112 0.4227,-1.8639 0.2934,-0.5519 0.7763,-1.0437 1.4494,-1.4665 0.6731,-0.4227 1.5876,-0.7763 2.7353,-1.0697 0.7681,-0.1902 1.5096,-0.3277 2.2257,-0.4316 0.7251,-0.1033 1.3892,-0.1724 2.0021,-0.2244 0.6122,-0.0513 1.13,-0.0862 1.5705,-0.1204 -0.026,1.0869 -0.052,2.1827 -0.0691,3.2873 -0.0178,1.104 -0.0349,2.1998 -0.0349,3.2867 -0.4309,0.2852 -0.9665,0.5868 -1.6047,0.9063 -0.6381,0.3194 -1.3632,0.5868 -2.1744,0.8112 -0.8105,0.2243 -1.6908,0.3447 -2.6402,0.3536 z m 43.912,-18.0672 c 2.5452,0 4.4953,0.8632 5.8407,2.5801 1.3372,1.7168 2.0192,4.2791 2.0281,7.6704 0,1.1039 -0.1642,2.1477 -0.4918,3.1231 -0.3283,0.9747 -0.803,1.8379 -1.4152,2.5883 -0.6129,0.7503 -1.355,1.3372 -2.2175,1.7688 -0.8715,0.4227 -1.8379,0.6381 -2.9159,0.647 -2.5459,0 -4.4953,-0.8543 -5.8414,-2.554 -1.3372,-1.708 -2.0192,-4.2531 -2.0274,-7.6444 0,-1.1129 0.1635,-2.1566 0.4918,-3.132 0.3277,-0.9836 0.8024,-1.855 1.4145,-2.6054 0.6129,-0.7592 1.355,-1.3543 2.2176,-1.7859 0.8714,-0.4316 1.8379,-0.6471 2.9165,-0.656 z m -8.5937,1.2942 c 0.2763,-2.0794 0.725,-3.9173 1.329,-5.496 0.6122,-1.5875 1.4323,-2.9248 2.4672,-4.0376 1.0267,-1.1047 2.3037,-1.9843 3.8311,-2.6492 1.5355,-0.6552 3.3563,-1.0957 5.4699,-1.3283 1.7688,-0.1812 3.158,-0.3625 4.1847,-0.5527 1.0178,-0.1894 1.7517,-0.3536 2.1744,-0.4829 0.431,-0.1292 0.6471,-0.1983 0.6293,-0.2072 l -0.5691,-4.4522 c 0.009,0 -0.0779,0.0349 -0.2503,0.0869 -0.1813,0.0602 -0.5089,0.1375 -0.9747,0.2415 -0.4658,0.1032 -1.1307,0.2154 -1.9843,0.3447 -0.8543,0.13 -1.959,0.2674 -3.3133,0.4145 -2.632,0.2756 -4.892,0.8283 -6.7818,1.6307 -1.8892,0.8112 -3.4597,1.881 -4.7196,3.2011 -1.2511,1.3283 -2.2429,2.8988 -2.9679,4.7278 -0.7244,1.829 -1.2422,3.9001 -1.5445,6.221 -0.3105,2.3119 -0.4569,4.8748 -0.4487,7.6703 0.009,2.5972 0.2935,4.866 0.8543,6.7901 0.5609,1.9323 1.3632,3.5287 2.407,4.7969 1.0445,1.2688 2.2866,2.2175 3.7278,2.8475 1.4405,0.6299 3.0452,0.9405 4.814,0.9405 2.7182,-0.009 5.065,-0.5698 7.0233,-1.6656 1.9583,-1.0957 3.4686,-2.6833 4.5212,-4.7449 1.0609,-2.0711 1.5958,-4.5561 1.6047,-7.4631 0,-1.7428 -0.2674,-3.3393 -0.8023,-4.7887 -0.5349,-1.4494 -1.303,-2.7004 -2.3208,-3.7709 -1.0185,-1.0609 -2.2524,-1.8803 -3.71,-2.4589 -1.4583,-0.5862 -3.115,-0.8797 -4.97,-0.8886 -2.0533,0.009 -3.8824,0.4576 -5.4877,1.3373 -1.6047,0.8892 -2.9159,2.1484 -3.9344,3.7879 z m 34.3347,33.3388 c -0.009,0 0.0944,-0.4487 0.3105,-1.3632 0.2244,-0.9145 0.63,-2.3126 1.2251,-4.1936 0.595,-1.8721 1.4405,-4.2449 2.554,-7.1266 l 6.2121,-15.8927 c 0.4398,-1.1129 0.8714,-2.2778 1.2941,-3.4857 0.4227,-1.208 0.7935,-2.3988 1.104,-3.589 0.3112,-1.1908 0.5096,-2.3208 0.604,-3.3823 h -4.5555 c -0.0772,0.699 -0.1723,1.3721 -0.2934,2.0191 -0.1204,0.6382 -0.2756,1.3113 -0.4658,2.0014 -0.1895,0.6991 -0.4227,1.4754 -0.7073,2.3386 -0.2763,0.8625 -0.621,1.8721 -1.0184,3.011 l -1.76,5.1252 c -0.3276,0.9227 -0.6039,1.8112 -0.8543,2.6484 -0.2414,0.8455 -0.4487,1.5876 -0.6122,2.2518 -0.1641,0.6559 -0.2934,1.1737 -0.3714,1.5533 -0.0861,0.3879 -0.1292,0.578 -0.1292,0.5869 h -0.2073 c 0,-0.009 -0.0431,-0.199 -0.1204,-0.5787 -0.078,-0.3707 -0.1983,-0.8714 -0.3454,-1.5096 -0.1464,-0.6299 -0.3276,-1.329 -0.5349,-2.1053 -0.2154,-0.7763 -0.4487,-1.5705 -0.7072,-2.381 l -5.022,-15.2197 -5.539,0.2586 c 0.009,0.009 0.1122,0.2332 0.3105,0.6819 0.1991,0.448 0.4665,1.0698 0.7942,1.8632 0.3276,0.8024 0.6812,1.7258 1.0697,2.7866 l 7.5063,20.7594 -0.4139,0.9836 c -0.8885,2.0445 -1.6046,3.8051 -2.1484,5.2887 -0.5438,1.4843 -0.9576,2.7004 -1.2339,3.6498 -0.2846,0.9576 -0.4747,1.6649 -0.5691,2.1225 -0.0951,0.4658 -0.1471,0.6901 -0.1382,0.6901 z m 22.0131,-39.0331 c -0.0861,3.184 -0.2243,5.9966 -0.4227,8.4207 -0.1983,2.4248 -0.4829,4.5212 -0.8543,6.29 -0.3625,1.7689 -0.8454,3.2525 -1.4405,4.4693 -0.5869,1.2162 -1.329,2.2086 -2.2004,2.9768 h -2.2257 l 0.5177,12.3722 4.4002,-0.2586 c 0,-0.009 -0.0178,-0.1471 -0.0431,-0.4145 -0.026,-0.2586 -0.052,-0.604 -0.0869,-1.0349 -0.0342,-0.4316 -0.0601,-0.8892 -0.0861,-1.3892 -0.026,-0.5007 -0.0431,-0.9836 -0.0431,-1.4583 v -4.0896 h 19.206 l 0.3625,8.6451 4.4002,-0.2586 c 0,-0.009 -0.0171,-0.1471 -0.0431,-0.4145 -0.026,-0.2586 -0.052,-0.604 -0.0862,-1.0349 -0.0349,-0.4316 -0.0609,-0.8892 -0.0862,-1.3892 -0.026,-0.5007 -0.0431,-0.9836 -0.0431,-1.4583 v -7.8167 h -4.0383 v -22.1568 z m 4.0377,3.7791 h 8.3352 v 18.3777 h -12.4761 c 1.225,-1.2771 2.1826,-3.4344 2.8899,-6.4543 0.699,-3.0191 1.1135,-6.9966 1.251,-11.9234 z m 29.0029,35.254 c -0.009,0 0.0944,-0.4487 0.3106,-1.3632 0.2243,-0.9145 0.6299,-2.3126 1.225,-4.1936 0.5951,-1.8721 1.4405,-4.2449 2.5541,-7.1266 l 6.212,-15.8927 c 0.4399,-1.1129 0.8715,-2.2778 1.2942,-3.4857 0.4227,-1.208 0.7934,-2.3988 1.1039,-3.589 0.3113,-1.1908 0.5096,-2.3208 0.604,-3.3823 h -4.5554 c -0.0773,0.699 -0.1724,1.3721 -0.2935,2.0191 -0.1203,0.6382 -0.2756,1.3113 -0.4658,2.0014 -0.1894,0.6991 -0.4227,1.4754 -0.7072,2.3386 -0.2763,0.8625 -0.6211,1.8721 -1.0185,3.011 l -1.7599,5.1252 c -0.3277,0.9227 -0.604,1.8112 -0.8543,2.6484 -0.2415,0.8455 -0.4487,1.5876 -0.6122,2.2518 -0.1642,0.6559 -0.2934,1.1737 -0.3714,1.5533 -0.0862,0.3879 -0.1293,0.578 -0.1293,0.5869 h -0.2073 c 0,-0.009 -0.043,-0.199 -0.1203,-0.5787 -0.078,-0.3707 -0.1984,-0.8714 -0.3455,-1.5096 -0.1463,-0.6299 -0.3276,-1.329 -0.5348,-2.1053 -0.2155,-0.7763 -0.4487,-1.5705 -0.7073,-2.381 l -5.0219,-15.2197 -5.539,0.2586 c 0.009,0.009 0.1121,0.2332 0.3105,0.6819 0.199,0.448 0.4665,1.0698 0.7941,1.8632 0.3276,0.8024 0.6813,1.7258 1.0698,2.7866 l 7.5062,20.7594 -0.4138,0.9836 c -0.8885,2.0445 -1.6047,3.8051 -2.1485,5.2887 -0.5437,1.4843 -0.9576,2.7004 -1.2339,3.6498 -0.2845,0.9576 -0.4747,1.6649 -0.5691,2.1225 -0.0951,0.4658 -0.147,0.6901 -0.1382,0.6901 z m 18.3894,-13.1492 h 34.5809 l 0.3625,8.6451 4.4002,-0.2586 c 0,-0.009 -0.0171,-0.1471 -0.0431,-0.4145 -0.026,-0.2586 -0.052,-0.604 -0.0862,-1.0349 -0.0349,-0.4316 -0.0602,-0.8892 -0.0862,-1.3892 -0.026,-0.5007 -0.0431,-0.9836 -0.0431,-1.4583 v -7.8167 h -4.0383 v -22.4154 l -5.1245,0.2586 c 0,0.009 0.0171,0.1641 0.0513,0.4658 0.026,0.2934 0.0609,0.699 0.104,1.2079 0.043,0.5089 0.0772,1.0787 0.1121,1.7086 0.0253,0.63 0.0431,1.2853 0.0431,1.9494 v 16.8251 h -10.3017 v -22.4154 l -5.1252,0.2586 c 0,0.009 0.0171,0.1641 0.0513,0.4658 0.026,0.2934 0.0609,0.699 0.104,1.2079 0.0431,0.5089 0.0773,1.0787 0.1121,1.7086 0.026,0.63 0.0431,1.2853 0.0431,1.9494 v 16.8251 h -10.3017 v -22.4154 l -5.1252,0.2586 c 0,0.009 0.0171,0.1641 0.052,0.4658 0.026,0.2934 0.0602,0.699 0.1033,1.2079 0.0431,0.5089 0.078,1.0787 0.104,1.7086 0.0342,0.63 0.0513,1.2853 0.0513,1.9494 z m 55.4039,-26.4017 c -1.7948,0 -3.4508,0.3194 -4.961,0.9494 -1.5185,0.621 -2.8298,1.5526 -3.9515,2.7695 -1.1307,1.225 -2.0021,2.7264 -2.6143,4.5123 -0.621,1.786 -0.9405,3.8393 -0.9493,6.1601 0,1.881 0.2763,3.5897 0.8283,5.1252 0.5526,1.5356 1.3632,2.8475 2.433,3.9515 1.0704,1.1047 2.3816,1.959 3.9432,2.5452 1.5616,0.5957 3.3564,0.8974 5.3756,0.9063 1.3632,-0.009 2.5793,-0.104 3.658,-0.2764 1.0787,-0.1723 2.0014,-0.3707 2.7524,-0.6039 0.7592,-0.2326 1.3372,-0.431 1.7339,-0.604 0.3968,-0.1724 0.604,-0.2675 0.604,-0.2757 v -3.7791 c -0.009,0.008 -0.2154,0.0773 -0.6211,0.2155 -0.4056,0.1382 -0.9493,0.3016 -1.6395,0.4829 -0.6813,0.1813 -1.4494,0.3454 -2.3037,0.4836 -0.8536,0.1382 -1.7251,0.2072 -2.6314,0.2154 -2.0102,-0.008 -3.684,-0.3707 -5.013,-1.0868 -1.3283,-0.7162 -2.329,-1.76 -3.0198,-3.1239 -0.6902,-1.3632 -1.0869,-3.0109 -1.182,-4.9521 h 17.9639 c 0.2585,-1.9152 0.2496,-3.6929 -0.0349,-5.3407 -0.2934,-1.6395 -0.8625,-3.08 -1.7079,-4.3229 -0.8544,-1.2332 -2.0021,-2.1997 -3.4426,-2.8987 -1.4323,-0.6902 -3.1751,-1.0438 -5.2203,-1.0527 z m -0.2073,3.5205 c 1.0445,0.008 1.9419,0.1813 2.6752,0.5349 0.7332,0.3447 1.3283,0.8194 1.7859,1.4323 0.4487,0.604 0.7763,1.3023 0.9747,2.0965 0.1984,0.7852 0.2845,1.6217 0.2592,2.5109 l -12.8906,0.2066 c 0.2243,-1.3372 0.6559,-2.5192 1.277,-3.5288 0.63,-1.0177 1.4412,-1.8119 2.433,-2.381 0.9925,-0.5697 2.1573,-0.8632 3.4856,-0.8714 z m 17.0439,22.8812 h 5.0733 c 0,-0.009 -0.0171,-0.1464 -0.0431,-0.4138 -0.026,-0.2593 -0.052,-0.604 -0.0862,-1.0356 -0.0342,-0.4316 -0.0602,-0.8885 -0.0862,-1.3892 -0.026,-0.5007 -0.0431,-0.9836 -0.0431,-1.4583 V 518.875 h 7.2477 c 0.6983,0 1.3632,0.026 1.9925,0.0691 0.6299,0.0349 1.1388,0.078 1.5362,0.1211 0.3967,0.0431 0.5951,0.0602 0.6122,0.0691 l 0.2073,-4.1416 h -16.7211 c 0,0.009 0.0171,0.1641 0.052,0.4576 0.026,0.3016 0.0602,0.7072 0.1033,1.2161 0.0431,0.5089 0.078,1.0787 0.1039,1.7086 0.0342,0.63 0.0513,1.2853 0.0513,1.9494 z m 31.5906,-22.8299 c 2.58,0 4.5554,0.9145 5.9357,2.7524 1.381,1.8291 2.0794,4.5733 2.0883,8.2224 0,1.1819 -0.1724,2.3037 -0.5089,3.3564 -0.3455,1.0445 -0.8284,1.9761 -1.4583,2.7873 -0.63,0.8023 -1.3892,1.4405 -2.2689,1.8981 -0.8803,0.4658 -1.8727,0.6983 -2.9596,0.7072 -2.5801,0 -4.5555,-0.9145 -5.9358,-2.7524 -1.381,-1.829 -2.0711,-4.5725 -2.0882,-8.2223 0,-1.1991 0.1723,-2.3208 0.5089,-3.3735 0.3454,-1.0527 0.8283,-1.9843 1.4583,-2.7866 0.6299,-0.8031 1.3892,-1.4323 2.2688,-1.8899 0.8803,-0.4569 1.8728,-0.6902 2.9597,-0.6991 z m -0.2586,23.3477 c 2.7346,-0.009 5.0903,-0.5958 7.0575,-1.76 1.9672,-1.1648 3.4768,-2.8386 4.5383,-5.0219 1.0609,-2.1826 1.5958,-4.8058 1.6047,-7.8687 0,-1.829 -0.2674,-3.4939 -0.8023,-4.9953 -0.5349,-1.5013 -1.3113,-2.7955 -2.3297,-3.8741 -1.0178,-1.0869 -2.2606,-1.9241 -3.7271,-2.511 -1.4583,-0.5862 -3.1321,-0.8796 -4.996,-0.8885 -2.7346,0.009 -5.0903,0.5957 -7.0575,1.7517 -1.9672,1.1471 -3.4767,2.8126 -4.5383,4.987 -1.0609,2.1738 -1.5958,4.7969 -1.6047,7.8599 0,1.829 0.2764,3.5027 0.8024,5.0041 0.5348,1.5014 1.3112,2.8044 2.3297,3.8913 1.0178,1.0958 2.2606,1.933 3.7271,2.5281 1.4665,0.5868 3.132,0.8885 4.9959,0.8974 z"
       style="fill:#cd0131;fill-rule:evenodd"
       id="path29" />
  </g>
</svg>
