<?xml version="1.0" encoding="UTF-8"?>
<svg xmlns="http://www.w3.org/2000/svg" xmlns:xlink="http://www.w3.org/1999/xlink" width="128px" height="45px" viewBox="0 0 129 45" version="1.1">
<g id="surface1">
<path style=" stroke:none;fill-rule:nonzero;fill:rgb(80.784314%,8.235294%,19.215686%);fill-opacity:1;" d="M 101.546875 0.328125 C 101.40625 0.507812 101.300781 0.671875 101.308594 0.695312 C 101.363281 0.835938 102 1.1875 102.363281 1.277344 C 102.863281 1.40625 103.421875 1.398438 103.894531 1.257812 C 104.265625 1.144531 104.851562 0.820312 104.894531 0.695312 C 104.90625 0.671875 104.800781 0.507812 104.65625 0.328125 L 104.394531 -0.00390625 L 104.144531 0.226562 C 103.992188 0.367188 103.796875 0.503906 103.65625 0.574219 C 103.425781 0.6875 103.398438 0.695312 103.101562 0.695312 C 102.808594 0.695312 102.78125 0.6875 102.550781 0.574219 C 102.410156 0.503906 102.214844 0.367188 102.0625 0.226562 C 101.921875 0.101562 101.808594 0 101.804688 0.00390625 C 101.800781 0.00390625 101.683594 0.148438 101.546875 0.328125 Z M 101.546875 0.328125 "/>
<path style=" stroke:none;fill-rule:nonzero;fill:rgb(80.784314%,8.235294%,19.215686%);fill-opacity:1;" d="M 75.1875 2.121094 C 74.738281 2.195312 74.242188 2.402344 73.867188 2.667969 C 73.757812 2.746094 73.550781 2.933594 73.402344 3.09375 C 72.980469 3.539062 72.71875 4.03125 72.539062 4.714844 C 72.441406 5.097656 72.40625 5.863281 72.460938 6.320312 C 72.644531 7.738281 73.425781 8.730469 74.679688 9.140625 C 75.082031 9.273438 75.488281 9.320312 76.121094 9.300781 C 76.714844 9.285156 77.046875 9.238281 77.492188 9.109375 L 77.722656 9.042969 L 77.722656 7.242188 L 77.078125 7.242188 L 77.074219 7.378906 C 77.074219 7.453125 77.054688 7.742188 77.035156 8.015625 L 76.996094 8.515625 L 76.859375 8.558594 C 76.621094 8.625 76.078125 8.671875 75.789062 8.648438 C 74.617188 8.550781 73.792969 7.753906 73.511719 6.433594 C 73.425781 6.03125 73.429688 5.261719 73.519531 4.847656 C 73.753906 3.757812 74.425781 2.992188 75.320312 2.796875 C 75.695312 2.710938 76.332031 2.742188 76.675781 2.859375 C 76.820312 2.90625 76.953125 2.953125 76.972656 2.96875 C 76.992188 2.980469 77.023438 3.230469 77.042969 3.589844 C 77.066406 3.917969 77.085938 4.207031 77.09375 4.226562 C 77.101562 4.253906 77.195312 4.265625 77.417969 4.265625 L 77.722656 4.265625 L 77.722656 2.453125 L 77.542969 2.371094 C 76.953125 2.109375 75.90625 1.996094 75.1875 2.121094 Z M 75.1875 2.121094 "/>
<path style=" stroke:none;fill-rule:nonzero;fill:rgb(80.784314%,8.235294%,19.215686%);fill-opacity:1;" d="M 35.089844 2.503906 L 35.089844 2.8125 L 35.894531 2.8125 L 35.894531 8.5625 L 35.5 8.574219 L 35.105469 8.582031 L 35.09375 8.878906 L 35.085938 9.179688 L 37.667969 9.179688 L 37.667969 8.566406 L 36.894531 8.566406 L 36.894531 2.8125 L 40.3125 2.8125 L 40.3125 8.566406 L 39.507812 8.566406 L 39.507812 9.179688 L 42.054688 9.179688 L 42.054688 8.566406 L 41.28125 8.566406 L 41.28125 2.8125 L 42.054688 2.8125 L 42.054688 2.199219 L 35.089844 2.199219 Z M 35.089844 2.503906 "/>
<path style=" stroke:none;fill-rule:nonzero;fill:rgb(80.784314%,8.235294%,19.215686%);fill-opacity:1;" d="M 45.054688 2.503906 L 45.054688 2.8125 L 45.859375 2.8125 L 45.859375 8.566406 L 45.054688 8.566406 L 45.054688 9.179688 L 50.050781 9.179688 L 50.050781 7.402344 L 49.410156 7.402344 L 49.394531 7.507812 C 49.375 7.625 49.308594 8.402344 49.308594 8.503906 C 49.308594 8.566406 49.285156 8.566406 48.070312 8.566406 L 46.828125 8.566406 L 46.828125 5.949219 L 47.289062 5.96875 C 48.371094 6.011719 49.070312 6.03125 49.09375 6.023438 C 49.105469 6.015625 49.117188 5.839844 49.117188 5.636719 L 49.117188 5.269531 L 49 5.269531 C 48.847656 5.269531 47.363281 5.328125 47.0625 5.347656 L 46.828125 5.359375 L 46.828125 2.8125 L 48.070312 2.8125 C 49.304688 2.8125 49.308594 2.8125 49.308594 2.878906 C 49.308594 2.972656 49.371094 3.699219 49.394531 3.871094 L 49.410156 4.007812 L 50.050781 4.007812 L 50.050781 2.199219 L 45.054688 2.199219 Z M 45.054688 2.503906 "/>
<path style=" stroke:none;fill-rule:nonzero;fill:rgb(80.784314%,8.235294%,19.215686%);fill-opacity:1;" d="M 53.050781 2.503906 L 53.050781 2.8125 L 53.859375 2.8125 L 53.859375 8.566406 L 53.050781 8.566406 L 53.050781 9.179688 L 55.828125 9.179688 L 55.816406 8.878906 L 55.808594 8.582031 L 55.320312 8.574219 L 54.824219 8.5625 L 54.824219 6.539062 L 55.59375 6.519531 C 56.011719 6.511719 56.429688 6.484375 56.519531 6.464844 C 57.421875 6.261719 57.988281 5.808594 58.230469 5.109375 C 58.34375 4.789062 58.371094 4.179688 58.296875 3.816406 C 58.15625 3.148438 57.695312 2.640625 57.019531 2.40625 C 56.515625 2.230469 56.445312 2.222656 54.691406 2.207031 L 53.050781 2.191406 Z M 56.105469 2.859375 C 56.707031 2.972656 57.113281 3.320312 57.277344 3.851562 C 57.351562 4.089844 57.363281 4.589844 57.296875 4.835938 C 57.15625 5.363281 56.734375 5.769531 56.21875 5.878906 C 56.125 5.898438 55.773438 5.914062 55.4375 5.914062 L 54.824219 5.914062 L 54.824219 2.8125 L 55.335938 2.8125 C 55.660156 2.8125 55.949219 2.832031 56.105469 2.859375 Z M 56.105469 2.859375 "/>
<path style=" stroke:none;fill-rule:nonzero;fill:rgb(80.784314%,8.235294%,19.215686%);fill-opacity:1;" d="M 61.179688 2.503906 L 61.179688 2.8125 L 61.953125 2.8125 L 61.953125 8.566406 L 61.179688 8.566406 L 61.179688 9.179688 L 63.503906 9.179688 L 63.492188 8.878906 L 63.484375 8.582031 L 63.089844 8.574219 L 62.695312 8.5625 L 62.691406 6.117188 C 62.691406 4.773438 62.679688 3.589844 62.664062 3.496094 C 62.652344 3.40625 62.652344 3.328125 62.667969 3.328125 C 62.679688 3.328125 62.695312 3.347656 62.695312 3.367188 C 62.695312 3.460938 63.066406 4.121094 64.03125 5.734375 C 64.867188 7.125 65.101562 7.5 65.152344 7.492188 C 65.1875 7.488281 65.609375 6.847656 66.339844 5.691406 C 67.371094 4.066406 67.726562 3.460938 67.726562 3.339844 C 67.726562 3.316406 67.738281 3.296875 67.75 3.296875 C 67.765625 3.296875 67.765625 3.402344 67.753906 3.53125 C 67.742188 3.660156 67.726562 4.847656 67.726562 6.164062 L 67.726562 8.566406 L 66.917969 8.566406 L 66.917969 9.179688 L 69.433594 9.179688 L 69.433594 8.566406 L 68.660156 8.566406 L 68.660156 2.8125 L 69.433594 2.8125 L 69.433594 2.199219 L 68.539062 2.199219 L 67.644531 2.203125 L 66.472656 4.105469 C 65.828125 5.15625 65.289062 6.011719 65.28125 6.011719 C 65.265625 6.007812 64.765625 5.15625 64.160156 4.113281 L 63.0625 2.214844 L 62.121094 2.203125 L 61.179688 2.199219 Z M 61.179688 2.503906 "/>
<path style=" stroke:none;fill-rule:nonzero;fill:rgb(80.784314%,8.235294%,19.215686%);fill-opacity:1;" d="M 80.820312 2.503906 L 80.820312 2.8125 L 81.625 2.8125 L 81.625 8.566406 L 80.820312 8.566406 L 80.820312 9.179688 L 83.398438 9.179688 L 83.398438 8.566406 L 82.59375 8.566406 L 82.59375 5.878906 L 82.984375 5.890625 L 83.378906 5.898438 L 84.542969 7.539062 L 85.703125 9.179688 L 86.976562 9.179688 L 86.976562 8.566406 L 86.441406 8.566406 L 85.460938 7.1875 C 84.921875 6.425781 84.410156 5.710938 84.332031 5.59375 L 84.179688 5.382812 L 86.125 2.828125 L 86.421875 2.820312 L 86.71875 2.808594 L 86.71875 2.199219 L 84.65625 2.199219 L 84.65625 2.808594 L 84.933594 2.820312 L 85.210938 2.828125 L 84.40625 4.046875 L 83.609375 5.265625 L 83.101562 5.265625 L 82.59375 5.269531 L 82.59375 2.8125 L 83.398438 2.8125 L 83.398438 2.199219 L 80.820312 2.199219 Z M 80.820312 2.503906 "/>
<path style=" stroke:none;fill-rule:nonzero;fill:rgb(80.784314%,8.235294%,19.215686%);fill-opacity:1;" d="M 89.558594 2.503906 L 89.558594 2.8125 L 90.332031 2.8125 L 90.332031 8.566406 L 89.558594 8.566406 L 89.558594 9.179688 L 91.324219 9.179688 L 93.003906 6.441406 C 93.929688 4.929688 94.726562 3.609375 94.773438 3.496094 C 94.824219 3.386719 94.875 3.300781 94.890625 3.296875 C 94.90625 3.296875 94.910156 3.328125 94.890625 3.367188 C 94.878906 3.410156 94.859375 4.597656 94.855469 6.003906 L 94.84375 8.566406 L 94.039062 8.566406 L 94.039062 9.179688 L 96.625 9.179688 L 96.613281 8.878906 L 96.605469 8.582031 L 96.210938 8.574219 L 95.816406 8.5625 L 95.816406 2.8125 L 96.621094 2.8125 L 96.621094 2.199219 L 95.726562 2.199219 L 94.832031 2.203125 L 93.765625 3.933594 C 93.183594 4.886719 92.4375 6.101562 92.113281 6.625 C 91.789062 7.152344 91.46875 7.6875 91.402344 7.8125 C 91.339844 7.941406 91.269531 8.050781 91.253906 8.050781 C 91.242188 8.050781 91.238281 8.027344 91.25 7.996094 C 91.304688 7.84375 91.332031 6.992188 91.332031 5.015625 L 91.332031 2.8125 L 92.105469 2.8125 L 92.105469 2.199219 L 89.558594 2.199219 Z M 89.558594 2.503906 "/>
<path style=" stroke:none;fill-rule:nonzero;fill:rgb(80.784314%,8.235294%,19.215686%);fill-opacity:1;" d="M 99.589844 2.503906 L 99.589844 2.8125 L 100.394531 2.8125 L 100.394531 8.5625 L 100 8.574219 L 99.605469 8.582031 L 99.59375 8.878906 L 99.585938 9.179688 L 101.378906 9.179688 L 103.039062 6.472656 C 103.953125 4.984375 104.746094 3.664062 104.8125 3.535156 C 104.875 3.402344 104.9375 3.300781 104.953125 3.296875 C 104.96875 3.296875 104.96875 3.324219 104.953125 3.351562 C 104.9375 3.382812 104.921875 4.570312 104.914062 5.988281 L 104.90625 8.566406 L 104.101562 8.566406 L 104.101562 9.179688 L 106.652344 9.179688 L 106.652344 8.566406 L 105.875 8.566406 L 105.875 2.8125 L 106.652344 2.8125 L 106.652344 2.199219 L 104.894531 2.199219 L 103.265625 4.84375 C 102.371094 6.292969 101.566406 7.621094 101.480469 7.785156 C 101.394531 7.949219 101.316406 8.078125 101.308594 8.070312 C 101.300781 8.0625 101.308594 7.964844 101.328125 7.851562 C 101.347656 7.722656 101.363281 6.738281 101.363281 5.226562 L 101.363281 2.8125 L 102.167969 2.8125 L 102.167969 2.199219 L 99.589844 2.199219 Z M 99.589844 2.503906 "/>
<path style=" stroke:none;fill-rule:nonzero;fill:rgb(80.784314%,8.235294%,19.215686%);fill-opacity:1;" d="M 0.0078125 11.386719 C 0.0195312 19.804688 0.0234375 20.578125 0.0742188 20.949219 C 0.328125 22.8125 0.859375 24.398438 1.730469 25.871094 C 3.894531 29.539062 7.730469 31.847656 11.941406 32.035156 C 15.519531 32.1875 18.851562 30.890625 21.367188 28.371094 C 22.746094 26.984375 23.734375 25.398438 24.363281 23.574219 C 24.550781 23.015625 24.761719 22.207031 24.847656 21.691406 C 25.015625 20.707031 25.007812 21.394531 25.015625 11.449219 L 25.027344 2.230469 L 0 2.230469 Z M 24.566406 10.996094 L 24.558594 19.285156 L 16.972656 19.300781 L 16.949219 19.035156 C 16.902344 18.476562 16.78125 18.140625 16.542969 17.929688 C 16.382812 17.785156 16.246094 17.722656 16.003906 17.683594 C 15.90625 17.667969 15.820312 17.644531 15.808594 17.636719 C 15.78125 17.609375 16.074219 16.15625 16.109375 16.148438 C 16.125 16.144531 16.257812 16.117188 16.398438 16.082031 C 16.742188 16.007812 17.164062 15.835938 17.488281 15.640625 C 17.671875 15.53125 17.769531 15.492188 17.804688 15.507812 C 17.835938 15.519531 18.140625 15.726562 18.488281 15.964844 L 19.121094 16.398438 L 19.136719 16.566406 C 19.203125 17.308594 19.230469 17.484375 19.300781 17.730469 C 19.515625 18.460938 19.882812 18.851562 20.527344 19.027344 C 20.660156 19.0625 20.910156 19.085938 21.3125 19.097656 L 21.898438 19.113281 L 21.898438 16.21875 L 19.898438 12.3125 L 19.960938 12 C 19.996094 11.828125 20.035156 11.566406 20.046875 11.421875 L 20.070312 11.15625 L 20.394531 10.867188 C 21.535156 9.855469 21.957031 8.859375 21.753906 7.675781 C 21.6875 7.3125 21.496094 6.734375 21.3125 6.34375 L 21.164062 6.046875 L 21.242188 5.921875 C 21.371094 5.714844 21.457031 5.386719 21.4375 5.164062 C 21.351562 4.234375 20.203125 3.988281 19.59375 4.773438 L 19.460938 4.945312 L 16.890625 4.945312 L 16.683594 4.722656 C 16.394531 4.410156 16.199219 4.316406 15.835938 4.316406 C 15.597656 4.316406 15.539062 4.328125 15.394531 4.402344 C 15.191406 4.507812 15.015625 4.710938 14.949219 4.90625 C 14.882812 5.097656 14.886719 5.410156 14.949219 5.605469 C 14.980469 5.691406 15 5.761719 14.992188 5.765625 C 14.988281 5.769531 14.863281 5.828125 14.726562 5.898438 C 14.582031 5.960938 14.378906 6.078125 14.273438 6.15625 C 14.085938 6.289062 13.675781 6.695312 13.574219 6.84375 L 13.527344 6.914062 L 10.332031 6.929688 C 7.1875 6.9375 7.140625 6.9375 6.832031 7.007812 C 5.375 7.339844 4.308594 8.164062 3.667969 9.457031 C 3.042969 10.71875 2.960938 12.140625 3.449219 13.40625 L 3.550781 13.675781 L 3.933594 13.675781 L 3.933594 14.574219 L 3.824219 14.644531 C 3.652344 14.75 3.394531 15.046875 3.292969 15.269531 C 3.183594 15.503906 3.128906 15.742188 3.128906 15.984375 L 3.128906 16.164062 L 3.449219 16.164062 C 3.628906 16.164062 3.773438 16.171875 3.773438 16.179688 C 3.773438 16.191406 3.714844 16.246094 3.644531 16.3125 C 3.351562 16.578125 3.171875 16.972656 3.136719 17.414062 L 3.117188 17.683594 L 3.933594 17.683594 L 3.933594 19.300781 L 0.484375 19.300781 L 0.484375 2.714844 L 24.574219 2.714844 Z M 16.074219 4.765625 C 16.230469 4.832031 16.410156 5.003906 16.519531 5.195312 L 16.613281 5.367188 L 19.703125 5.367188 L 19.8125 5.195312 C 19.9375 4.996094 20.121094 4.828125 20.28125 4.761719 C 20.425781 4.699219 20.683594 4.722656 20.792969 4.808594 C 21.097656 5.035156 21.101562 5.390625 20.800781 5.8125 L 20.667969 6.003906 L 20.878906 6.4375 C 21.246094 7.195312 21.367188 7.695312 21.339844 8.308594 C 21.292969 9.355469 20.734375 10.132812 19.203125 11.289062 C 18.574219 11.757812 18.199219 12.027344 18.167969 12.027344 C 18.128906 12.027344 17.371094 11.472656 16.835938 11.058594 C 15.535156 10.050781 14.996094 9.214844 14.988281 8.195312 C 14.988281 7.621094 15.125 7.09375 15.464844 6.40625 L 15.667969 5.996094 L 15.578125 5.882812 C 15.339844 5.582031 15.257812 5.230469 15.367188 4.996094 C 15.476562 4.765625 15.808594 4.65625 16.074219 4.765625 Z M 14.96875 6.472656 C 14.648438 7.164062 14.53125 7.699219 14.554688 8.355469 C 14.570312 8.886719 14.640625 9.148438 14.890625 9.609375 C 15.285156 10.339844 15.878906 10.902344 17.429688 12.027344 L 18.167969 12.570312 L 18.75 12.148438 C 19.070312 11.914062 19.390625 11.683594 19.457031 11.628906 C 19.523438 11.578125 19.589844 11.539062 19.597656 11.550781 C 19.628906 11.585938 19.507812 12.164062 19.394531 12.511719 C 18.90625 13.96875 17.839844 15.160156 16.640625 15.574219 C 16.207031 15.722656 16.191406 15.726562 16.191406 15.632812 C 16.191406 15.570312 16.242188 15.523438 16.441406 15.402344 C 16.890625 15.117188 17.253906 14.691406 17.472656 14.183594 C 17.628906 13.828125 17.671875 13.566406 17.671875 13.035156 L 17.671875 12.574219 L 17.253906 12.574219 L 17.257812 13.003906 C 17.261719 13.621094 17.164062 13.976562 16.875 14.410156 C 16.65625 14.726562 16.207031 15.101562 15.929688 15.199219 C 15.875 15.214844 15.835938 15.234375 15.835938 15.238281 C 15.835938 15.242188 15.710938 15.863281 15.5625 16.617188 C 15.410156 17.371094 15.285156 18.007812 15.285156 18.027344 C 15.285156 18.050781 15.40625 18.066406 15.652344 18.078125 C 15.980469 18.089844 16.035156 18.101562 16.171875 18.179688 C 16.289062 18.253906 16.339844 18.308594 16.402344 18.441406 C 16.476562 18.609375 16.566406 19.164062 16.53125 19.253906 C 16.519531 19.289062 16.472656 19.300781 16.359375 19.292969 L 16.207031 19.285156 L 16.195312 18.902344 L 16.1875 18.523438 L 16 18.523438 L 15.988281 18.902344 L 15.980469 19.285156 L 15.65625 19.285156 L 15.648438 18.902344 L 15.636719 18.523438 L 15.449219 18.523438 L 15.441406 18.902344 L 15.429688 19.285156 L 15.109375 19.285156 L 15.097656 18.902344 L 15.089844 18.523438 L 14.902344 18.523438 L 14.894531 18.902344 L 14.882812 19.285156 L 13.433594 19.285156 L 13.421875 18.273438 L 13.414062 17.261719 L 13.027344 17.261719 C 12.742188 17.261719 12.640625 17.253906 12.640625 17.222656 C 12.640625 17.132812 12.835938 16.789062 12.949219 16.671875 C 13.011719 16.601562 13.144531 16.503906 13.242188 16.453125 L 13.414062 16.351562 L 13.414062 15.742188 L 12.636719 15.742188 L 12.65625 15.652344 C 12.726562 15.367188 12.972656 15.0625 13.25 14.921875 L 13.414062 14.839844 L 13.414062 12.574219 L 12.996094 12.574219 L 12.996094 14.574219 L 12.886719 14.644531 C 12.605469 14.816406 12.339844 15.210938 12.246094 15.582031 L 12.199219 15.757812 L 10.4375 15.769531 C 9.46875 15.773438 8.675781 15.765625 8.675781 15.757812 C 8.675781 15.742188 8.722656 15.652344 8.785156 15.554688 C 9.058594 15.097656 9.167969 14.691406 9.167969 14.144531 C 9.164062 13.597656 9.039062 13.152344 8.761719 12.710938 L 8.675781 12.574219 L 8.113281 12.574219 L 8.199219 12.664062 C 8.332031 12.804688 8.535156 13.148438 8.613281 13.347656 C 8.828125 13.921875 8.804688 14.574219 8.542969 15.113281 C 8.40625 15.390625 8.15625 15.714844 7.941406 15.890625 C 7.742188 16.046875 7.304688 16.28125 7.132812 16.3125 C 7.035156 16.332031 7.023438 16.351562 6.816406 16.886719 C 6.699219 17.191406 6.546875 17.578125 6.480469 17.746094 L 6.359375 18.054688 L 6.644531 18.074219 C 7.203125 18.109375 7.386719 18.304688 7.453125 18.925781 C 7.472656 19.121094 7.476562 19.253906 7.457031 19.273438 C 7.441406 19.289062 7.355469 19.300781 7.269531 19.292969 L 7.109375 19.285156 L 7.101562 18.902344 L 7.089844 18.523438 L 6.90625 18.523438 L 6.894531 18.902344 L 6.886719 19.285156 L 6.5625 19.285156 L 6.554688 18.902344 L 6.542969 18.523438 L 6.355469 18.523438 L 6.347656 18.902344 L 6.335938 19.285156 L 6.015625 19.285156 L 6.003906 18.902344 L 5.996094 18.523438 L 5.808594 18.523438 L 5.796875 18.902344 L 5.789062 19.285156 L 4.371094 19.285156 L 4.359375 18.273438 L 4.355469 17.261719 L 3.964844 17.261719 C 3.753906 17.261719 3.578125 17.25 3.578125 17.234375 C 3.578125 17.21875 3.601562 17.144531 3.628906 17.066406 C 3.707031 16.835938 3.902344 16.613281 4.136719 16.472656 L 4.355469 16.347656 L 4.355469 15.742188 L 3.574219 15.742188 L 3.597656 15.652344 C 3.667969 15.359375 3.90625 15.066406 4.1875 14.917969 L 4.355469 14.839844 L 4.355469 14.4375 C 4.355469 14.222656 4.363281 13.710938 4.375 13.308594 L 4.394531 12.574219 L 3.964844 12.574219 L 3.964844 12.917969 C 3.964844 13.246094 3.964844 13.257812 3.894531 13.246094 C 3.816406 13.234375 3.707031 12.953125 3.621094 12.511719 C 3.542969 12.132812 3.546875 11.3125 3.621094 10.894531 C 3.746094 10.210938 4.058594 9.5 4.472656 8.953125 C 5.058594 8.167969 5.847656 7.671875 6.886719 7.425781 C 7.167969 7.359375 7.246094 7.359375 10.464844 7.347656 L 13.753906 7.335938 L 13.839844 7.199219 C 13.976562 6.988281 14.210938 6.738281 14.425781 6.570312 C 14.628906 6.414062 14.984375 6.210938 15.050781 6.207031 C 15.074219 6.207031 15.039062 6.316406 14.96875 6.472656 Z M 20.648438 14.699219 L 21.476562 16.320312 L 21.476562 18.683594 L 21.15625 18.683594 L 21.15625 17.941406 L 20.929688 17.941406 L 20.929688 18.664062 L 20.792969 18.640625 C 20.722656 18.628906 20.648438 18.609375 20.632812 18.601562 C 20.621094 18.589844 20.609375 18.441406 20.609375 18.261719 L 20.609375 17.941406 L 20.382812 17.941406 L 20.382812 18.214844 C 20.382812 18.394531 20.367188 18.492188 20.347656 18.492188 C 20.328125 18.492188 20.222656 18.402344 20.109375 18.289062 C 19.769531 17.945312 19.632812 17.542969 19.570312 16.675781 L 19.53125 16.167969 L 18.855469 15.703125 C 18.484375 15.449219 18.167969 15.234375 18.148438 15.21875 C 18.128906 15.210938 18.191406 15.128906 18.292969 15.035156 C 18.527344 14.820312 18.878906 14.398438 19.09375 14.082031 C 19.265625 13.820312 19.554688 13.28125 19.652344 13.03125 L 19.707031 12.890625 L 19.765625 12.984375 C 19.796875 13.035156 20.195312 13.808594 20.648438 14.699219 Z M 9.757812 16.210938 C 9.726562 16.238281 9.617188 16.273438 9.515625 16.296875 C 9.417969 16.316406 9.316406 16.339844 9.296875 16.34375 C 9.265625 16.355469 9.253906 16.554688 9.253906 17.207031 L 9.253906 18.0625 L 9.621094 18.078125 C 9.90625 18.089844 10.011719 18.105469 10.117188 18.160156 C 10.363281 18.289062 10.46875 18.523438 10.503906 19.015625 L 10.523438 19.300781 L 10.195312 19.300781 L 10.183594 18.917969 L 10.175781 18.539062 L 10.070312 18.53125 L 9.964844 18.519531 L 9.964844 19.300781 L 9.644531 19.300781 L 9.636719 18.917969 L 9.625 18.539062 L 9.523438 18.53125 L 9.417969 18.519531 L 9.417969 19.300781 L 7.90625 19.300781 L 7.886719 19.03125 C 7.824219 18.277344 7.59375 17.875 7.144531 17.730469 C 7.003906 17.691406 6.96875 17.664062 6.980469 17.621094 C 6.992188 17.59375 7.074219 17.375 7.167969 17.136719 C 7.335938 16.707031 7.335938 16.703125 7.464844 16.664062 C 7.664062 16.605469 7.964844 16.441406 8.144531 16.296875 L 8.304688 16.167969 L 9.0625 16.167969 C 9.726562 16.167969 9.8125 16.171875 9.757812 16.210938 Z M 12.835938 16.179688 C 12.835938 16.191406 12.777344 16.246094 12.707031 16.3125 C 12.417969 16.574219 12.230469 16.980469 12.199219 17.414062 L 12.179688 17.683594 L 12.996094 17.683594 L 12.996094 19.300781 L 10.941406 19.300781 L 10.921875 19.003906 C 10.859375 18.132812 10.550781 17.742188 9.871094 17.664062 L 9.675781 17.640625 L 9.675781 17.164062 C 9.675781 16.773438 9.683594 16.679688 9.71875 16.679688 C 9.800781 16.679688 10.332031 16.394531 10.464844 16.28125 L 10.59375 16.167969 L 11.714844 16.164062 C 12.332031 16.164062 12.835938 16.171875 12.835938 16.179688 Z M 24.558594 20.035156 C 24.523438 20.582031 24.445312 21.273438 24.363281 21.707031 C 23.742188 25.085938 21.6875 28.050781 18.722656 29.855469 C 18.230469 30.152344 17.292969 30.609375 16.769531 30.804688 C 14.433594 31.675781 11.957031 31.8125 9.5625 31.210938 C 7.480469 30.683594 5.558594 29.585938 4.015625 28.042969 C 1.898438 25.925781 0.636719 23.097656 0.492188 20.148438 L 0.472656 19.71875 L 24.574219 19.71875 Z M 24.558594 20.035156 "/>
<path style=" stroke:none;fill-rule:nonzero;fill:rgb(80.784314%,8.235294%,19.215686%);fill-opacity:1;" d="M 16.609375 7.660156 C 16.609375 7.71875 16.820312 7.929688 16.921875 7.972656 C 16.980469 7.996094 17.097656 8.015625 17.1875 8.015625 C 17.339844 8.015625 17.351562 8.019531 17.335938 8.089844 C 17.257812 8.417969 17.1875 8.984375 17.1875 9.289062 C 17.1875 9.679688 17.234375 9.929688 17.371094 10.261719 L 17.453125 10.472656 L 18.871094 10.472656 L 18.945312 10.300781 C 19.113281 9.929688 19.140625 9.773438 19.140625 9.292969 C 19.140625 8.96875 19.117188 8.730469 19.066406 8.445312 C 19.027344 8.234375 18.996094 8.046875 18.996094 8.035156 C 18.996094 8.027344 19.070312 8.015625 19.15625 8.015625 C 19.355469 8.015625 19.539062 7.929688 19.652344 7.78125 C 19.699219 7.71875 19.738281 7.660156 19.738281 7.652344 C 19.738281 7.640625 19.476562 7.628906 19.15625 7.628906 C 18.835938 7.628906 18.574219 7.640625 18.574219 7.65625 C 18.574219 7.671875 18.621094 7.949219 18.679688 8.277344 C 18.804688 9.019531 18.816406 9.597656 18.71875 9.910156 L 18.652344 10.101562 L 17.6875 10.101562 L 17.628906 9.925781 C 17.585938 9.800781 17.558594 9.628906 17.554688 9.375 C 17.539062 9.019531 17.574219 8.746094 17.753906 7.714844 L 17.769531 7.628906 L 17.1875 7.628906 C 16.835938 7.628906 16.609375 7.640625 16.609375 7.660156 Z M 16.609375 7.660156 "/>
<path style=" stroke:none;fill-rule:nonzero;fill:rgb(80.784314%,8.235294%,19.215686%);fill-opacity:1;" d="M 17.871094 9.5 C 17.832031 9.554688 17.800781 9.609375 17.800781 9.628906 C 17.800781 9.648438 17.886719 9.722656 17.984375 9.792969 L 18.167969 9.921875 L 18.296875 9.824219 C 18.578125 9.621094 18.558594 9.652344 18.480469 9.523438 C 18.410156 9.40625 18.410156 9.40625 18.171875 9.40625 C 17.945312 9.40625 17.929688 9.410156 17.871094 9.5 Z M 17.871094 9.5 "/>
<path style=" stroke:none;fill-rule:nonzero;fill:rgb(80.784314%,8.235294%,19.215686%);fill-opacity:1;" d="M 8.378906 21.207031 C 8.035156 21.238281 7.554688 21.316406 7.304688 21.378906 L 7.144531 21.421875 L 7.132812 25.050781 L 7.128906 28.679688 L 7.207031 28.660156 C 7.816406 28.507812 9.03125 28.433594 9.742188 28.507812 C 10.523438 28.589844 11.359375 28.796875 12.121094 29.097656 L 12.535156 29.257812 L 12.722656 29.171875 C 13.253906 28.941406 14.207031 28.667969 14.882812 28.5625 C 15.0625 28.53125 15.503906 28.5 15.875 28.492188 C 16.582031 28.472656 17.015625 28.503906 17.59375 28.613281 C 17.769531 28.644531 17.917969 28.675781 17.925781 28.675781 C 17.929688 28.675781 17.929688 27.046875 17.929688 25.054688 L 17.929688 21.4375 L 17.796875 21.398438 C 16.296875 20.992188 13.949219 21.1875 12.757812 21.816406 L 12.527344 21.933594 L 12.265625 21.800781 C 11.78125 21.554688 11.035156 21.351562 10.253906 21.253906 C 9.757812 21.195312 8.796875 21.167969 8.378906 21.207031 Z M 10.269531 21.675781 C 10.992188 21.773438 11.730469 21.976562 12.109375 22.191406 L 12.304688 22.296875 L 12.3125 25.507812 C 12.320312 28.550781 12.316406 28.714844 12.265625 28.691406 C 11.6875 28.464844 10.832031 28.234375 10.222656 28.140625 C 9.570312 28.039062 8.335938 28.039062 7.667969 28.148438 L 7.546875 28.167969 L 7.546875 24.964844 C 7.546875 22.160156 7.554688 21.757812 7.59375 21.742188 C 7.652344 21.722656 8.273438 21.632812 8.496094 21.613281 C 8.820312 21.589844 9.894531 21.625 10.269531 21.675781 Z M 17.042969 21.675781 C 17.222656 21.703125 17.398438 21.730469 17.441406 21.742188 L 17.511719 21.757812 L 17.511719 28.167969 L 17.359375 28.144531 C 16.820312 28.070312 16.496094 28.054688 15.851562 28.070312 C 15.117188 28.089844 14.785156 28.128906 14.125 28.273438 C 13.816406 28.339844 13.007812 28.597656 12.792969 28.6875 C 12.742188 28.714844 12.738281 28.554688 12.746094 25.503906 L 12.753906 22.292969 L 12.882812 22.21875 C 13.382812 21.933594 14.21875 21.722656 15.191406 21.628906 C 15.605469 21.589844 16.652344 21.613281 17.042969 21.675781 Z M 17.042969 21.675781 "/>
<path style=" stroke:none;fill-rule:nonzero;fill:rgb(80.784314%,8.235294%,19.215686%);fill-opacity:1;" d="M 8.335938 22.945312 L 8.144531 22.96875 L 8.132812 23.097656 L 8.125 23.226562 L 9.085938 23.226562 C 9.855469 23.226562 10.117188 23.242188 10.40625 23.285156 C 10.828125 23.351562 11.332031 23.472656 11.59375 23.5625 L 11.773438 23.628906 L 11.765625 23.476562 L 11.753906 23.328125 L 11.511719 23.25 C 11.210938 23.152344 10.753906 23.058594 10.320312 22.996094 C 9.957031 22.945312 8.652344 22.914062 8.335938 22.945312 Z M 8.335938 22.945312 "/>
<path style=" stroke:none;fill-rule:nonzero;fill:rgb(80.784314%,8.235294%,19.215686%);fill-opacity:1;" d="M 8.351562 24.113281 L 8.144531 24.132812 L 8.132812 24.261719 L 8.125 24.394531 L 8.890625 24.382812 C 9.953125 24.363281 10.753906 24.460938 11.488281 24.695312 L 11.769531 24.789062 L 11.769531 24.648438 C 11.769531 24.476562 11.777344 24.476562 11.230469 24.339844 C 10.609375 24.179688 10.058594 24.113281 9.273438 24.101562 C 8.882812 24.097656 8.46875 24.101562 8.351562 24.113281 Z M 8.351562 24.113281 "/>
<path style=" stroke:none;fill-rule:nonzero;fill:rgb(80.784314%,8.235294%,19.215686%);fill-opacity:1;" d="M 8.433594 25.269531 C 8.144531 25.289062 8.128906 25.300781 8.128906 25.4375 L 8.128906 25.5625 L 8.878906 25.546875 C 9.921875 25.527344 10.773438 25.628906 11.523438 25.871094 L 11.773438 25.953125 L 11.765625 25.804688 L 11.753906 25.652344 L 11.398438 25.546875 C 10.566406 25.3125 9.421875 25.207031 8.433594 25.269531 Z M 8.433594 25.269531 "/>
<path style=" stroke:none;fill-rule:nonzero;fill:rgb(80.784314%,8.235294%,19.215686%);fill-opacity:1;" d="M 8.496094 26.429688 C 8.144531 26.460938 8.128906 26.464844 8.128906 26.597656 L 8.128906 26.71875 L 9.050781 26.71875 C 9.789062 26.71875 10.058594 26.730469 10.351562 26.777344 C 10.773438 26.839844 11.347656 26.972656 11.605469 27.0625 L 11.773438 27.121094 L 11.765625 26.972656 L 11.753906 26.820312 L 11.511719 26.746094 C 11.191406 26.644531 10.742188 26.554688 10.273438 26.492188 C 9.898438 26.441406 8.828125 26.40625 8.496094 26.429688 Z M 8.496094 26.429688 "/>
<path style=" stroke:none;fill-rule:nonzero;fill:rgb(80.784314%,8.235294%,19.215686%);fill-opacity:1;" d="M 15.222656 22.941406 C 14.6875 22.980469 13.65625 23.183594 13.34375 23.304688 C 13.265625 23.335938 13.253906 23.355469 13.253906 23.484375 L 13.253906 23.625 L 13.539062 23.535156 C 14.285156 23.296875 15.074219 23.199219 16.152344 23.21875 L 16.933594 23.230469 L 16.925781 23.097656 L 16.914062 22.96875 L 16.707031 22.949219 C 16.488281 22.925781 15.480469 22.921875 15.222656 22.941406 Z M 15.222656 22.941406 "/>
<path style=" stroke:none;fill-rule:nonzero;fill:rgb(80.784314%,8.235294%,19.215686%);fill-opacity:1;" d="M 15.09375 24.121094 C 14.601562 24.167969 14.011719 24.273438 13.628906 24.382812 L 13.269531 24.488281 L 13.261719 24.640625 L 13.25 24.789062 L 13.546875 24.699219 C 13.832031 24.609375 14.253906 24.515625 14.753906 24.433594 C 14.925781 24.402344 15.339844 24.390625 15.972656 24.390625 L 16.929688 24.390625 L 16.929688 24.273438 C 16.929688 24.191406 16.914062 24.148438 16.875 24.132812 C 16.78125 24.097656 15.425781 24.085938 15.09375 24.121094 Z M 15.09375 24.121094 "/>
<path style=" stroke:none;fill-rule:nonzero;fill:rgb(80.784314%,8.235294%,19.215686%);fill-opacity:1;" d="M 15.140625 25.285156 C 14.664062 25.328125 14.082031 25.433594 13.652344 25.546875 L 13.269531 25.652344 L 13.261719 25.808594 C 13.25 25.953125 13.257812 25.964844 13.308594 25.941406 C 13.457031 25.878906 14.042969 25.726562 14.355469 25.667969 C 14.933594 25.566406 15.46875 25.527344 16.226562 25.546875 L 16.929688 25.5625 L 16.929688 25.441406 C 16.929688 25.34375 16.917969 25.316406 16.859375 25.300781 C 16.734375 25.265625 15.480469 25.25 15.140625 25.285156 Z M 15.140625 25.285156 "/>
<path style=" stroke:none;fill-rule:nonzero;fill:rgb(80.784314%,8.235294%,19.215686%);fill-opacity:1;" d="M 15.351562 26.429688 C 14.601562 26.496094 13.972656 26.605469 13.515625 26.75 L 13.253906 26.835938 L 13.253906 26.984375 C 13.253906 27.089844 13.265625 27.125 13.296875 27.113281 C 14.042969 26.824219 15.039062 26.6875 16.183594 26.710938 L 16.929688 26.726562 L 16.929688 26.605469 C 16.929688 26.503906 16.917969 26.480469 16.859375 26.464844 C 16.769531 26.4375 15.558594 26.410156 15.351562 26.429688 Z M 15.351562 26.429688 "/>
<path style=" stroke:none;fill-rule:nonzero;fill:rgb(80.784314%,8.235294%,19.215686%);fill-opacity:1;" d="M 21.964844 22.035156 C 21.121094 22.214844 20.667969 22.832031 20.714844 23.746094 C 20.746094 24.414062 21.109375 24.796875 21.664062 24.757812 C 22.15625 24.722656 22.414062 24.441406 22.441406 23.921875 C 22.453125 23.667969 22.445312 23.632812 22.359375 23.46875 C 22.226562 23.21875 22.03125 23.101562 21.742188 23.101562 C 21.480469 23.101562 21.316406 23.152344 21.167969 23.28125 C 21.042969 23.390625 21.039062 23.386719 21.109375 23.144531 C 21.238281 22.695312 21.578125 22.417969 22.164062 22.292969 C 22.238281 22.277344 22.253906 22.253906 22.253906 22.179688 C 22.253906 22.074219 22.222656 21.984375 22.191406 21.984375 C 22.179688 21.984375 22.078125 22.007812 21.964844 22.035156 Z M 21.867188 23.460938 C 22.164062 23.632812 22.160156 24.246094 21.867188 24.421875 C 21.738281 24.496094 21.488281 24.488281 21.355469 24.40625 C 21.226562 24.328125 21.125 24.121094 21.125 23.9375 C 21.125 23.757812 21.226562 23.546875 21.355469 23.46875 C 21.492188 23.390625 21.738281 23.382812 21.867188 23.460938 Z M 21.867188 23.460938 "/>
<path style=" stroke:none;fill-rule:nonzero;fill:rgb(80.784314%,8.235294%,19.215686%);fill-opacity:1;" d="M 4.890625 22.066406 C 4.6875 22.132812 4.476562 22.339844 4.410156 22.546875 C 4.300781 22.863281 4.359375 23.28125 4.539062 23.480469 C 4.78125 23.746094 5.335938 23.75 5.628906 23.496094 L 5.742188 23.394531 L 5.722656 23.488281 C 5.601562 24.03125 5.316406 24.324219 4.761719 24.460938 C 4.554688 24.511719 4.546875 24.515625 4.546875 24.613281 C 4.546875 24.777344 4.578125 24.796875 4.761719 24.765625 C 5.195312 24.683594 5.554688 24.484375 5.769531 24.214844 C 6.183594 23.691406 6.203125 22.679688 5.8125 22.265625 C 5.605469 22.042969 5.214844 21.964844 4.890625 22.066406 Z M 5.445312 22.371094 C 5.59375 22.464844 5.6875 22.683594 5.667969 22.910156 C 5.648438 23.1875 5.46875 23.371094 5.222656 23.382812 C 4.890625 23.394531 4.726562 23.214844 4.726562 22.839844 C 4.726562 22.582031 4.777344 22.472656 4.945312 22.371094 C 5.078125 22.285156 5.304688 22.285156 5.445312 22.371094 Z M 5.445312 22.371094 "/>
<path style=" stroke:none;fill-rule:nonzero;fill:rgb(80.784314%,8.235294%,19.215686%);fill-opacity:1;" d="M 3.007812 22.15625 C 2.566406 22.261719 2.542969 22.273438 2.597656 22.414062 C 2.617188 22.453125 2.652344 22.464844 2.738281 22.453125 C 2.800781 22.445312 2.929688 22.429688 3.023438 22.417969 L 3.191406 22.398438 L 3.191406 24.472656 L 2.675781 24.472656 L 2.675781 24.730469 L 4 24.730469 L 4 24.472656 L 3.578125 24.472656 L 3.578125 22.046875 L 3.507812 22.050781 C 3.46875 22.054688 3.242188 22.097656 3.007812 22.15625 Z M 3.007812 22.15625 "/>
<path style=" stroke:none;fill-rule:nonzero;fill:rgb(80.784314%,8.235294%,19.215686%);fill-opacity:1;" d="M 19.351562 22.152344 C 19.113281 22.207031 18.90625 22.253906 18.90625 22.261719 C 18.898438 22.265625 18.902344 22.3125 18.914062 22.367188 C 18.933594 22.460938 18.945312 22.46875 19.054688 22.453125 C 19.117188 22.445312 19.25 22.429688 19.34375 22.417969 L 19.511719 22.398438 L 19.511719 24.472656 L 18.996094 24.472656 L 18.996094 24.730469 L 20.316406 24.730469 L 20.316406 24.472656 L 19.898438 24.472656 L 19.898438 23.257812 C 19.898438 22.125 19.894531 22.046875 19.84375 22.050781 C 19.8125 22.050781 19.589844 22.097656 19.351562 22.152344 Z M 19.351562 22.152344 "/>
<path style=" stroke:none;fill-rule:nonzero;fill:rgb(80.784314%,8.235294%,19.215686%);fill-opacity:1;" d="M 91.605469 12.578125 C 91.019531 12.660156 90.367188 12.941406 89.945312 13.296875 C 89.363281 13.789062 88.957031 14.492188 88.765625 15.339844 C 88.683594 15.703125 88.671875 16.433594 88.734375 16.875 C 89.027344 18.871094 90.523438 19.980469 92.671875 19.789062 C 93.078125 19.75 93.492188 19.675781 93.839844 19.574219 L 94.007812 19.523438 L 94.007812 17.714844 L 93.339844 17.714844 L 93.300781 18.351562 C 93.277344 18.753906 93.246094 19.003906 93.226562 19.015625 C 93.042969 19.128906 91.945312 19.160156 91.589844 19.0625 C 91.097656 18.929688 90.640625 18.617188 90.339844 18.214844 C 89.300781 16.828125 89.566406 14.449219 90.855469 13.589844 C 90.980469 13.507812 91.207031 13.398438 91.355469 13.339844 C 91.859375 13.171875 92.554688 13.191406 93.0625 13.390625 C 93.246094 13.464844 93.25 13.46875 93.269531 13.613281 C 93.28125 13.695312 93.300781 13.980469 93.316406 14.253906 L 93.339844 14.742188 L 94.007812 14.742188 L 94.003906 13.847656 L 93.992188 12.945312 L 93.878906 12.890625 C 93.710938 12.808594 93.285156 12.683594 92.984375 12.628906 C 92.644531 12.5625 91.902344 12.535156 91.605469 12.578125 Z M 91.605469 12.578125 "/>
<path style=" stroke:none;fill-rule:nonzero;fill:rgb(80.784314%,8.235294%,19.215686%);fill-opacity:1;" d="M 35.089844 12.996094 L 35.089844 13.285156 L 35.492188 13.292969 L 35.898438 13.304688 L 36.945312 15.515625 C 37.523438 16.734375 38.046875 17.839844 38.101562 17.964844 L 38.214844 18.199219 L 38.085938 18.390625 C 37.84375 18.757812 37.46875 18.929688 36.957031 18.90625 L 36.667969 18.894531 L 36.667969 19.289062 C 36.667969 19.738281 36.644531 19.707031 37.007812 19.753906 C 37.59375 19.824219 38.113281 19.558594 38.5 18.984375 C 38.761719 18.597656 38.84375 18.417969 40.792969 13.738281 L 40.976562 13.304688 L 41.371094 13.292969 L 41.765625 13.285156 L 41.765625 12.703125 L 39.410156 12.703125 L 39.410156 13.285156 L 39.796875 13.285156 C 40.085938 13.285156 40.183594 13.296875 40.183594 13.328125 C 40.183594 13.351562 39.886719 14.128906 39.527344 15.066406 C 39.167969 16 38.839844 16.863281 38.796875 16.988281 C 38.757812 17.109375 38.714844 17.222656 38.699219 17.242188 C 38.691406 17.253906 38.621094 17.101562 38.546875 16.898438 C 38.472656 16.695312 38.09375 15.816406 37.699219 14.9375 C 37.308594 14.0625 36.992188 13.332031 36.992188 13.316406 C 36.992188 13.300781 37.160156 13.285156 37.378906 13.285156 L 37.765625 13.285156 L 37.765625 12.703125 L 35.089844 12.703125 Z M 35.089844 12.996094 "/>
<path style=" stroke:none;fill-rule:nonzero;fill:rgb(80.784314%,8.235294%,19.215686%);fill-opacity:1;" d="M 44.214844 12.996094 L 44.214844 13.285156 L 45.019531 13.285156 L 45.019531 19.074219 L 44.214844 19.074219 L 44.214844 19.65625 L 46.792969 19.65625 L 46.792969 19.074219 L 45.988281 19.074219 L 45.988281 16.390625 L 49.503906 16.390625 L 49.503906 19.074219 L 48.730469 19.074219 L 48.730469 19.65625 L 51.277344 19.65625 L 51.277344 19.078125 L 50.882812 19.066406 L 50.488281 19.058594 L 50.488281 13.304688 L 50.882812 13.292969 L 51.277344 13.285156 L 51.277344 12.703125 L 48.730469 12.703125 L 48.730469 13.285156 L 49.503906 13.285156 L 49.503906 15.777344 L 45.988281 15.777344 L 45.988281 13.285156 L 46.792969 13.285156 L 46.792969 12.703125 L 44.214844 12.703125 Z M 44.214844 12.996094 "/>
<path style=" stroke:none;fill-rule:nonzero;fill:rgb(80.784314%,8.235294%,19.215686%);fill-opacity:1;" d="M 54.277344 12.996094 L 54.277344 13.285156 L 54.671875 13.292969 L 55.066406 13.304688 L 55.066406 19.058594 L 54.671875 19.066406 L 54.277344 19.078125 L 54.277344 19.65625 L 55.171875 19.648438 L 56.0625 19.640625 L 57.75 16.890625 C 58.675781 15.378906 59.472656 14.054688 59.519531 13.949219 C 59.621094 13.726562 59.648438 13.753906 59.601562 14.015625 C 59.578125 14.140625 59.566406 15.058594 59.566406 16.640625 L 59.566406 19.074219 L 58.757812 19.074219 L 58.757812 19.65625 L 61.339844 19.65625 L 61.339844 19.074219 L 60.535156 19.074219 L 60.535156 13.285156 L 61.339844 13.285156 L 61.339844 12.703125 L 59.550781 12.703125 L 57.9375 15.324219 C 57.050781 16.765625 56.246094 18.085938 56.152344 18.257812 C 55.988281 18.558594 55.984375 18.566406 56.003906 18.425781 C 56.015625 18.347656 56.03125 17.15625 56.039062 15.78125 L 56.054688 13.285156 L 56.824219 13.285156 L 56.824219 12.703125 L 54.277344 12.703125 Z M 54.277344 12.996094 "/>
<path style=" stroke:none;fill-rule:nonzero;fill:rgb(80.784314%,8.235294%,19.215686%);fill-opacity:1;" d="M 64.339844 12.992188 L 64.339844 13.285156 L 65.113281 13.285156 L 65.113281 19.074219 L 64.339844 19.074219 L 64.339844 19.65625 L 65.914062 19.65625 C 67.644531 19.65625 67.816406 19.640625 68.324219 19.457031 C 68.957031 19.226562 69.382812 18.796875 69.542969 18.234375 C 69.816406 17.261719 69.359375 16.414062 68.402344 16.117188 C 68.304688 16.085938 68.203125 16.054688 68.175781 16.046875 C 68.152344 16.039062 68.246094 15.972656 68.394531 15.902344 C 68.757812 15.726562 69.007812 15.476562 69.167969 15.140625 C 69.277344 14.910156 69.289062 14.859375 69.296875 14.558594 C 69.320312 13.992188 69.207031 13.664062 68.855469 13.316406 C 68.613281 13.074219 68.3125 12.910156 67.902344 12.796875 C 67.652344 12.726562 67.578125 12.722656 65.992188 12.710938 L 64.339844 12.703125 Z M 67.234375 13.320312 C 67.632812 13.371094 67.835938 13.457031 68.050781 13.671875 C 68.257812 13.878906 68.328125 14.054688 68.359375 14.40625 C 68.398438 14.890625 68.195312 15.390625 67.871094 15.609375 L 67.714844 15.710938 L 66.113281 15.710938 L 66.113281 13.285156 L 66.542969 13.285156 C 66.777344 13.285156 67.089844 13.304688 67.234375 13.320312 Z M 67.570312 16.359375 C 68.300781 16.515625 68.714844 17.121094 68.625 17.894531 C 68.558594 18.429688 68.15625 18.867188 67.59375 19.007812 C 67.515625 19.03125 67.152344 19.054688 66.785156 19.0625 L 66.113281 19.078125 L 66.113281 16.324219 L 66.757812 16.324219 C 67.109375 16.324219 67.476562 16.339844 67.570312 16.359375 Z M 67.570312 16.359375 "/>
<path style=" stroke:none;fill-rule:nonzero;fill:rgb(80.784314%,8.235294%,19.215686%);fill-opacity:1;" d="M 72.5625 12.996094 L 72.5625 13.285156 L 73.367188 13.285156 L 73.367188 19.074219 L 72.5625 19.074219 L 72.5625 19.65625 L 77.5625 19.65625 L 77.5625 17.878906 L 77.238281 17.878906 C 77.003906 17.878906 76.917969 17.886719 76.917969 17.914062 C 76.917969 17.9375 76.894531 18.195312 76.867188 18.492188 C 76.84375 18.785156 76.820312 19.035156 76.820312 19.046875 C 76.820312 19.0625 76.261719 19.074219 75.578125 19.074219 L 74.335938 19.074219 L 74.335938 16.445312 L 75.121094 16.46875 C 75.550781 16.476562 76.066406 16.496094 76.265625 16.507812 L 76.625 16.527344 L 76.625 15.742188 L 76.378906 15.757812 C 76.238281 15.765625 75.894531 15.78125 75.609375 15.792969 C 75.328125 15.800781 74.921875 15.816406 74.71875 15.828125 L 74.335938 15.851562 L 74.335938 13.285156 L 75.578125 13.285156 C 76.261719 13.285156 76.820312 13.296875 76.820312 13.308594 C 76.820312 13.324219 76.84375 13.574219 76.867188 13.867188 C 76.894531 14.164062 76.917969 14.421875 76.917969 14.441406 C 76.917969 14.472656 77.003906 14.484375 77.238281 14.484375 L 77.5625 14.484375 L 77.5625 12.703125 L 72.5625 12.703125 Z M 72.5625 12.996094 "/>
<path style=" stroke:none;fill-rule:nonzero;fill:rgb(80.784314%,8.235294%,19.215686%);fill-opacity:1;" d="M 80.558594 12.992188 L 80.558594 13.285156 L 81.367188 13.285156 L 81.367188 19.074219 L 80.558594 19.074219 L 80.558594 19.65625 L 83.335938 19.65625 L 83.335938 19.074219 L 82.335938 19.074219 L 82.335938 17.011719 L 83.132812 16.996094 C 83.816406 16.980469 83.96875 16.96875 84.203125 16.910156 C 85.042969 16.695312 85.628906 16.144531 85.804688 15.402344 C 85.875 15.105469 85.875 14.535156 85.804688 14.257812 C 85.621094 13.523438 85.128906 13.054688 84.296875 12.8125 L 83.996094 12.722656 L 82.28125 12.710938 L 80.558594 12.703125 Z M 83.734375 13.367188 C 84.128906 13.476562 84.445312 13.6875 84.621094 13.960938 C 85.023438 14.59375 84.933594 15.507812 84.414062 16 C 84.0625 16.335938 83.742188 16.417969 82.84375 16.421875 L 82.335938 16.421875 L 82.335938 13.277344 L 82.941406 13.296875 C 83.351562 13.308594 83.605469 13.332031 83.734375 13.367188 Z M 83.734375 13.367188 "/>
<path style=" stroke:none;fill-rule:nonzero;fill:rgb(80.784314%,8.235294%,19.215686%);fill-opacity:1;" d="M 97.074219 12.996094 L 97.074219 13.285156 L 97.878906 13.285156 L 97.878906 19.074219 L 97.074219 19.074219 L 97.074219 19.65625 L 98.867188 19.65625 L 100.507812 16.976562 C 101.410156 15.507812 102.207031 14.195312 102.273438 14.0625 C 102.34375 13.929688 102.417969 13.8125 102.433594 13.808594 C 102.453125 13.800781 102.457031 13.816406 102.445312 13.855469 C 102.378906 14.015625 102.363281 14.675781 102.363281 16.785156 L 102.363281 19.074219 L 101.585938 19.074219 L 101.585938 19.65625 L 104.136719 19.65625 L 104.136719 19.074219 L 103.359375 19.074219 L 103.359375 13.285156 L 104.136719 13.285156 L 104.136719 12.703125 L 103.246094 12.710938 L 102.355469 12.722656 L 100.714844 15.382812 C 99.8125 16.847656 99.015625 18.164062 98.941406 18.304688 C 98.808594 18.5625 98.757812 18.625 98.796875 18.464844 C 98.8125 18.417969 98.832031 17.238281 98.84375 15.839844 L 98.863281 13.304688 L 99.257812 13.292969 L 99.652344 13.285156 L 99.652344 12.703125 L 97.074219 12.703125 Z M 97.074219 12.996094 "/>
<path style=" stroke:none;fill-rule:nonzero;fill:rgb(80.784314%,8.235294%,19.215686%);fill-opacity:1;" d="M 106.875 13.59375 L 106.875 14.484375 L 107.539062 14.484375 L 107.589844 13.90625 L 107.632812 13.335938 L 108.464844 13.324219 L 109.296875 13.320312 L 109.296875 19.074219 L 108.425781 19.074219 L 108.425781 19.65625 L 111.164062 19.65625 L 111.164062 19.074219 L 110.296875 19.074219 L 110.296875 13.320312 L 111.960938 13.320312 L 112.046875 14.484375 L 112.714844 14.484375 L 112.714844 12.703125 L 106.875 12.703125 Z M 106.875 13.59375 "/>
<path style=" stroke:none;fill-rule:nonzero;fill:rgb(80.784314%,8.235294%,19.215686%);fill-opacity:1;" d="M 115.453125 12.996094 L 115.453125 13.285156 L 116.230469 13.285156 L 116.230469 19.074219 L 115.453125 19.074219 L 115.453125 19.65625 L 120.421875 19.65625 L 120.421875 17.878906 L 119.785156 17.878906 L 119.746094 18.417969 C 119.726562 18.71875 119.699219 18.984375 119.691406 19.015625 C 119.675781 19.070312 119.589844 19.074219 118.449219 19.074219 L 117.230469 19.074219 L 117.230469 16.445312 L 118.011719 16.46875 C 118.441406 16.476562 118.949219 16.496094 119.140625 16.507812 L 119.484375 16.527344 L 119.484375 15.738281 L 119.253906 15.757812 C 119.125 15.765625 118.78125 15.78125 118.488281 15.792969 C 118.191406 15.800781 117.789062 15.816406 117.59375 15.828125 L 117.230469 15.847656 L 117.230469 13.285156 L 118.449219 13.285156 C 119.589844 13.285156 119.675781 13.289062 119.691406 13.339844 C 119.699219 13.375 119.726562 13.640625 119.746094 13.941406 L 119.785156 14.484375 L 120.421875 14.484375 L 120.421875 12.703125 L 115.453125 12.703125 Z M 115.453125 12.996094 "/>
<path style=" stroke:none;fill-rule:nonzero;fill:rgb(80.784314%,8.235294%,19.215686%);fill-opacity:1;" d="M 123.195312 13.59375 L 123.195312 14.484375 L 123.515625 14.484375 C 123.753906 14.484375 123.839844 14.472656 123.839844 14.441406 C 123.839844 14.421875 123.863281 14.164062 123.886719 13.867188 C 123.914062 13.574219 123.9375 13.332031 123.9375 13.324219 C 123.9375 13.320312 124.3125 13.320312 124.773438 13.320312 L 125.613281 13.320312 L 125.613281 19.074219 L 124.710938 19.074219 L 124.710938 19.65625 L 127.484375 19.65625 L 127.484375 19.074219 L 126.582031 19.074219 L 126.582031 13.320312 L 127.417969 13.320312 C 128.066406 13.320312 128.257812 13.328125 128.257812 13.359375 C 128.257812 13.378906 128.28125 13.640625 128.304688 13.933594 C 128.332031 14.226562 128.355469 14.46875 128.355469 14.472656 C 128.355469 14.480469 128.5 14.484375 128.675781 14.484375 L 129 14.484375 L 129 12.703125 L 123.195312 12.703125 Z M 123.195312 13.59375 "/>
<path style=" stroke:none;fill-rule:nonzero;fill:rgb(80.784314%,8.235294%,19.215686%);fill-opacity:1;" d="M 69.191406 24.796875 C 69.140625 24.816406 68.871094 24.855469 68.597656 24.890625 C 67.972656 24.976562 67.6875 25.054688 67.363281 25.222656 C 66.664062 25.585938 66.339844 26.222656 66.238281 27.4375 C 66.148438 28.527344 66.308594 29.28125 66.734375 29.734375 C 67.015625 30.027344 67.351562 30.160156 67.820312 30.160156 C 68.707031 30.160156 69.308594 29.703125 69.519531 28.867188 C 69.597656 28.558594 69.589844 28.007812 69.503906 27.734375 C 69.421875 27.476562 69.21875 27.160156 69.054688 27.03125 C 68.492188 26.585938 67.605469 26.566406 67.058594 26.984375 C 66.992188 27.03125 66.882812 27.144531 66.8125 27.234375 L 66.683594 27.398438 L 66.707031 27.21875 C 66.738281 26.964844 66.898438 26.503906 67.023438 26.304688 C 67.339844 25.8125 67.71875 25.640625 68.789062 25.492188 C 69.285156 25.425781 69.410156 25.390625 69.390625 25.320312 C 69.378906 25.289062 69.363281 25.15625 69.351562 25.027344 C 69.335938 24.898438 69.320312 24.789062 69.308594 24.78125 C 69.296875 24.777344 69.246094 24.785156 69.191406 24.796875 Z M 68.335938 27.308594 C 68.65625 27.472656 68.828125 27.78125 68.890625 28.3125 C 68.976562 29.070312 68.621094 29.625 68.019531 29.671875 C 67.398438 29.710938 67.011719 29.34375 66.914062 28.617188 C 66.84375 28.085938 66.964844 27.679688 67.269531 27.410156 C 67.457031 27.242188 67.648438 27.183594 67.933594 27.203125 C 68.097656 27.214844 68.207031 27.242188 68.335938 27.308594 Z M 68.335938 27.308594 "/>
<path style=" stroke:none;fill-rule:nonzero;fill:rgb(80.784314%,8.235294%,19.215686%);fill-opacity:1;" d="M 35.320312 25.171875 C 35.109375 25.1875 35.085938 25.191406 35.105469 25.242188 C 35.125 25.269531 35.140625 26.375 35.144531 27.695312 L 35.160156 30.097656 L 35.847656 30.097656 L 35.835938 28.964844 L 35.828125 27.832031 L 36.042969 27.839844 L 36.261719 27.851562 L 37.941406 30.125 L 38.105469 30.128906 C 38.195312 30.128906 38.378906 30.121094 38.515625 30.109375 L 38.761719 30.085938 L 38.648438 29.953125 C 38.582031 29.878906 38.148438 29.3125 37.679688 28.683594 L 36.828125 27.546875 L 37.195312 27.085938 C 37.394531 26.828125 37.644531 26.503906 37.75 26.363281 C 38.066406 25.949219 38.507812 25.265625 38.507812 25.207031 C 38.507812 25.191406 38.347656 25.183594 38.15625 25.183594 C 37.839844 25.183594 37.800781 25.191406 37.78125 25.246094 C 37.746094 25.359375 37.234375 26.117188 36.789062 26.710938 L 36.332031 27.316406 L 35.828125 27.316406 L 35.828125 25.152344 L 35.695312 25.15625 C 35.617188 25.160156 35.449219 25.171875 35.320312 25.171875 Z M 35.320312 25.171875 "/>
<path style=" stroke:none;fill-rule:nonzero;fill:rgb(80.784314%,8.235294%,19.215686%);fill-opacity:1;" d="M 43.695312 26.589844 C 43.578125 26.613281 43.398438 26.667969 43.292969 26.710938 L 43.101562 26.785156 L 43.09375 27.035156 C 43.085938 27.171875 43.09375 27.285156 43.113281 27.285156 C 43.128906 27.285156 43.207031 27.261719 43.28125 27.234375 C 43.640625 27.101562 44.222656 27.050781 44.480469 27.121094 C 44.625 27.164062 44.777344 27.289062 44.851562 27.421875 C 44.878906 27.484375 44.90625 27.640625 44.917969 27.808594 L 44.933594 28.09375 L 44.839844 28.09375 C 44.585938 28.097656 43.960938 28.164062 43.785156 28.210938 C 43.355469 28.320312 43.015625 28.585938 42.910156 28.890625 C 42.84375 29.085938 42.847656 29.398438 42.914062 29.597656 C 42.988281 29.816406 43.210938 30.03125 43.4375 30.105469 C 43.855469 30.238281 44.410156 30.136719 44.785156 29.851562 C 44.839844 29.808594 44.898438 29.773438 44.914062 29.773438 C 44.925781 29.773438 44.96875 29.828125 45.003906 29.894531 C 45.105469 30.074219 45.214844 30.140625 45.457031 30.15625 C 45.632812 30.167969 45.691406 30.15625 45.84375 30.082031 L 46.019531 29.996094 L 46.019531 29.484375 L 45.917969 29.546875 C 45.796875 29.617188 45.617188 29.632812 45.578125 29.570312 C 45.566406 29.550781 45.554688 29.035156 45.554688 28.433594 C 45.554688 27.15625 45.550781 27.128906 45.261719 26.839844 C 45.03125 26.609375 44.796875 26.539062 44.28125 26.542969 C 44.074219 26.542969 43.8125 26.566406 43.695312 26.589844 Z M 44.902344 28.890625 C 44.894531 29.121094 44.882812 29.324219 44.871094 29.347656 C 44.851562 29.417969 44.453125 29.582031 44.222656 29.617188 C 43.949219 29.660156 43.757812 29.617188 43.632812 29.476562 C 43.371094 29.203125 43.539062 28.765625 43.957031 28.625 C 44.175781 28.550781 44.542969 28.488281 44.75 28.484375 L 44.917969 28.480469 Z M 44.902344 28.890625 "/>
<path style=" stroke:none;fill-rule:nonzero;fill:rgb(80.784314%,8.235294%,19.215686%);fill-opacity:1;" d="M 47.746094 26.597656 C 47.109375 26.820312 46.691406 27.394531 46.59375 28.191406 C 46.472656 29.171875 46.949219 29.945312 47.789062 30.125 C 48.175781 30.207031 48.8125 30.140625 49.113281 29.984375 C 49.214844 29.933594 49.214844 29.929688 49.214844 29.679688 L 49.214844 29.429688 L 49.03125 29.488281 C 47.917969 29.867188 47.195312 29.328125 47.253906 28.160156 C 47.277344 27.671875 47.421875 27.371094 47.71875 27.199219 C 47.929688 27.074219 48.230469 27.0625 48.667969 27.152344 C 48.851562 27.191406 49.035156 27.230469 49.074219 27.234375 C 49.140625 27.253906 49.144531 27.234375 49.164062 27.066406 C 49.175781 26.964844 49.1875 26.835938 49.195312 26.78125 L 49.207031 26.679688 L 48.84375 26.609375 C 48.394531 26.523438 47.972656 26.523438 47.746094 26.597656 Z M 47.746094 26.597656 "/>
<path style=" stroke:none;fill-rule:nonzero;fill:rgb(80.784314%,8.235294%,19.215686%);fill-opacity:1;" d="M 51.035156 26.585938 C 50.332031 26.808594 49.882812 27.460938 49.835938 28.335938 C 49.789062 29.257812 50.226562 29.933594 50.992188 30.113281 C 51.402344 30.210938 52.054688 30.148438 52.371094 29.984375 C 52.472656 29.933594 52.472656 29.933594 52.472656 29.675781 L 52.472656 29.417969 L 52.355469 29.464844 C 52.195312 29.53125 51.792969 29.613281 51.621094 29.613281 C 51.085938 29.613281 50.726562 29.332031 50.566406 28.796875 C 50.507812 28.605469 50.496094 28.511719 50.511719 28.195312 C 50.519531 27.871094 50.535156 27.792969 50.613281 27.625 C 50.722656 27.382812 50.828125 27.265625 51.035156 27.167969 C 51.25 27.066406 51.507812 27.066406 52.003906 27.171875 C 52.210938 27.214844 52.390625 27.246094 52.394531 27.242188 C 52.398438 27.238281 52.414062 27.109375 52.425781 26.957031 L 52.445312 26.679688 L 52.082031 26.613281 C 51.671875 26.535156 51.234375 26.523438 51.035156 26.585938 Z M 51.035156 26.585938 "/>
<path style=" stroke:none;fill-rule:nonzero;fill:rgb(80.784314%,8.235294%,19.215686%);fill-opacity:1;" d="M 61.554688 26.59375 C 61.433594 26.617188 61.253906 26.671875 61.160156 26.707031 L 60.984375 26.769531 L 60.984375 27.03125 C 60.984375 27.265625 60.992188 27.289062 61.042969 27.273438 C 61.386719 27.160156 61.597656 27.117188 61.863281 27.101562 C 62.535156 27.058594 62.761719 27.234375 62.808594 27.824219 L 62.832031 28.085938 L 62.480469 28.109375 C 61.398438 28.171875 60.941406 28.410156 60.773438 28.976562 C 60.644531 29.429688 60.839844 29.890625 61.242188 30.078125 C 61.363281 30.132812 61.453125 30.144531 61.726562 30.144531 C 62.125 30.144531 62.308594 30.09375 62.609375 29.890625 L 62.8125 29.753906 L 62.886719 29.894531 C 63.042969 30.1875 63.503906 30.253906 63.832031 30.027344 C 63.914062 29.96875 63.917969 29.949219 63.917969 29.722656 L 63.917969 29.484375 L 63.800781 29.546875 C 63.660156 29.625 63.523438 29.632812 63.46875 29.566406 C 63.4375 29.53125 63.433594 29.246094 63.4375 28.457031 C 63.449219 27.441406 63.449219 27.390625 63.382812 27.210938 C 63.277344 26.9375 63.144531 26.785156 62.894531 26.664062 C 62.683594 26.558594 62.667969 26.558594 62.226562 26.550781 C 61.921875 26.542969 61.703125 26.558594 61.554688 26.59375 Z M 62.785156 28.921875 L 62.773438 29.371094 L 62.566406 29.472656 C 62.132812 29.691406 61.714844 29.6875 61.511719 29.464844 C 61.414062 29.367188 61.402344 29.335938 61.402344 29.160156 C 61.402344 28.980469 61.414062 28.957031 61.515625 28.839844 C 61.578125 28.773438 61.699219 28.683594 61.789062 28.644531 C 61.976562 28.566406 62.378906 28.488281 62.625 28.484375 L 62.792969 28.480469 Z M 62.785156 28.921875 "/>
<path style=" stroke:none;fill-rule:nonzero;fill:rgb(80.784314%,8.235294%,19.215686%);fill-opacity:1;" d="M 88.199219 26.601562 C 87.453125 26.839844 87.042969 27.484375 87.035156 28.433594 C 87.03125 29.277344 87.363281 29.8125 88.0625 30.070312 C 88.222656 30.128906 88.324219 30.140625 88.734375 30.140625 C 89.230469 30.144531 89.398438 30.121094 89.746094 29.992188 L 89.914062 29.933594 L 89.914062 29.671875 C 89.914062 29.4375 89.90625 29.414062 89.859375 29.433594 C 89.445312 29.597656 88.753906 29.648438 88.4375 29.539062 C 88.023438 29.390625 87.773438 29.054688 87.699219 28.535156 L 87.679688 28.382812 L 90.101562 28.382812 L 90.125 28.265625 C 90.160156 28.082031 90.117188 27.609375 90.046875 27.410156 C 89.898438 26.984375 89.621094 26.714844 89.207031 26.59375 C 88.964844 26.523438 88.4375 26.523438 88.199219 26.601562 Z M 89.074219 27.101562 C 89.257812 27.195312 89.386719 27.398438 89.433594 27.664062 C 89.453125 27.777344 89.464844 27.871094 89.457031 27.878906 C 89.453125 27.886719 89.054688 27.898438 88.582031 27.90625 L 87.714844 27.921875 L 87.734375 27.808594 C 87.78125 27.570312 87.953125 27.300781 88.144531 27.164062 C 88.410156 26.984375 88.789062 26.953125 89.074219 27.101562 Z M 89.074219 27.101562 "/>
<path style=" stroke:none;fill-rule:nonzero;fill:rgb(80.784314%,8.235294%,19.215686%);fill-opacity:1;" d="M 94.832031 26.601562 C 94.238281 26.773438 93.808594 27.257812 93.671875 27.914062 C 93.609375 28.210938 93.609375 28.769531 93.671875 29.007812 C 93.875 29.792969 94.46875 30.199219 95.34375 30.152344 C 95.855469 30.121094 96.183594 29.984375 96.480469 29.671875 C 96.679688 29.457031 96.828125 29.175781 96.914062 28.839844 C 96.996094 28.527344 97.003906 27.9375 96.925781 27.660156 C 96.78125 27.109375 96.40625 26.726562 95.871094 26.585938 C 95.632812 26.523438 95.074219 26.53125 94.832031 26.601562 Z M 95.769531 27.140625 C 96.066406 27.324219 96.226562 27.617188 96.300781 28.105469 C 96.433594 28.953125 96.054688 29.617188 95.414062 29.667969 C 94.886719 29.710938 94.472656 29.378906 94.335938 28.804688 C 94.15625 28.039062 94.363281 27.355469 94.855469 27.105469 C 95.007812 27.027344 95.050781 27.023438 95.316406 27.03125 C 95.578125 27.042969 95.632812 27.054688 95.769531 27.140625 Z M 95.769531 27.140625 "/>
<path style=" stroke:none;fill-rule:nonzero;fill:rgb(80.784314%,8.235294%,19.215686%);fill-opacity:1;" d="M 53.34375 26.597656 C 53.265625 26.613281 53.265625 26.617188 53.289062 26.902344 C 53.300781 27.066406 53.308594 27.851562 53.308594 28.648438 L 53.308594 30.097656 L 53.953125 30.097656 L 54.730469 28.925781 C 55.160156 28.285156 55.5625 27.660156 55.628906 27.539062 L 55.742188 27.328125 L 55.734375 28.710938 L 55.726562 30.097656 L 56.414062 30.097656 L 56.394531 29.878906 C 56.382812 29.757812 56.371094 28.964844 56.371094 28.113281 L 56.371094 26.5625 L 56.050781 26.578125 C 55.875 26.589844 55.722656 26.601562 55.714844 26.609375 C 55.628906 26.710938 54.164062 28.953125 54.070312 29.128906 L 53.9375 29.375 L 53.949219 27.976562 L 53.960938 26.574219 L 53.691406 26.578125 C 53.542969 26.578125 53.386719 26.589844 53.34375 26.597656 Z M 53.34375 26.597656 "/>
<path style=" stroke:none;fill-rule:nonzero;fill:rgb(80.784314%,8.235294%,19.215686%);fill-opacity:1;" d="M 57.503906 26.597656 C 57.433594 26.609375 57.429688 26.621094 57.449219 26.757812 C 57.460938 26.839844 57.46875 27.625 57.46875 28.5 L 57.46875 30.097656 L 58.144531 30.097656 L 58.136719 29.328125 L 58.128906 28.5625 L 58.28125 28.550781 L 58.429688 28.542969 L 58.609375 28.761719 C 58.703125 28.882812 58.980469 29.242188 59.222656 29.554688 L 59.664062 30.128906 L 59.832031 30.128906 C 59.925781 30.128906 60.097656 30.121094 60.21875 30.109375 L 60.433594 30.085938 L 60.273438 29.910156 C 59.953125 29.558594 58.980469 28.285156 59.003906 28.246094 C 59.015625 28.226562 59.203125 27.992188 59.410156 27.722656 C 59.777344 27.257812 60.179688 26.691406 60.179688 26.632812 C 60.179688 26.617188 60.03125 26.605469 59.847656 26.609375 L 59.515625 26.609375 L 59.328125 26.90625 C 59.222656 27.070312 58.992188 27.402344 58.8125 27.648438 L 58.484375 28.089844 L 58.300781 28.09375 L 58.113281 28.09375 L 58.113281 26.574219 L 57.851562 26.578125 C 57.703125 26.578125 57.546875 26.589844 57.503906 26.597656 Z M 57.503906 26.597656 "/>
<path style=" stroke:none;fill-rule:nonzero;fill:rgb(80.784314%,8.235294%,19.215686%);fill-opacity:1;" d="M 70.074219 26.601562 L 69.988281 26.621094 L 70.109375 26.914062 C 70.175781 27.070312 70.464844 27.859375 70.757812 28.664062 L 71.28125 30.121094 L 71.085938 30.605469 C 70.890625 31.085938 70.691406 31.679688 70.691406 31.78125 C 70.691406 31.828125 70.730469 31.84375 70.863281 31.859375 C 70.953125 31.871094 71.09375 31.875 71.171875 31.867188 L 71.3125 31.859375 L 71.417969 31.488281 C 71.574219 30.941406 71.703125 30.589844 72.304688 29.046875 C 72.601562 28.285156 72.882812 27.539062 72.929688 27.398438 C 73.007812 27.15625 73.109375 26.738281 73.109375 26.644531 C 73.109375 26.617188 73.03125 26.605469 72.808594 26.605469 L 72.503906 26.605469 L 72.46875 26.820312 C 72.445312 26.945312 72.285156 27.476562 72.109375 28.011719 C 71.933594 28.546875 71.757812 29.097656 71.722656 29.238281 C 71.6875 29.378906 71.652344 29.5 71.648438 29.503906 C 71.640625 29.511719 71.597656 29.359375 71.550781 29.167969 C 71.503906 28.976562 71.300781 28.320312 71.097656 27.703125 L 70.734375 26.589844 L 70.445312 26.585938 C 70.289062 26.582031 70.121094 26.589844 70.074219 26.601562 Z M 70.074219 26.601562 "/>
<path style=" stroke:none;fill-rule:nonzero;fill:rgb(80.784314%,8.235294%,19.215686%);fill-opacity:1;" d="M 77.507812 26.597656 C 77.464844 26.601562 77.433594 26.617188 77.433594 26.632812 C 77.433594 26.640625 77.492188 26.789062 77.558594 26.957031 C 77.703125 27.320312 78.699219 30.066406 78.699219 30.113281 C 78.699219 30.128906 78.605469 30.382812 78.488281 30.679688 C 78.277344 31.207031 78.085938 31.800781 78.121094 31.828125 C 78.128906 31.839844 78.269531 31.855469 78.4375 31.867188 L 78.742188 31.882812 L 78.820312 31.597656 C 78.9375 31.132812 79.136719 30.589844 79.714844 29.09375 C 80.394531 27.351562 80.523438 26.957031 80.527344 26.691406 L 80.527344 26.605469 L 79.929688 26.605469 L 79.890625 26.847656 C 79.871094 26.980469 79.699219 27.546875 79.515625 28.101562 C 79.332031 28.65625 79.160156 29.195312 79.136719 29.296875 C 79.117188 29.398438 79.089844 29.484375 79.078125 29.484375 C 79.066406 29.484375 79.027344 29.347656 78.988281 29.183594 C 78.949219 29.019531 78.746094 28.363281 78.539062 27.726562 L 78.160156 26.574219 L 77.871094 26.578125 C 77.710938 26.578125 77.546875 26.589844 77.507812 26.597656 Z M 77.507812 26.597656 "/>
<path style=" stroke:none;fill-rule:nonzero;fill:rgb(80.784314%,8.235294%,19.215686%);fill-opacity:1;" d="M 81.273438 26.597656 C 81.195312 26.613281 81.195312 26.613281 81.214844 26.921875 C 81.226562 27.097656 81.238281 27.878906 81.238281 28.664062 L 81.238281 30.097656 L 85.914062 30.097656 L 85.914062 30.382812 C 85.914062 30.539062 85.921875 30.804688 85.9375 30.96875 L 85.957031 31.269531 L 86.226562 31.25 C 86.375 31.242188 86.503906 31.230469 86.511719 31.226562 C 86.515625 31.21875 86.515625 30.84375 86.503906 30.394531 L 86.484375 29.578125 L 85.945312 29.578125 L 85.945312 26.574219 L 85.730469 26.574219 C 85.609375 26.574219 85.460938 26.582031 85.398438 26.59375 L 85.285156 26.613281 L 85.292969 28.097656 L 85.304688 29.578125 L 83.914062 29.578125 L 83.914062 26.574219 L 83.675781 26.574219 C 83.546875 26.574219 83.398438 26.582031 83.347656 26.59375 L 83.253906 26.609375 L 83.261719 28.097656 L 83.277344 29.578125 L 81.882812 29.578125 L 81.882812 26.574219 L 81.617188 26.578125 C 81.46875 26.578125 81.316406 26.589844 81.273438 26.597656 Z M 81.273438 26.597656 "/>
<path style=" stroke:none;fill-rule:nonzero;fill:rgb(80.784314%,8.235294%,19.215686%);fill-opacity:1;" d="M 39.6875 26.644531 C 39.675781 26.667969 39.664062 26.960938 39.65625 27.300781 C 39.617188 28.746094 39.414062 29.34375 38.902344 29.546875 C 38.84375 29.570312 38.796875 29.589844 38.796875 29.59375 C 38.796875 29.59375 38.839844 29.710938 38.890625 29.855469 C 38.980469 30.101562 38.992188 30.113281 39.074219 30.105469 C 39.125 30.101562 39.253906 30.054688 39.367188 30 C 39.902344 29.734375 40.125 29.136719 40.21875 27.707031 L 40.257812 27.121094 L 41.375 27.121094 L 41.375 30.097656 L 42.0625 30.097656 L 42.042969 29.800781 C 42.03125 29.636719 42.023438 28.851562 42.023438 28.054688 L 42.023438 26.605469 L 40.859375 26.605469 C 39.957031 26.605469 39.695312 26.617188 39.6875 26.644531 Z M 39.6875 26.644531 "/>
<path style=" stroke:none;fill-rule:nonzero;fill:rgb(80.784314%,8.235294%,19.215686%);fill-opacity:1;" d="M 74.261719 27.160156 C 74.238281 27.757812 74.171875 28.359375 74.089844 28.707031 C 74.023438 28.96875 73.859375 29.335938 73.742188 29.472656 C 73.664062 29.566406 73.632812 29.578125 73.492188 29.578125 L 73.328125 29.578125 L 73.347656 30.25 C 73.363281 30.621094 73.378906 31 73.386719 31.089844 L 73.40625 31.261719 L 73.574219 31.261719 C 73.664062 31.261719 73.792969 31.25 73.855469 31.242188 L 73.976562 31.222656 L 73.957031 30.660156 L 73.941406 30.097656 L 76.5625 30.097656 L 76.5625 30.382812 C 76.5625 30.539062 76.570312 30.804688 76.585938 30.96875 L 76.601562 31.269531 L 76.875 31.25 C 77.023438 31.242188 77.152344 31.230469 77.15625 31.226562 C 77.160156 31.21875 77.15625 30.84375 77.148438 30.394531 L 77.132812 29.578125 L 76.59375 29.578125 L 76.59375 26.605469 L 74.28125 26.605469 Z M 75.949219 28.351562 L 75.949219 29.578125 L 74.304688 29.578125 L 74.382812 29.457031 C 74.621094 29.097656 74.820312 28.128906 74.820312 27.34375 L 74.820312 27.121094 L 75.949219 27.121094 Z M 75.949219 28.351562 "/>
<path style=" stroke:none;fill-rule:nonzero;fill:rgb(80.784314%,8.235294%,19.215686%);fill-opacity:1;" d="M 90.957031 26.773438 C 90.96875 26.867188 90.976562 27.652344 90.976562 28.519531 L 90.976562 30.097656 L 91.636719 30.097656 L 91.625 28.605469 L 91.617188 27.117188 L 92.394531 27.125 L 93.171875 27.140625 L 93.171875 27.023438 C 93.171875 26.957031 93.179688 26.839844 93.191406 26.753906 L 93.210938 26.605469 L 90.933594 26.605469 Z M 90.957031 26.773438 "/>
<path style=" stroke:none;fill-rule:nonzero;fill:rgb(80.784314%,8.235294%,19.215686%);fill-opacity:1;" d="M 26.121094 35.546875 C 26.027344 35.570312 25.660156 35.628906 25.316406 35.671875 C 24.1875 35.816406 23.738281 35.953125 23.21875 36.304688 C 23.015625 36.441406 22.667969 36.796875 22.519531 37.015625 C 22.101562 37.636719 21.886719 38.535156 21.84375 39.859375 C 21.820312 40.585938 21.863281 41.101562 21.980469 41.570312 C 22.300781 42.835938 23.238281 43.484375 24.53125 43.320312 C 25.1875 43.238281 25.582031 43.054688 25.992188 42.640625 C 26.304688 42.328125 26.488281 42.011719 26.601562 41.574219 C 26.75 41.015625 26.757812 40.300781 26.617188 39.816406 C 26.453125 39.269531 26.046875 38.765625 25.570312 38.539062 C 25.175781 38.351562 24.921875 38.296875 24.445312 38.296875 C 23.976562 38.292969 23.792969 38.332031 23.421875 38.503906 C 23.140625 38.640625 22.824219 38.90625 22.65625 39.148438 C 22.53125 39.328125 22.496094 39.3125 22.523438 39.085938 C 22.558594 38.761719 22.699219 38.304688 22.871094 37.953125 C 23.011719 37.65625 23.070312 37.578125 23.316406 37.335938 C 23.777344 36.871094 24.226562 36.703125 25.292969 36.566406 C 25.785156 36.503906 26.402344 36.390625 26.4375 36.355469 C 26.457031 36.332031 26.34375 35.496094 26.320312 35.5 C 26.308594 35.503906 26.21875 35.523438 26.121094 35.546875 Z M 24.789062 39.109375 C 25.347656 39.324219 25.65625 39.835938 25.738281 40.695312 C 25.804688 41.386719 25.65625 41.882812 25.269531 42.273438 C 25.019531 42.523438 24.808594 42.609375 24.394531 42.632812 C 23.4375 42.683594 22.882812 42.054688 22.808594 40.863281 C 22.785156 40.414062 22.835938 40.117188 22.996094 39.796875 C 23.285156 39.226562 23.773438 38.957031 24.414062 39.023438 C 24.53125 39.035156 24.699219 39.074219 24.789062 39.109375 Z M 24.789062 39.109375 "/>
<path style=" stroke:none;fill-rule:nonzero;fill:rgb(80.784314%,8.235294%,19.215686%);fill-opacity:1;" d="M 0.34375 36.066406 L -0.00390625 36.082031 L 0.0078125 37.476562 L 0.015625 38.875 L 0.105469 39.132812 C 0.304688 39.695312 0.65625 40.132812 1.070312 40.335938 C 1.8125 40.695312 2.90625 40.730469 4.105469 40.425781 L 4.191406 40.402344 L 4.191406 43.253906 L 5.230469 43.253906 L 5.207031 43.164062 C 5.195312 43.117188 5.175781 41.496094 5.167969 39.558594 L 5.15625 36.046875 L 4.78125 36.0625 C 4.574219 36.070312 4.335938 36.085938 4.261719 36.097656 C 4.132812 36.113281 4.125 36.121094 4.144531 36.183594 C 4.15625 36.222656 4.175781 37.042969 4.183594 38.003906 L 4.199219 39.757812 L 3.992188 39.792969 C 3.570312 39.867188 3.066406 39.898438 2.613281 39.886719 C 2.226562 39.871094 2.113281 39.855469 1.949219 39.796875 C 1.453125 39.605469 1.183594 39.285156 1.027344 38.703125 C 0.960938 38.476562 0.953125 38.351562 0.941406 37.246094 L 0.929688 36.046875 L 0.8125 36.050781 C 0.746094 36.054688 0.535156 36.066406 0.34375 36.066406 Z M 0.34375 36.066406 "/>
<path style=" stroke:none;fill-rule:nonzero;fill:rgb(80.784314%,8.235294%,19.215686%);fill-opacity:1;" d="M 8.335938 38.082031 C 7.976562 38.125 7.640625 38.203125 7.347656 38.316406 L 7.09375 38.410156 L 7.09375 38.785156 C 7.09375 39.125 7.097656 39.15625 7.152344 39.132812 C 7.664062 38.929688 8.175781 38.839844 8.714844 38.863281 C 9.230469 38.886719 9.484375 39.027344 9.644531 39.390625 C 9.703125 39.519531 9.722656 39.628906 9.734375 39.945312 L 9.746094 40.335938 L 9.316406 40.359375 C 9.078125 40.371094 8.757812 40.398438 8.59375 40.414062 C 7.386719 40.554688 6.742188 41.105469 6.734375 42 C 6.730469 42.628906 7.042969 43.085938 7.59375 43.261719 C 7.863281 43.34375 8.390625 43.359375 8.675781 43.289062 C 8.925781 43.226562 9.292969 43.054688 9.535156 42.878906 C 9.648438 42.796875 9.75 42.738281 9.753906 42.742188 C 9.757812 42.746094 9.792969 42.820312 9.832031 42.90625 C 10.050781 43.371094 10.683594 43.488281 11.199219 43.15625 L 11.351562 43.058594 L 11.351562 42.382812 L 11.195312 42.460938 C 10.957031 42.582031 10.835938 42.59375 10.726562 42.507812 L 10.632812 42.433594 L 10.65625 40.996094 C 10.679688 39.714844 10.675781 39.523438 10.625 39.292969 C 10.496094 38.671875 10.148438 38.296875 9.542969 38.128906 C 9.328125 38.070312 8.683594 38.042969 8.335938 38.082031 Z M 9.71875 41.5 C 9.710938 41.851562 9.699219 42.15625 9.691406 42.175781 C 9.679688 42.214844 9.273438 42.417969 9.046875 42.496094 C 8.800781 42.578125 8.292969 42.597656 8.113281 42.53125 C 7.808594 42.414062 7.675781 42.214844 7.675781 41.878906 C 7.675781 41.65625 7.75 41.46875 7.886719 41.339844 C 8.144531 41.101562 8.890625 40.898438 9.632812 40.867188 L 9.734375 40.863281 Z M 9.71875 41.5 "/>
<path style=" stroke:none;fill-rule:nonzero;fill:rgb(80.784314%,8.235294%,19.215686%);fill-opacity:1;" d="M 30.136719 38.070312 C 29.800781 38.117188 29.519531 38.203125 29.25 38.332031 C 28.996094 38.453125 28.90625 38.523438 28.671875 38.757812 C 28.441406 38.988281 28.367188 39.085938 28.242188 39.34375 C 27.8125 40.226562 27.789062 41.414062 28.191406 42.199219 C 28.371094 42.550781 28.75 42.929688 29.070312 43.085938 C 29.671875 43.378906 30.460938 43.421875 31.152344 43.203125 C 32.109375 42.902344 32.699219 42.046875 32.796875 40.808594 C 32.871094 39.886719 32.660156 39.199219 32.140625 38.679688 C 31.847656 38.386719 31.605469 38.25 31.195312 38.144531 C 30.949219 38.078125 30.351562 38.035156 30.136719 38.070312 Z M 30.566406 38.761719 C 31.035156 38.839844 31.394531 39.109375 31.601562 39.550781 C 31.769531 39.894531 31.835938 40.210938 31.851562 40.714844 C 31.878906 41.402344 31.742188 41.835938 31.390625 42.21875 C 31.136719 42.496094 30.890625 42.609375 30.515625 42.632812 C 29.714844 42.679688 29.175781 42.257812 28.953125 41.414062 C 28.859375 41.0625 28.839844 40.285156 28.910156 39.976562 C 29.023438 39.476562 29.320312 39.066406 29.683594 38.890625 C 29.980469 38.742188 30.226562 38.707031 30.566406 38.761719 Z M 30.566406 38.761719 "/>
<path style=" stroke:none;fill-rule:nonzero;fill:rgb(80.784314%,8.235294%,19.215686%);fill-opacity:1;" d="M 63.128906 38.070312 C 62.316406 38.203125 61.628906 38.75 61.308594 39.53125 C 61.046875 40.171875 60.976562 41.011719 61.144531 41.652344 C 61.304688 42.28125 61.714844 42.828125 62.210938 43.070312 C 62.609375 43.265625 62.894531 43.328125 63.4375 43.328125 C 63.960938 43.328125 64.207031 43.285156 64.621094 43.125 L 64.886719 43.023438 L 64.886719 42.648438 C 64.886719 42.308594 64.882812 42.277344 64.832031 42.300781 C 64.304688 42.515625 63.664062 42.597656 63.234375 42.507812 C 62.394531 42.328125 61.902344 41.445312 62.011719 40.316406 C 62.054688 39.90625 62.148438 39.613281 62.316406 39.371094 C 62.652344 38.878906 63.195312 38.742188 64.039062 38.933594 C 64.238281 38.984375 64.488281 39.03125 64.589844 39.046875 L 64.78125 39.070312 L 64.820312 38.710938 C 64.839844 38.515625 64.855469 38.332031 64.855469 38.300781 C 64.855469 38.261719 64.804688 38.246094 64.65625 38.230469 C 64.542969 38.21875 64.324219 38.179688 64.167969 38.144531 C 63.882812 38.082031 63.3125 38.039062 63.128906 38.070312 Z M 63.128906 38.070312 "/>
<path style=" stroke:none;fill-rule:nonzero;fill:rgb(80.784314%,8.235294%,19.215686%);fill-opacity:1;" d="M 84.058594 38.078125 C 83.535156 38.164062 83.164062 38.351562 82.78125 38.726562 C 82.550781 38.957031 82.484375 39.054688 82.355469 39.308594 C 82.105469 39.816406 81.988281 40.433594 82.019531 41.054688 C 82.085938 42.230469 82.6875 43 83.738281 43.261719 C 84.296875 43.398438 85.242188 43.339844 85.847656 43.132812 C 86.234375 43.003906 86.203125 43.042969 86.203125 42.640625 C 86.203125 42.441406 86.199219 42.285156 86.195312 42.285156 C 86.1875 42.285156 86.0625 42.320312 85.910156 42.367188 C 85.339844 42.535156 84.699219 42.589844 84.257812 42.496094 C 83.515625 42.335938 83.058594 41.765625 82.96875 40.882812 L 82.953125 40.734375 L 86.492188 40.734375 L 86.515625 40.617188 C 86.527344 40.550781 86.527344 40.308594 86.519531 40.078125 C 86.507812 39.738281 86.484375 39.597656 86.421875 39.390625 C 86.199219 38.714844 85.753906 38.285156 85.105469 38.128906 C 84.855469 38.070312 84.28125 38.042969 84.058594 38.078125 Z M 84.855469 38.796875 C 85.070312 38.867188 85.277344 39.050781 85.390625 39.277344 C 85.5 39.5 85.597656 39.964844 85.539062 40.019531 C 85.523438 40.035156 84.941406 40.058594 84.246094 40.066406 L 82.984375 40.089844 L 83.015625 39.960938 C 83.125 39.464844 83.40625 39.066406 83.785156 38.871094 C 84.054688 38.730469 84.554688 38.695312 84.855469 38.796875 Z M 84.855469 38.796875 "/>
<path style=" stroke:none;fill-rule:nonzero;fill:rgb(80.784314%,8.235294%,19.215686%);fill-opacity:1;" d="M 100.585938 38.085938 C 99.21875 38.296875 98.421875 39.4375 98.5 41.070312 C 98.523438 41.535156 98.585938 41.789062 98.75 42.140625 C 98.921875 42.492188 99.144531 42.757812 99.441406 42.960938 C 100.308594 43.539062 101.730469 43.453125 102.503906 42.769531 C 102.976562 42.347656 103.230469 41.871094 103.34375 41.148438 C 103.589844 39.628906 102.984375 38.453125 101.789062 38.144531 C 101.492188 38.070312 100.894531 38.035156 100.585938 38.085938 Z M 101.210938 38.777344 C 101.492188 38.835938 101.789062 38.992188 101.949219 39.179688 C 102.125 39.378906 102.316406 39.785156 102.382812 40.117188 C 102.453125 40.460938 102.460938 41.160156 102.398438 41.410156 C 102.210938 42.179688 101.679688 42.640625 100.992188 42.640625 C 100.570312 42.636719 100.300781 42.535156 100.007812 42.261719 C 99.695312 41.972656 99.527344 41.550781 99.457031 40.890625 C 99.378906 40.144531 99.535156 39.558594 99.929688 39.148438 C 100.125 38.945312 100.324219 38.832031 100.585938 38.773438 C 100.828125 38.722656 100.953125 38.722656 101.210938 38.777344 Z M 101.210938 38.777344 "/>
<path style=" stroke:none;fill-rule:nonzero;fill:rgb(80.784314%,8.235294%,19.215686%);fill-opacity:1;" d="M 70.6875 38.136719 C 70.546875 38.144531 70.433594 38.15625 70.433594 38.164062 C 70.433594 38.167969 70.511719 38.367188 70.609375 38.605469 C 70.800781 39.082031 72.304688 43.234375 72.304688 43.292969 C 72.304688 43.3125 72.21875 43.535156 72.113281 43.785156 C 71.9375 44.210938 71.726562 44.761719 71.675781 44.929688 L 71.652344 45.003906 L 72.113281 44.992188 L 72.570312 44.984375 L 72.605469 44.886719 C 72.746094 44.441406 73.132812 43.402344 73.746094 41.832031 C 74.144531 40.808594 74.53125 39.816406 74.597656 39.621094 C 74.753906 39.195312 74.90625 38.625 74.941406 38.347656 L 74.972656 38.148438 L 74.078125 38.148438 L 74.078125 38.230469 C 74.078125 38.46875 73.902344 39.101562 73.507812 40.273438 C 73.269531 40.988281 73.023438 41.761719 72.96875 41.988281 C 72.910156 42.214844 72.851562 42.398438 72.835938 42.398438 C 72.820312 42.398438 72.777344 42.257812 72.738281 42.085938 C 72.628906 41.589844 72.523438 41.261719 71.992188 39.640625 L 71.488281 38.113281 L 71.210938 38.121094 C 71.058594 38.125 70.820312 38.132812 70.6875 38.136719 Z M 70.6875 38.136719 "/>
<path style=" stroke:none;fill-rule:nonzero;fill:rgb(80.784314%,8.235294%,19.215686%);fill-opacity:1;" d="M 88.140625 38.136719 L 87.90625 38.148438 L 87.929688 38.285156 C 87.9375 38.359375 87.957031 39.507812 87.964844 40.835938 L 87.984375 43.253906 L 88.945312 43.253906 L 88.925781 43 C 88.914062 42.855469 88.902344 42.359375 88.898438 41.890625 L 88.898438 41.039062 L 91.25 41.039062 L 91.261719 42.148438 L 91.265625 43.253906 L 92.242188 43.253906 L 92.21875 43.164062 C 92.207031 43.117188 92.191406 41.957031 92.179688 40.589844 L 92.164062 38.105469 L 91.691406 38.128906 C 91.433594 38.144531 91.214844 38.15625 91.210938 38.160156 C 91.207031 38.164062 91.214844 38.421875 91.234375 38.730469 C 91.25 39.042969 91.265625 39.515625 91.265625 39.785156 L 91.265625 40.28125 L 88.882812 40.28125 L 88.882812 38.113281 L 88.632812 38.121094 C 88.492188 38.125 88.273438 38.132812 88.140625 38.136719 Z M 88.140625 38.136719 "/>
<path style=" stroke:none;fill-rule:nonzero;fill:rgb(80.784314%,8.235294%,19.215686%);fill-opacity:1;" d="M 12.046875 38.246094 C 12.039062 38.300781 12.027344 38.480469 12.027344 38.636719 L 12.027344 38.929688 L 12.136719 38.910156 C 12.191406 38.898438 12.578125 38.878906 12.992188 38.871094 L 13.738281 38.847656 L 13.738281 43.253906 L 14.691406 43.253906 L 14.679688 41.054688 L 14.671875 38.859375 L 15.132812 38.859375 C 15.386719 38.859375 15.746094 38.875 15.929688 38.890625 C 16.117188 38.90625 16.273438 38.914062 16.28125 38.90625 C 16.292969 38.898438 16.304688 38.722656 16.3125 38.519531 L 16.328125 38.148438 L 12.070312 38.148438 Z M 12.046875 38.246094 "/>
<path style=" stroke:none;fill-rule:nonzero;fill:rgb(80.784314%,8.235294%,19.215686%);fill-opacity:1;" d="M 33.6875 38.316406 C 33.679688 38.410156 33.667969 38.585938 33.667969 38.710938 L 33.667969 38.929688 L 33.777344 38.910156 C 33.832031 38.898438 34.21875 38.882812 34.628906 38.871094 L 35.378906 38.847656 L 35.378906 43.253906 L 36.328125 43.253906 L 36.320312 41.054688 L 36.308594 38.859375 L 36.769531 38.859375 C 37.027344 38.859375 37.382812 38.875 37.566406 38.890625 C 37.753906 38.90625 37.914062 38.914062 37.921875 38.902344 C 37.933594 38.898438 37.945312 38.722656 37.953125 38.519531 L 37.972656 38.148438 L 33.710938 38.148438 Z M 33.6875 38.316406 "/>
<path style=" stroke:none;fill-rule:nonzero;fill:rgb(80.784314%,8.235294%,19.215686%);fill-opacity:1;" d="M 42.234375 38.316406 C 42.226562 38.410156 42.207031 38.71875 42.199219 39.003906 C 42.15625 40.136719 42.007812 41.148438 41.800781 41.707031 C 41.707031 41.945312 41.519531 42.253906 41.363281 42.414062 C 41.246094 42.535156 41.230469 42.542969 41.035156 42.542969 C 40.890625 42.542969 40.828125 42.554688 40.828125 42.582031 C 40.828125 42.605469 40.851562 43.097656 40.875 43.675781 C 40.902344 44.253906 40.925781 44.773438 40.925781 44.828125 L 40.925781 44.933594 L 41.128906 44.933594 C 41.238281 44.933594 41.425781 44.925781 41.542969 44.914062 L 41.753906 44.894531 L 41.722656 43.253906 L 45.527344 43.253906 L 45.550781 43.777344 C 45.558594 44.070312 45.578125 44.449219 45.59375 44.625 L 45.609375 44.945312 L 46.015625 44.925781 C 46.238281 44.914062 46.421875 44.898438 46.421875 44.898438 C 46.425781 44.890625 46.421875 44.359375 46.414062 43.714844 L 46.402344 42.542969 L 45.601562 42.542969 L 45.601562 38.148438 L 42.25 38.148438 Z M 44.667969 40.714844 L 44.667969 42.542969 L 43.441406 42.542969 C 42.765625 42.542969 42.214844 42.535156 42.214844 42.519531 C 42.214844 42.511719 42.25 42.457031 42.292969 42.402344 C 42.652344 41.929688 42.910156 40.863281 42.972656 39.617188 C 42.984375 39.402344 43 39.152344 43.007812 39.058594 L 43.023438 38.890625 L 44.667969 38.890625 Z M 44.667969 40.714844 "/>
<path style=" stroke:none;fill-rule:nonzero;fill:rgb(80.784314%,8.235294%,19.215686%);fill-opacity:1;" d="M 48.234375 38.835938 C 48.191406 40.355469 48.058594 41.253906 47.808594 41.785156 C 47.65625 42.109375 47.347656 42.378906 47.015625 42.488281 C 46.964844 42.503906 46.972656 42.550781 47.089844 42.894531 C 47.238281 43.347656 47.222656 43.339844 47.59375 43.191406 C 48.535156 42.816406 48.898438 41.914062 49.027344 39.574219 L 49.066406 38.890625 L 50.730469 38.890625 L 50.730469 43.253906 L 51.707031 43.253906 L 51.683594 43.003906 C 51.675781 42.871094 51.664062 41.722656 51.664062 40.453125 L 51.664062 38.148438 L 48.253906 38.148438 Z M 48.234375 38.835938 "/>
<path style=" stroke:none;fill-rule:nonzero;fill:rgb(80.784314%,8.235294%,19.215686%);fill-opacity:1;" d="M 54.890625 38.183594 C 54.382812 38.246094 53.933594 38.457031 53.640625 38.769531 C 53.457031 38.964844 53.371094 39.121094 53.300781 39.375 C 53.179688 39.796875 53.207031 40.179688 53.375 40.527344 C 53.492188 40.769531 53.773438 41.046875 54.042969 41.183594 C 54.179688 41.25 54.238281 41.296875 54.226562 41.324219 C 54.210938 41.347656 53.941406 41.78125 53.625 42.289062 C 53.308594 42.796875 53.050781 43.226562 53.050781 43.234375 C 53.050781 43.246094 53.292969 43.25 53.589844 43.246094 L 54.128906 43.238281 L 54.625 42.355469 L 55.121094 41.476562 L 56.242188 41.476562 L 56.242188 43.253906 L 57.222656 43.253906 L 57.199219 43.058594 C 57.1875 42.945312 57.179688 41.796875 57.179688 40.503906 L 57.179688 38.148438 L 56.15625 38.148438 C 55.59375 38.152344 55.023438 38.167969 54.890625 38.183594 Z M 56.242188 39.847656 L 56.242188 40.804688 L 55.640625 40.789062 C 54.949219 40.773438 54.78125 40.730469 54.527344 40.507812 C 54.09375 40.125 54.113281 39.40625 54.570312 39.082031 C 54.792969 38.921875 54.960938 38.894531 55.625 38.890625 L 56.242188 38.890625 Z M 56.242188 39.847656 "/>
<path style=" stroke:none;fill-rule:nonzero;fill:rgb(80.784314%,8.235294%,19.215686%);fill-opacity:1;" d="M 65.675781 38.523438 C 65.664062 38.726562 65.660156 38.898438 65.667969 38.90625 C 65.675781 38.914062 65.84375 38.90625 66.046875 38.890625 C 66.25 38.875 66.632812 38.859375 66.894531 38.859375 L 67.371094 38.859375 L 67.371094 43.253906 L 68.320312 43.253906 L 68.3125 41.054688 L 68.300781 38.859375 L 68.746094 38.859375 C 68.992188 38.859375 69.359375 38.875 69.5625 38.890625 C 69.765625 38.90625 69.933594 38.914062 69.9375 38.914062 C 69.941406 38.910156 69.949219 38.734375 69.957031 38.523438 L 69.972656 38.148438 L 65.699219 38.148438 Z M 65.675781 38.523438 "/>
<path style=" stroke:none;fill-rule:nonzero;fill:rgb(80.784314%,8.235294%,19.215686%);fill-opacity:1;" d="M 76.871094 38.71875 C 76.828125 39.820312 76.726562 40.742188 76.578125 41.316406 C 76.476562 41.703125 76.25 42.160156 76.058594 42.378906 L 75.910156 42.542969 L 75.496094 42.542969 L 75.496094 42.710938 C 75.496094 42.972656 75.5625 44.503906 75.582031 44.738281 L 75.601562 44.945312 L 76.007812 44.921875 C 76.230469 44.914062 76.417969 44.898438 76.417969 44.894531 C 76.425781 44.890625 76.417969 44.703125 76.398438 44.484375 C 76.382812 44.257812 76.367188 43.894531 76.367188 43.664062 L 76.367188 43.253906 L 78.269531 43.253906 C 79.320312 43.253906 80.175781 43.257812 80.175781 43.261719 C 80.179688 43.265625 80.199219 43.640625 80.21875 44.09375 L 80.253906 44.917969 L 80.671875 44.914062 C 80.898438 44.90625 81.089844 44.898438 81.09375 44.898438 C 81.097656 44.890625 81.089844 44.742188 81.074219 44.5625 C 81.058594 44.386719 81.046875 43.859375 81.042969 43.390625 L 81.042969 42.542969 L 80.269531 42.542969 L 80.269531 38.148438 L 76.894531 38.148438 Z M 79.328125 40.707031 L 79.320312 42.527344 L 78.101562 42.535156 C 77.398438 42.539062 76.882812 42.53125 76.882812 42.515625 C 76.882812 42.496094 76.9375 42.402344 77.011719 42.296875 C 77.246094 41.9375 77.421875 41.371094 77.527344 40.636719 C 77.59375 40.171875 77.65625 39.425781 77.65625 39.089844 L 77.65625 38.890625 L 79.335938 38.890625 Z M 79.328125 40.707031 "/>
<path style=" stroke:none;fill-rule:nonzero;fill:rgb(80.784314%,8.235294%,19.215686%);fill-opacity:1;" d="M 93.355469 38.523438 C 93.34375 38.734375 93.339844 38.910156 93.34375 38.914062 C 93.347656 38.914062 93.515625 38.90625 93.71875 38.890625 C 93.921875 38.875 94.300781 38.859375 94.566406 38.859375 L 95.039062 38.859375 L 95.039062 43.253906 L 95.542969 43.253906 C 96.011719 43.253906 96.046875 43.25 96.019531 43.199219 C 96.003906 43.167969 95.988281 42.179688 95.984375 40.996094 L 95.96875 38.859375 L 96.449219 38.859375 C 96.710938 38.859375 97.078125 38.875 97.261719 38.890625 C 97.449219 38.90625 97.605469 38.914062 97.609375 38.914062 C 97.609375 38.910156 97.621094 38.734375 97.632812 38.523438 L 97.65625 38.148438 L 93.375 38.148438 Z M 93.355469 38.523438 "/>
<path style=" stroke:none;fill-rule:nonzero;fill:rgb(80.784314%,8.235294%,19.215686%);fill-opacity:1;" d="M 104.859375 38.28125 C 104.871094 38.355469 104.890625 39.511719 104.894531 40.839844 L 104.914062 43.261719 L 106.144531 43.246094 C 107.503906 43.230469 107.542969 43.226562 108 43.011719 C 108.402344 42.820312 108.6875 42.484375 108.777344 42.085938 C 108.828125 41.875 108.816406 41.503906 108.761719 41.335938 C 108.648438 41.015625 108.238281 40.699219 107.863281 40.648438 C 107.703125 40.625 107.644531 40.582031 107.738281 40.550781 C 107.769531 40.546875 107.886719 40.492188 108 40.433594 C 108.390625 40.242188 108.59375 39.898438 108.597656 39.40625 C 108.601562 39.175781 108.589844 39.101562 108.515625 38.953125 C 108.347656 38.589844 108.058594 38.371094 107.5625 38.238281 C 107.332031 38.171875 107.214844 38.164062 106.074219 38.152344 L 104.839844 38.140625 Z M 107.296875 38.945312 C 107.585938 39.085938 107.6875 39.246094 107.691406 39.554688 C 107.695312 39.808594 107.59375 40 107.386719 40.140625 C 107.179688 40.277344 106.910156 40.320312 106.3125 40.304688 L 105.828125 40.296875 L 105.820312 39.570312 L 105.8125 38.851562 L 106.480469 38.863281 C 107.085938 38.875 107.164062 38.882812 107.296875 38.945312 Z M 107.503906 41.089844 C 107.59375 41.132812 107.707031 41.222656 107.761719 41.292969 C 107.855469 41.410156 107.859375 41.429688 107.859375 41.710938 C 107.859375 41.980469 107.851562 42.023438 107.773438 42.140625 C 107.671875 42.296875 107.550781 42.394531 107.355469 42.46875 C 107.246094 42.511719 107.058594 42.523438 106.515625 42.535156 L 105.8125 42.550781 L 105.8125 40.984375 L 106.578125 40.996094 C 107.320312 41.007812 107.351562 41.011719 107.503906 41.089844 Z M 107.503906 41.089844 "/>
<path style=" stroke:none;fill-rule:nonzero;fill:rgb(80.784314%,8.235294%,19.215686%);fill-opacity:1;" d="M 18.527344 39.945312 C 17.960938 39.964844 17.464844 39.984375 17.425781 39.984375 C 17.355469 39.988281 17.351562 40 17.351562 40.328125 L 17.351562 40.667969 L 17.441406 40.667969 C 17.488281 40.667969 18.085938 40.644531 18.769531 40.621094 C 19.453125 40.59375 20.078125 40.570312 20.164062 40.570312 L 20.316406 40.570312 L 20.316406 39.890625 L 19.941406 39.898438 C 19.730469 39.898438 19.09375 39.921875 18.527344 39.945312 Z M 18.527344 39.945312 "/>
</g>
</svg>
